ScheherazadeBold.ufo
<glyph name="quotedbl" format="2">
  <unicode hex="0022"/>
  <advance width="853"/>
  <outline>
    <contour>
      <point x="720" y="933" type="line" smooth="yes"/>
      <point x="720" y="995"/>
      <point x="670" y="1044"/>
      <point x="608" y="1044" type="curve" smooth="yes"/>
      <point x="545" y="1044"/>
      <point x="496" y="995"/>
      <point x="496" y="933" type="curve" smooth="yes"/>
      <point x="496" y="890"/>
      <point x="580" y="544"/>
      <point x="580" y="544" type="curve"/>
      <point x="635" y="544" type="line"/>
      <point x="635" y="544"/>
      <point x="720" y="890"/>
      <point x="720" y="933" type="curve" smooth="yes"/>
    </contour>
    <contour>
      <point x="357" y="933" type="line" smooth="yes"/>
      <point x="357" y="995"/>
      <point x="306" y="1044"/>
      <point x="244" y="1044" type="curve" smooth="yes"/>
      <point x="181" y="1044"/>
      <point x="132" y="995"/>
      <point x="132" y="933" type="curve" smooth="yes"/>
      <point x="132" y="890"/>
      <point x="216" y="544"/>
      <point x="216" y="544" type="curve"/>
      <point x="271" y="544" type="line"/>
      <point x="271" y="544"/>
      <point x="357" y="890"/>
      <point x="357" y="933" type="curve" smooth="yes"/>
    </contour>
  </outline>
</glyph>
<glyph name="numbersign" format="2">
  <unicode hex="0023"/>
  <advance width="771"/>
  <outline>
    <contour>
      <point x="741" y="299" type="line"/>
      <point x="741" y="403" type="line"/>
      <point x="575" y="403" type="line"/>
      <point x="617" y="615" type="line"/>
      <point x="741" y="615" type="line"/>
      <point x="741" y="720" type="line"/>
      <point x="638" y="720" type="line"/>
      <point x="704" y="1044" type="line"/>
      <point x="597" y="1044" type="line"/>
      <point x="533" y="720" type="line"/>
      <point x="321" y="720" type="line"/>
      <point x="386" y="1044" type="line"/>
      <point x="281" y="1044" type="line"/>
      <point x="215" y="720" type="line"/>
      <point x="30" y="720" type="line"/>
      <point x="30" y="615" type="line"/>
      <point x="193" y="615" type="line"/>
      <point x="153" y="403" type="line"/>
      <point x="30" y="403" type="line"/>
      <point x="30" y="299" type="line"/>
      <point x="131" y="299" type="line"/>
      <point x="67" y="-22" type="line"/>
      <point x="171" y="-22" type="line"/>
      <point x="238" y="299" type="line"/>
      <point x="448" y="299" type="line"/>
      <point x="383" y="-22" type="line"/>
      <point x="490" y="-22" type="line"/>
      <point x="554" y="299" type="line"/>
    </contour>
    <contour>
      <point x="513" y="615" type="line"/>
      <point x="469" y="403" type="line"/>
      <point x="260" y="403" type="line"/>
      <point x="302" y="615" type="line"/>
    </contour>
  </outline>
</glyph>
<glyph name="dollar" format="2">
  <unicode hex="0024"/>
  <advance width="787"/>
  <outline>
    <contour>
      <point x="737" y="274" type="line" smooth="yes"/>
      <point x="737" y="482"/>
      <point x="559" y="560"/>
      <point x="440" y="646" type="curve"/>
      <point x="440" y="969" type="line"/>
      <point x="542" y="955"/>
      <point x="607" y="845"/>
      <point x="619" y="708" type="curve"/>
      <point x="688" y="708" type="line" name="hr01"/>
      <point x="688" y="973" type="line"/>
      <point x="604" y="1004"/>
      <point x="530" y="1036"/>
      <point x="440" y="1040" type="curve" name="hr02"/>
      <point x="440" y="1110" type="line"/>
      <point x="351" y="1110" type="line"/>
      <point x="351" y="1040" type="line"/>
      <point x="214" y="1030"/>
      <point x="65" y="924"/>
      <point x="65" y="775" type="curve" smooth="yes"/>
      <point x="65" y="596"/>
      <point x="221" y="510"/>
      <point x="351" y="427" type="curve"/>
      <point x="351" y="49" type="line"/>
      <point x="264" y="61"/>
      <point x="168" y="151"/>
      <point x="158" y="292" type="curve"/>
      <point x="85" y="292" type="line"/>
      <point x="85" y="39" type="line"/>
      <point x="169" y="2"/>
      <point x="261" y="-18"/>
      <point x="351" y="-23" type="curve"/>
      <point x="351" y="-117" type="line"/>
      <point x="440" y="-117" type="line"/>
      <point x="440" y="-23" type="line"/>
      <point x="594" y="-12"/>
      <point x="737" y="78"/>
      <point x="737" y="274" type="curve" smooth="yes"/>
    </contour>
    <contour>
      <point x="351" y="679" type="line"/>
      <point x="282" y="722"/>
      <point x="242" y="790"/>
      <point x="242" y="842" type="curve" smooth="yes" name="hr03"/>
      <point x="242" y="906"/>
      <point x="267" y="957"/>
      <point x="351" y="969" type="curve"/>
    </contour>
    <contour>
      <point x="558" y="217" type="line" smooth="yes"/>
      <point x="558" y="127"/>
      <point x="511" y="55"/>
      <point x="440" y="49" type="curve"/>
      <point x="440" y="394" type="line"/>
      <point x="520" y="340"/>
      <point x="558" y="273"/>
      <point x="558" y="217" type="curve" smooth="yes"/>
    </contour>
  </outline>
</glyph>
<glyph name="percent" format="2">
  <unicode hex="0025"/>
  <advance width="1306"/>
  <outline>
    <contour>
      <point x="1240" y="376" type="line" smooth="yes"/>
      <point x="1240" y="469"/>
      <point x="1208" y="582"/>
      <point x="1046" y="582" type="curve" smooth="yes"/>
      <point x="849" y="582"/>
      <point x="677" y="367"/>
      <point x="677" y="199" type="curve" smooth="yes"/>
      <point x="677" y="43"/>
      <point x="755" y="-24"/>
      <point x="881" y="-24" type="curve" smooth="yes"/>
      <point x="1108" y="-24"/>
      <point x="1240" y="207"/>
      <point x="1240" y="376" type="curve" smooth="yes"/>
    </contour>
    <contour>
      <point x="1049" y="1049" type="line"/>
      <point x="909" y="1049" type="line"/>
      <point x="856" y="982"/>
      <point x="778" y="948"/>
      <point x="692" y="948" type="curve" smooth="yes"/>
      <point x="579" y="948"/>
      <point x="575" y="1028"/>
      <point x="444" y="1028" type="curve" smooth="yes"/>
      <point x="248" y="1028"/>
      <point x="65" y="850"/>
      <point x="65" y="644" type="curve" smooth="yes"/>
      <point x="65" y="505"/>
      <point x="146" y="422"/>
      <point x="279" y="422" type="curve" smooth="yes"/>
      <point x="482" y="422"/>
      <point x="627" y="643"/>
      <point x="627" y="822" type="curve" smooth="yes"/>
      <point x="627" y="854"/>
      <point x="624" y="884"/>
      <point x="615" y="909" type="curve"/>
      <point x="646" y="899"/>
      <point x="673" y="894"/>
      <point x="698" y="894" type="curve" smooth="yes"/>
      <point x="743" y="894"/>
      <point x="783" y="910"/>
      <point x="842" y="937" type="curve"/>
      <point x="276" y="-22" type="line" name="hr01"/>
      <point x="419" y="-22" type="line"/>
    </contour>
    <contour>
      <point x="1182" y="360" type="line" smooth="yes"/>
      <point x="1182" y="226"/>
      <point x="1040" y="38"/>
      <point x="940" y="38" type="curve" smooth="yes" name="hr02"/>
      <point x="873" y="38"/>
      <point x="832" y="77"/>
      <point x="832" y="133" type="curve" smooth="yes"/>
      <point x="832" y="329"/>
      <point x="1001" y="523"/>
      <point x="1084" y="523" type="curve" smooth="yes"/>
      <point x="1142" y="523"/>
      <point x="1182" y="478"/>
      <point x="1182" y="360" type="curve" smooth="yes"/>
    </contour>
    <contour>
      <point x="572" y="805" type="line" smooth="yes"/>
      <point x="572" y="691"/>
      <point x="438" y="485"/>
      <point x="330" y="485" type="curve" smooth="yes"/>
      <point x="263" y="485"/>
      <point x="220" y="535"/>
      <point x="220" y="592" type="curve" smooth="yes"/>
      <point x="220" y="711"/>
      <point x="281" y="826"/>
      <point x="351" y="897" type="curve" smooth="yes"/>
      <point x="395" y="941"/>
      <point x="442" y="968"/>
      <point x="480" y="968" type="curve" smooth="yes"/>
      <point x="505" y="968"/>
      <point x="514" y="954"/>
      <point x="544" y="931" type="curve"/>
      <point x="561" y="904"/>
      <point x="572" y="863"/>
      <point x="572" y="805" type="curve" smooth="yes"/>
    </contour>
  </outline>
</glyph>
<glyph name="ampersand" format="2">
  <unicode hex="0026"/>
  <advance width="1283"/>
  <outline>
    <contour>
      <point x="1221" y="189" type="line"/>
      <point x="1170" y="224" type="line"/>
      <point x="1140" y="157"/>
      <point x="1104" y="145"/>
      <point x="1070" y="145" type="curve" smooth="yes"/>
      <point x="1017" y="145"/>
      <point x="957" y="182"/>
      <point x="891" y="248" type="curve"/>
      <point x="955" y="324"/>
      <point x="1000" y="385"/>
      <point x="1030" y="435" type="curve" smooth="yes"/>
      <point x="1066" y="494"/>
      <point x="1088" y="559"/>
      <point x="1122" y="583" type="curve" smooth="yes"/>
      <point x="1141" y="596"/>
      <point x="1183" y="604"/>
      <point x="1213" y="607" type="curve"/>
      <point x="1213" y="657" type="line"/>
      <point x="859" y="657" type="line"/>
      <point x="859" y="607" type="line"/>
      <point x="923" y="598"/>
      <point x="939" y="557"/>
      <point x="939" y="515" type="curve" smooth="yes"/>
      <point x="939" y="460"/>
      <point x="875" y="372"/>
      <point x="821" y="315" type="curve"/>
      <point x="721" y="422"/>
      <point x="692" y="458"/>
      <point x="618" y="584" type="curve"/>
      <point x="737" y="628"/>
      <point x="870" y="725"/>
      <point x="870" y="868" type="curve" smooth="yes"/>
      <point x="870" y="965"/>
      <point x="780" y="1044"/>
      <point x="636" y="1044" type="curve" smooth="yes"/>
      <point x="462" y="1044"/>
      <point x="339" y="927"/>
      <point x="339" y="768" type="curve" smooth="yes"/>
      <point x="339" y="666"/>
      <point x="389" y="585"/>
      <point x="389" y="585" type="curve"/>
      <point x="246" y="526"/>
      <point x="62" y="412"/>
      <point x="62" y="239" type="curve" smooth="yes"/>
      <point x="62" y="88"/>
      <point x="183" y="-22"/>
      <point x="377" y="-22" type="curve" smooth="yes"/>
      <point x="522" y="-22"/>
      <point x="640" y="37"/>
      <point x="725" y="98" type="curve"/>
      <point x="798" y="30"/>
      <point x="862" y="-22"/>
      <point x="967" y="-22" type="curve" smooth="yes"/>
      <point x="1133" y="-22"/>
      <point x="1193" y="86"/>
      <point x="1221" y="189" type="curve"/>
    </contour>
    <contour>
      <point x="713" y="852" type="line" smooth="yes" name="hr01"/>
      <point x="713" y="762"/>
      <point x="624" y="675"/>
      <point x="580" y="656" type="curve"/>
      <point x="566" y="683"/>
      <point x="509" y="802"/>
      <point x="509" y="876" type="curve" smooth="yes"/>
      <point x="509" y="937"/>
      <point x="540" y="982"/>
      <point x="596" y="982" type="curve" smooth="yes"/>
      <point x="669" y="982"/>
      <point x="713" y="940"/>
      <point x="713" y="852" type="curve" smooth="yes"/>
    </contour>
    <contour>
      <point x="652" y="166" type="line"/>
      <point x="652" y="166"/>
      <point x="561" y="92"/>
      <point x="455" y="92" type="curve" smooth="yes"/>
      <point x="366" y="92"/>
      <point x="280" y="170"/>
      <point x="280" y="292" type="curve" smooth="yes"/>
      <point x="280" y="388"/>
      <point x="351" y="479"/>
      <point x="425" y="509" type="curve"/>
      <point x="493" y="396"/>
      <point x="533" y="314"/>
      <point x="652" y="166" type="curve"/>
    </contour>
  </outline>
</glyph>
<glyph name="quotesingle" format="2">
  <unicode hex="0027"/>
  <advance width="351"/>
  <outline>
    <contour>
      <point x="288" y="933" type="line" smooth="yes"/>
      <point x="288" y="995"/>
      <point x="238" y="1044"/>
      <point x="176" y="1044" type="curve" smooth="yes"/>
      <point x="113" y="1044"/>
      <point x="64" y="995"/>
      <point x="64" y="933" type="curve" smooth="yes"/>
      <point x="64" y="918"/>
      <point x="74" y="865"/>
      <point x="87" y="803" type="curve" smooth="yes"/>
      <point x="143" y="544" type="line"/>
      <point x="207" y="544" type="line"/>
      <point x="266" y="807" type="line" smooth="yes"/>
      <point x="280" y="867"/>
      <point x="288" y="918"/>
      <point x="288" y="933" type="curve" smooth="yes"/>
    </contour>
  </outline>
</glyph>
<glyph name="plus" format="2">
  <unicode hex="002B"/>
  <advance width="971"/>
  <outline>
    <contour>
      <point x="931" y="390" type="line"/>
      <point x="931" y="492" type="line"/>
      <point x="536" y="492" type="line"/>
      <point x="536" y="891" type="line"/>
      <point x="435" y="891" type="line"/>
      <point x="435" y="492" type="line"/>
      <point x="40" y="492" type="line"/>
      <point x="40" y="390" type="line"/>
      <point x="435" y="390" type="line"/>
      <point x="435" y="0" type="line"/>
      <point x="536" y="0" type="line"/>
      <point x="536" y="390" type="line"/>
    </contour>
  </outline>
</glyph>
<glyph name="period" format="2">
  <unicode hex="002E"/>
  <advance width="693"/>
  <outline>
    <contour>
      <point x="488" y="107" type="line" smooth="yes"/>
      <point x="488" y="176"/>
      <point x="431" y="231"/>
      <point x="362" y="231" type="curve" smooth="yes"/>
      <point x="294" y="231"/>
      <point x="237" y="176"/>
      <point x="237" y="107" type="curve" smooth="yes"/>
      <point x="237" y="38"/>
      <point x="294" y="-18"/>
      <point x="362" y="-18" type="curve" smooth="yes"/>
      <point x="431" y="-18"/>
      <point x="488" y="38"/>
      <point x="488" y="107" type="curve" smooth="yes"/>
    </contour>
  </outline>
</glyph>
<glyph name="slash" format="2">
  <unicode hex="002F"/>
  <advance width="444"/>
  <outline>
    <contour>
      <point x="441" y="1044" type="line"/>
      <point x="343" y="1044" type="line"/>
      <point x="6" y="-22" type="line"/>
      <point x="104" y="-22" type="line"/>
    </contour>
  </outline>
</glyph>
<glyph name="four" format="2">
  <unicode hex="0034"/>
  <advance width="787"/>
  <outline>
    <contour>
      <point x="756" y="230" type="line"/>
      <point x="756" y="386" type="line"/>
      <point x="644" y="386" type="line"/>
      <point x="644" y="1044" type="line"/>
      <point x="485" y="1044" type="line"/>
      <point x="26" y="386" type="line"/>
      <point x="26" y="230" type="line"/>
      <point x="437" y="230" type="line"/>
      <point x="437" y="0" type="line"/>
      <point x="644" y="0" type="line"/>
      <point x="644" y="230" type="line"/>
    </contour>
    <contour>
      <point x="437" y="386" type="line"/>
      <point x="139" y="386" type="line"/>
      <point x="437" y="808" type="line"/>
    </contour>
  </outline>
</glyph>
<glyph name="five" format="2">
  <unicode hex="0035"/>
  <advance width="787"/>
  <outline>
    <contour>
      <point x="743" y="1022" type="line"/>
      <point x="284" y="1022" type="line"/>
      <point x="69" y="536" type="line"/>
      <point x="323" y="536"/>
      <point x="538" y="452"/>
      <point x="538" y="245" type="curve" smooth="yes"/>
      <point x="538" y="182"/>
      <point x="471" y="85"/>
      <point x="401" y="85" type="curve" smooth="yes"/>
      <point x="257" y="85"/>
      <point x="227" y="206"/>
      <point x="131" y="206" type="curve" smooth="yes" name="hr01"/>
      <point x="70" y="206"/>
      <point x="42" y="159"/>
      <point x="42" y="119" type="curve" smooth="yes"/>
      <point x="42" y="10"/>
      <point x="171" y="-22"/>
      <point x="274" y="-22" type="curve" smooth="yes"/>
      <point x="491" y="-22"/>
      <point x="700" y="158"/>
      <point x="700" y="390" type="curve" smooth="yes"/>
      <point x="700" y="613"/>
      <point x="510" y="723"/>
      <point x="264" y="726" type="curve"/>
      <point x="304" y="828" type="line"/>
      <point x="666" y="828" type="line"/>
    </contour>
  </outline>
</glyph>
<glyph name="seven" format="2">
  <unicode hex="0037"/>
  <advance width="787"/>
  <outline>
    <contour>
      <point x="713" y="962" type="line"/>
      <point x="713" y="1022" type="line"/>
      <point x="173" y="1022" type="line"/>
      <point x="44" y="706" type="line"/>
      <point x="101" y="689" type="line"/>
      <point x="170" y="806"/>
      <point x="177" y="823"/>
      <point x="316" y="823" type="curve" smooth="yes"/>
      <point x="545" y="823" type="line"/>
      <point x="266" y="-22" type="line"/>
      <point x="384" y="-22" type="line"/>
    </contour>
  </outline>
</glyph>
<glyph name="nine" format="2">
  <unicode hex="0039"/>
  <advance width="787"/>
  <outline>
    <contour>
      <point x="738" y="628" type="line" smooth="yes"/>
      <point x="738" y="825"/>
      <point x="615" y="1044"/>
      <point x="407" y="1044" type="curve" smooth="yes"/>
      <point x="172" y="1044"/>
      <point x="71" y="865"/>
      <point x="71" y="670" type="curve" smooth="yes"/>
      <point x="71" y="514"/>
      <point x="166" y="370"/>
      <point x="337" y="370" type="curve" smooth="yes"/>
      <point x="396" y="370"/>
      <point x="447" y="384"/>
      <point x="492" y="414" type="curve"/>
      <point x="441" y="226"/>
      <point x="329" y="53"/>
      <point x="67" y="38" type="curve"/>
      <point x="67" y="-22" type="line"/>
      <point x="92" y="-22" type="line" smooth="yes"/>
      <point x="487" y="-22"/>
      <point x="738" y="289"/>
      <point x="738" y="628" type="curve" smooth="yes"/>
    </contour>
    <contour>
      <point x="508" y="631" type="line" smooth="yes"/>
      <point x="508" y="588"/>
      <point x="500" y="495"/>
      <point x="500" y="495" type="curve"/>
      <point x="500" y="495"/>
      <point x="455" y="472"/>
      <point x="420" y="472" type="curve" smooth="yes"/>
      <point x="332" y="472"/>
      <point x="285" y="599"/>
      <point x="285" y="764" type="curve" smooth="yes"/>
      <point x="285" y="923"/>
      <point x="329" y="974"/>
      <point x="371" y="974" type="curve" smooth="yes"/>
      <point x="448" y="974"/>
      <point x="508" y="863"/>
      <point x="508" y="631" type="curve" smooth="yes"/>
    </contour>
  </outline>
</glyph>
<glyph name="colon" format="2">
  <unicode hex="003A"/>
  <advance width="701"/>
  <outline>
    <contour>
      <point x="476" y="600" type="line" smooth="yes"/>
      <point x="476" y="669"/>
      <point x="419" y="725"/>
      <point x="350" y="725" type="curve" smooth="yes"/>
      <point x="282" y="725"/>
      <point x="225" y="669"/>
      <point x="225" y="600" type="curve" smooth="yes"/>
      <point x="225" y="532"/>
      <point x="282" y="475"/>
      <point x="350" y="475" type="curve" smooth="yes"/>
      <point x="419" y="475"/>
      <point x="476" y="532"/>
      <point x="476" y="600" type="curve" smooth="yes"/>
    </contour>
    <contour>
      <point x="476" y="107" type="line" smooth="yes"/>
      <point x="476" y="176"/>
      <point x="419" y="231"/>
      <point x="350" y="231" type="curve" smooth="yes"/>
      <point x="282" y="231"/>
      <point x="225" y="176"/>
      <point x="225" y="107" type="curve" smooth="yes"/>
      <point x="225" y="38"/>
      <point x="282" y="-18"/>
      <point x="350" y="-18" type="curve" smooth="yes"/>
      <point x="419" y="-18"/>
      <point x="476" y="38"/>
      <point x="476" y="107" type="curve" smooth="yes"/>
    </contour>
  </outline>
</glyph>
<glyph name="F" format="2">
  <unicode hex="0046"/>
  <advance width="939"/>
  <outline>
    <contour>
      <point x="861" y="747" type="line"/>
      <point x="850" y="1022" type="line"/>
      <point x="31" y="1022" type="line"/>
      <point x="31" y="962" type="line" name="hr01"/>
      <point x="154" y="962"/>
      <point x="176" y="925"/>
      <point x="176" y="820" type="curve" smooth="yes"/>
      <point x="176" y="202" type="line" smooth="yes"/>
      <point x="176" y="97"/>
      <point x="154" y="60"/>
      <point x="31" y="60" type="curve"/>
      <point x="31" y="0" type="line"/>
      <point x="559" y="0" type="line"/>
      <point x="559" y="60" type="line"/>
      <point x="428" y="60"/>
      <point x="413" y="103"/>
      <point x="413" y="202" type="curve" smooth="yes"/>
      <point x="413" y="477" type="line"/>
      <point x="507" y="477" type="line" smooth="yes"/>
      <point x="632" y="477"/>
      <point x="650" y="433"/>
      <point x="666" y="314" type="curve"/>
      <point x="727" y="314" type="line"/>
      <point x="727" y="741" type="line"/>
      <point x="667" y="741" type="line"/>
      <point x="650" y="622"/>
      <point x="630" y="564"/>
      <point x="507" y="564" type="curve" smooth="yes"/>
      <point x="413" y="564" type="line"/>
      <point x="413" y="933" type="line" name="hr02"/>
      <point x="603" y="933" type="line" smooth="yes"/>
      <point x="756" y="933"/>
      <point x="768" y="878"/>
      <point x="802" y="747" type="curve"/>
    </contour>
  </outline>
</glyph>
<glyph name="I" format="2">
  <unicode hex="0049"/>
  <advance width="588"/>
  <anchor x="298" y="1090" name="above"/>
  <outline>
    <contour>
      <point x="557" y="0" type="line"/>
      <point x="557" y="60" type="line"/>
      <point x="434" y="60"/>
      <point x="413" y="87"/>
      <point x="413" y="192" type="curve" smooth="yes"/>
      <point x="413" y="820" type="line" smooth="yes"/>
      <point x="413" y="925"/>
      <point x="434" y="962"/>
      <point x="557" y="962" type="curve"/>
      <point x="557" y="1022" type="line"/>
      <point x="31" y="1022" type="line"/>
      <point x="31" y="962" type="line"/>
      <point x="154" y="962"/>
      <point x="176" y="925"/>
      <point x="176" y="820" type="curve" smooth="yes"/>
      <point x="176" y="192" type="line" smooth="yes"/>
      <point x="176" y="87"/>
      <point x="154" y="60"/>
      <point x="31" y="60" type="curve"/>
      <point x="31" y="0" type="line"/>
    </contour>
  </outline>
</glyph>
<glyph name="J" format="2">
  <unicode hex="004A"/>
  <advance width="772"/>
  <outline>
    <contour>
      <point x="764" y="1022" type="line"/>
      <point x="227" y="1022" type="line"/>
      <point x="227" y="962" type="line"/>
      <point x="350" y="962"/>
      <point x="382" y="925"/>
      <point x="382" y="820" type="curve" smooth="yes"/>
      <point x="382" y="207" type="line" smooth="yes"/>
      <point x="382" y="117"/>
      <point x="356" y="57"/>
      <point x="312" y="57" type="curve" smooth="yes"/>
      <point x="212" y="57"/>
      <point x="284" y="256"/>
      <point x="128" y="256" type="curve" smooth="yes" name="hr01"/>
      <point x="78" y="256"/>
      <point x="37" y="215"/>
      <point x="37" y="149" type="curve" smooth="yes"/>
      <point x="37" y="53"/>
      <point x="125" y="-22"/>
      <point x="276" y="-22" type="curve" smooth="yes"/>
      <point x="429" y="-22"/>
      <point x="619" y="84"/>
      <point x="619" y="408" type="curve" smooth="yes"/>
      <point x="619" y="820" type="line" smooth="yes"/>
      <point x="619" y="925"/>
      <point x="640" y="962"/>
      <point x="764" y="962" type="curve"/>
    </contour>
  </outline>
</glyph>
<glyph name="M" format="2">
  <unicode hex="004D"/>
  <advance width="1451"/>
  <outline>
    <contour>
      <point x="1423" y="0" type="line"/>
      <point x="1423" y="60" type="line"/>
      <point x="1300" y="60"/>
      <point x="1277" y="77"/>
      <point x="1277" y="182" type="curve" smooth="yes"/>
      <point x="1277" y="830" type="line" smooth="yes"/>
      <point x="1277" y="935"/>
      <point x="1300" y="962"/>
      <point x="1423" y="962" type="curve"/>
      <point x="1423" y="1022" type="line"/>
      <point x="1023" y="1022" type="line"/>
      <point x="717" y="349" type="line"/>
      <point x="443" y="1022" type="line"/>
      <point x="31" y="1022" type="line"/>
      <point x="31" y="962" type="line"/>
      <point x="154" y="962"/>
      <point x="156" y="935"/>
      <point x="156" y="830" type="curve" smooth="yes"/>
      <point x="156" y="182" type="line" smooth="yes"/>
      <point x="156" y="70"/>
      <point x="106" y="60"/>
      <point x="11" y="60" type="curve"/>
      <point x="11" y="0" type="line"/>
      <point x="400" y="0" type="line"/>
      <point x="400" y="60" type="line"/>
      <point x="301" y="60"/>
      <point x="251" y="70"/>
      <point x="251" y="182" type="curve" smooth="yes"/>
      <point x="251" y="865" type="line"/>
      <point x="620" y="0" type="line"/>
      <point x="668" y="0" type="line"/>
      <point x="1040" y="839" type="line"/>
      <point x="1040" y="182" type="line" smooth="yes"/>
      <point x="1040" y="77"/>
      <point x="999" y="60"/>
      <point x="876" y="60" type="curve"/>
      <point x="876" y="0" type="line"/>
    </contour>
  </outline>
</glyph>
<glyph name="N" format="2">
  <unicode hex="004E"/>
  <advance width="1080"/>
  <anchor x="551" y="1090" name="above"/>
  <outline>
    <contour>
      <point x="1052" y="962" type="curve"/>
      <point x="1052" y="1022" type="line"/>
      <point x="714" y="1022" type="line"/>
      <point x="714" y="962" type="line"/>
      <point x="814" y="962"/>
      <point x="841" y="944"/>
      <point x="841" y="852" type="curve" smooth="yes"/>
      <point x="841" y="400" type="line"/>
      <point x="361" y="1022" type="line"/>
      <point x="25" y="1022" type="line"/>
      <point x="25" y="963" type="line"/>
      <point x="91" y="963"/>
      <point x="95" y="956"/>
      <point x="156" y="877" type="curve"/>
      <point x="156" y="170" type="line" smooth="yes"/>
      <point x="156" y="78"/>
      <point x="120" y="60"/>
      <point x="25" y="60" type="curve"/>
      <point x="25" y="0" type="line"/>
      <point x="388" y="0" type="line"/>
      <point x="388" y="60" type="line"/>
      <point x="288" y="60"/>
      <point x="251" y="78"/>
      <point x="251" y="170" type="curve" smooth="yes"/>
      <point x="251" y="756" type="line"/>
      <point x="848" y="-16" type="line" name="hr01"/>
      <point x="936" y="-16" type="line"/>
      <point x="936" y="852" type="line" smooth="yes"/>
      <point x="936" y="944"/>
      <point x="957" y="962"/>
    </contour>
  </outline>
</glyph>
<glyph name="O" format="2">
  <unicode hex="004F"/>
  <advance width="1196"/>
  <anchor x="593" y="1090" name="above"/>
  <outline>
    <contour>
      <point x="1141" y="511" type="curve" smooth="yes"/>
      <point x="1141" y="801"/>
      <point x="934" y="1044"/>
      <point x="597" y="1044" type="curve" smooth="yes"/>
      <point x="284" y="1044"/>
      <point x="55" y="808"/>
      <point x="55" y="511" type="curve" smooth="yes"/>
      <point x="55" y="222"/>
      <point x="262" y="-24"/>
      <point x="599" y="-24" type="curve" smooth="yes"/>
      <point x="936" y="-24"/>
      <point x="1141" y="225"/>
    </contour>
    <contour>
      <point x="869" y="506" type="curve" smooth="yes"/>
      <point x="869" y="314"/>
      <point x="811" y="54"/>
      <point x="597" y="54" type="curve" smooth="yes"/>
      <point x="383" y="54"/>
      <point x="327" y="339"/>
      <point x="327" y="517" type="curve" smooth="yes"/>
      <point x="327" y="711"/>
      <point x="383" y="968"/>
      <point x="597" y="968" type="curve" smooth="yes"/>
      <point x="811" y="968"/>
      <point x="869" y="710"/>
    </contour>
  </outline>
</glyph>
<glyph name="P" format="2">
  <unicode hex="0050"/>
  <advance width="939"/>
  <outline>
    <contour>
      <point x="893" y="744" type="line" smooth="yes"/>
      <point x="893" y="912"/>
      <point x="756" y="1022"/>
      <point x="524" y="1022" type="curve" smooth="yes"/>
      <point x="36" y="1022" type="line"/>
      <point x="36" y="962" type="line" name="hr01"/>
      <point x="159" y="962"/>
      <point x="176" y="947"/>
      <point x="176" y="852" type="curve" smooth="yes"/>
      <point x="176" y="190" type="line" smooth="yes"/>
      <point x="176" y="85"/>
      <point x="159" y="60"/>
      <point x="36" y="60" type="curve"/>
      <point x="36" y="0" type="line"/>
      <point x="554" y="0" type="line"/>
      <point x="554" y="60" type="line"/>
      <point x="435" y="60"/>
      <point x="413" y="85"/>
      <point x="413" y="183" type="curve" smooth="yes"/>
      <point x="413" y="452" type="line"/>
      <point x="413" y="452"/>
      <point x="447" y="448"/>
      <point x="482" y="448" type="curve" smooth="yes"/>
      <point x="777" y="448"/>
      <point x="893" y="587"/>
      <point x="893" y="744" type="curve" smooth="yes"/>
    </contour>
    <contour>
      <point x="642" y="744" type="line" smooth="yes"/>
      <point x="642" y="628"/>
      <point x="600" y="535"/>
      <point x="447" y="535" type="curve" smooth="yes"/>
      <point x="430" y="535"/>
      <point x="413" y="539"/>
      <point x="413" y="539" type="curve"/>
      <point x="413" y="929" type="line"/>
      <point x="413" y="929"/>
      <point x="432" y="933"/>
      <point x="447" y="933" type="curve" smooth="yes" name="hr02"/>
      <point x="601" y="933"/>
      <point x="642" y="857"/>
      <point x="642" y="744" type="curve" smooth="yes"/>
    </contour>
  </outline>
</glyph>
<glyph name="T" format="2">
  <unicode hex="0054"/>
  <advance width="1029"/>
  <outline>
    <contour>
      <point x="984" y="716" type="line"/>
      <point x="974" y="1022" type="line"/>
      <point x="45" y="1022" type="line"/>
      <point x="35" y="716" type="line"/>
      <point x="96" y="716" type="line"/>
      <point x="109" y="877"/>
      <point x="179" y="933"/>
      <point x="320" y="933" type="curve" smooth="yes"/>
      <point x="395" y="933" type="line"/>
      <point x="395" y="192" type="line" smooth="yes"/>
      <point x="395" y="87"/>
      <point x="371" y="60"/>
      <point x="248" y="60" type="curve"/>
      <point x="248" y="0" type="line"/>
      <point x="780" y="0" type="line"/>
      <point x="780" y="60" type="line"/>
      <point x="656" y="60"/>
      <point x="632" y="87"/>
      <point x="632" y="192" type="curve" smooth="yes"/>
      <point x="632" y="933" type="line"/>
      <point x="697" y="933" type="line" smooth="yes"/>
      <point x="840" y="933"/>
      <point x="909" y="865"/>
      <point x="924" y="716" type="curve"/>
    </contour>
  </outline>
</glyph>
<glyph name="Y" format="2">
  <unicode hex="0059"/>
  <advance width="1116"/>
  <anchor x="570" y="1090" name="above"/>
  <outline>
    <contour>
      <point x="1097" y="962" type="curve"/>
      <point x="1097" y="1022" type="line"/>
      <point x="743" y="1022" type="line"/>
      <point x="743" y="962" type="line"/>
      <point x="814" y="962"/>
      <point x="841" y="945"/>
      <point x="841" y="919" type="curve" smooth="yes"/>
      <point x="841" y="895"/>
      <point x="831" y="863"/>
      <point x="810" y="828" type="curve" smooth="yes"/>
      <point x="629" y="520" type="line"/>
      <point x="451" y="795"/>
      <point x="392" y="889"/>
      <point x="392" y="921" type="curve" smooth="yes"/>
      <point x="392" y="951"/>
      <point x="432" y="962"/>
      <point x="503" y="962" type="curve"/>
      <point x="503" y="1022" type="line"/>
      <point x="13" y="1022" type="line"/>
      <point x="13" y="962" type="line"/>
      <point x="79" y="962"/>
      <point x="112" y="923"/>
      <point x="181" y="807" type="curve" smooth="yes"/>
      <point x="438" y="373" type="line"/>
      <point x="438" y="192" type="line" smooth="yes"/>
      <point x="438" y="87"/>
      <point x="392" y="60"/>
      <point x="269" y="60" type="curve"/>
      <point x="269" y="0" type="line"/>
      <point x="842" y="0" type="line"/>
      <point x="842" y="60" type="line"/>
      <point x="719" y="60"/>
      <point x="676" y="87"/>
      <point x="676" y="192" type="curve" smooth="yes"/>
      <point x="676" y="413" type="line"/>
      <point x="896" y="786" type="line" smooth="yes"/>
      <point x="991" y="948"/>
      <point x="1029" y="962"/>
    </contour>
  </outline>
</glyph>
<glyph name="Z" format="2">
  <unicode hex="005A"/>
  <advance width="1031"/>
  <anchor x="511" y="1090" name="above"/>
  <outline>
    <contour>
      <point x="972" y="371" type="line"/>
      <point x="913" y="381" type="line"/>
      <point x="863" y="141"/>
      <point x="734" y="89"/>
      <point x="521" y="89" type="curve" smooth="yes"/>
      <point x="338" y="89" type="line"/>
      <point x="961" y="1022" type="line"/>
      <point x="139" y="1022" type="line"/>
      <point x="115" y="693" type="line"/>
      <point x="175" y="693" type="line"/>
      <point x="205" y="860"/>
      <point x="285" y="933"/>
      <point x="420" y="933" type="curve" smooth="yes"/>
      <point x="621" y="933" type="line"/>
      <point x="35" y="60" type="line"/>
      <point x="35" y="0" type="line"/>
      <point x="923" y="0" type="line"/>
    </contour>
  </outline>
</glyph>
<glyph name="bracketleft" format="2">
  <unicode hex="005B"/>
  <advance width="529"/>
  <outline>
    <contour>
      <point x="443" y="-162" type="line"/>
      <point x="293" y="-131" type="line"/>
      <point x="293" y="979" type="line"/>
      <point x="443" y="1008" type="line"/>
      <point x="429" y="1087" type="line"/>
      <point x="123" y="1047" type="line"/>
      <point x="123" y="-201" type="line"/>
      <point x="429" y="-242" type="line"/>
    </contour>
  </outline>
</glyph>
<glyph name="asciicircum" format="2">
  <unicode hex="005E"/>
  <advance width="1485"/>
  <outline>
    <contour>
      <point x="1141" y="15" type="line"/>
      <point x="788" y="936" type="line"/>
      <point x="697" y="936" type="line"/>
      <point x="345" y="15" type="line"/>
      <point x="467" y="15" type="line"/>
      <point x="743" y="763" type="line"/>
      <point x="1019" y="15" type="line"/>
    </contour>
  </outline>
</glyph>
<glyph name="grave" format="2">
  <unicode hex="0060"/>
  <advance width="529"/>
  <anchor x="269" y="760" name="_above"/>
  <outline>
    <contour>
      <point x="400" y="801" type="line"/>
      <point x="199" y="1038" type="line" smooth="yes"/>
      <point x="165" y="1078"/>
      <point x="126" y="1097"/>
      <point x="86" y="1097" type="curve" smooth="yes"/>
      <point x="41" y="1097"/>
      <point x="13" y="1062"/>
      <point x="13" y="1018" type="curve" smooth="yes"/>
      <point x="13" y="983"/>
      <point x="37" y="957"/>
      <point x="88" y="927" type="curve" smooth="yes"/>
      <point x="302" y="801" type="line"/>
    </contour>
  </outline>
</glyph>
<glyph name="a" format="2">
  <unicode hex="0061"/>
  <advance width="766"/>
  <anchor x="354" y="768" name="above"/>
  <outline>
    <contour>
      <point x="766" y="173" type="line"/>
      <point x="752" y="158"/>
      <point x="706" y="122"/>
      <point x="684" y="122" type="curve" smooth="yes"/>
      <point x="662" y="122"/>
      <point x="654" y="140"/>
      <point x="651" y="159" type="curve" smooth="yes"/>
      <point x="647" y="185"/>
      <point x="647" y="231"/>
      <point x="647" y="270" type="curve" smooth="yes"/>
      <point x="647" y="475" type="line" smooth="yes"/>
      <point x="647" y="647"/>
      <point x="568" y="711"/>
      <point x="354" y="711" type="curve" smooth="yes"/>
      <point x="236" y="711"/>
      <point x="72" y="645"/>
      <point x="72" y="527" type="curve" smooth="yes"/>
      <point x="72" y="469"/>
      <point x="110" y="433"/>
      <point x="165" y="433" type="curve" smooth="yes"/>
      <point x="242" y="433"/>
      <point x="265" y="492"/>
      <point x="265" y="537" type="curve" smooth="yes"/>
      <point x="265" y="623"/>
      <point x="286" y="646"/>
      <point x="338" y="646" type="curve" smooth="yes" name="hr01"/>
      <point x="402" y="646"/>
      <point x="430" y="578"/>
      <point x="430" y="485" type="curve" smooth="yes"/>
      <point x="430" y="457" type="line"/>
      <point x="294" y="408"/>
      <point x="55" y="316"/>
      <point x="55" y="164" type="curve" smooth="yes"/>
      <point x="55" y="53"/>
      <point x="113" y="-14"/>
      <point x="215" y="-14" type="curve" smooth="yes"/>
      <point x="301" y="-14"/>
      <point x="364" y="33"/>
      <point x="430" y="90" type="curve"/>
      <point x="430" y="35"/>
      <point x="480" y="-14"/>
      <point x="545" y="-14" type="curve" smooth="yes"/>
      <point x="645" y="-14"/>
      <point x="739" y="69"/>
      <point x="766" y="100" type="curve"/>
    </contour>
    <contour>
      <point x="430" y="180" type="line"/>
      <point x="399" y="147"/>
      <point x="362" y="119"/>
      <point x="329" y="119" type="curve" smooth="yes"/>
      <point x="289" y="119"/>
      <point x="267" y="156"/>
      <point x="267" y="199" type="curve" smooth="yes"/>
      <point x="267" y="267"/>
      <point x="302" y="328"/>
      <point x="430" y="385" type="curve"/>
    </contour>
  </outline>
</glyph>
<glyph name="d" format="2">
  <unicode hex="0064"/>
  <advance width="851"/>
  <outline>
    <contour>
      <point x="867" y="61" type="line"/>
      <point x="849" y="117" type="line"/>
      <point x="831" y="111"/>
      <point x="800" y="106"/>
      <point x="784" y="106" type="curve" smooth="yes"/>
      <point x="752" y="106"/>
      <point x="742" y="129"/>
      <point x="742" y="208" type="curve" smooth="yes"/>
      <point x="742" y="1071" type="line"/>
      <point x="682" y="1071" type="line"/>
      <point x="402" y="987" type="line"/>
      <point x="420" y="931" type="line"/>
      <point x="437" y="937"/>
      <point x="467" y="942"/>
      <point x="485" y="942" type="curve" smooth="yes"/>
      <point x="517" y="942"/>
      <point x="527" y="920"/>
      <point x="527" y="841" type="curve" smooth="yes"/>
      <point x="527" y="651" type="line"/>
      <point x="481" y="693"/>
      <point x="427" y="711"/>
      <point x="370" y="711" type="curve" smooth="yes"/>
      <point x="211" y="711"/>
      <point x="41" y="560"/>
      <point x="41" y="325" type="curve" smooth="yes"/>
      <point x="41" y="92"/>
      <point x="194" y="-23"/>
      <point x="326" y="-23" type="curve" smooth="yes"/>
      <point x="406" y="-23"/>
      <point x="465" y="6"/>
      <point x="527" y="68" type="curve"/>
      <point x="527" y="-23" type="line"/>
      <point x="587" y="-23" type="line"/>
    </contour>
    <contour>
      <point x="527" y="166" type="line"/>
      <point x="492" y="127"/>
      <point x="455" y="91"/>
      <point x="411" y="91" type="curve" smooth="yes"/>
      <point x="334" y="91"/>
      <point x="260" y="193"/>
      <point x="260" y="393" type="curve" smooth="yes"/>
      <point x="260" y="579"/>
      <point x="323" y="642"/>
      <point x="390" y="642" type="curve" smooth="yes"/>
      <point x="458" y="642"/>
      <point x="527" y="568"/>
      <point x="527" y="477" type="curve" smooth="yes"/>
    </contour>
  </outline>
</glyph>
<glyph name="e" format="2">
  <unicode hex="0065"/>
  <advance width="708"/>
  <anchor x="388" y="760" name="above"/>
  <outline>
    <contour>
      <point x="612" y="274" type="line"/>
      <point x="571" y="173"/>
      <point x="517" y="138"/>
      <point x="451" y="138" type="curve" smooth="yes"/>
      <point x="307" y="138"/>
      <point x="224" y="279"/>
      <point x="224" y="408" type="curve"/>
      <point x="656" y="408" type="line"/>
      <point x="657" y="628"/>
      <point x="531" y="712"/>
      <point x="387" y="712" type="curve" smooth="yes"/>
      <point x="223" y="712"/>
      <point x="51" y="571"/>
      <point x="51" y="346" type="curve" smooth="yes"/>
      <point x="51" y="126"/>
      <point x="164" y="-23"/>
      <point x="362" y="-23" type="curve" smooth="yes"/>
      <point x="537" y="-23"/>
      <point x="627" y="116"/>
      <point x="656" y="255" type="curve"/>
    </contour>
    <contour>
      <point x="223" y="473" type="line"/>
      <point x="222" y="572"/>
      <point x="277" y="637"/>
      <point x="331" y="637" type="curve" smooth="yes"/>
      <point x="425" y="637"/>
      <point x="454" y="535"/>
      <point x="454" y="473" type="curve"/>
    </contour>
  </outline>
</glyph>
<glyph name="g" format="2">
  <unicode hex="0067"/>
  <advance width="817"/>
  <outline>
    <contour>
      <point x="798" y="619" type="curve" smooth="yes"/>
      <point x="798" y="652"/>
      <point x="790" y="662"/>
      <point x="764" y="662" type="curve" smooth="yes"/>
      <point x="737" y="662"/>
      <point x="680" y="657"/>
      <point x="654" y="657" type="curve" smooth="yes"/>
      <point x="558" y="657"/>
      <point x="510" y="711"/>
      <point x="392" y="711" type="curve" smooth="yes"/>
      <point x="226" y="711"/>
      <point x="97" y="616"/>
      <point x="97" y="461" type="curve" smooth="yes"/>
      <point x="97" y="363"/>
      <point x="167" y="282"/>
      <point x="228" y="255" type="curve"/>
      <point x="159" y="197"/>
      <point x="93" y="123"/>
      <point x="93" y="70" type="curve" smooth="yes"/>
      <point x="93" y="32"/>
      <point x="126" y="-9"/>
      <point x="179" y="-24" type="curve"/>
      <point x="75" y="-83"/>
      <point x="35" y="-135"/>
      <point x="35" y="-185" type="curve" smooth="yes" name="hr01"/>
      <point x="35" y="-274"/>
      <point x="185" y="-334"/>
      <point x="373" y="-334" type="curve" smooth="yes"/>
      <point x="527" y="-334"/>
      <point x="780" y="-248"/>
      <point x="780" y="-63" type="curve" smooth="yes"/>
      <point x="780" y="237"/>
      <point x="248" y="73"/>
      <point x="248" y="164" type="curve" smooth="yes" name="hr02"/>
      <point x="248" y="188"/>
      <point x="276" y="212"/>
      <point x="302" y="233" type="curve"/>
      <point x="336" y="226"/>
      <point x="374" y="221"/>
      <point x="410" y="221" type="curve" smooth="yes"/>
      <point x="602" y="221"/>
      <point x="698" y="349"/>
      <point x="698" y="464" type="curve" smooth="yes"/>
      <point x="698" y="503"/>
      <point x="686" y="546"/>
      <point x="661" y="574" type="curve"/>
      <point x="680" y="573"/>
      <point x="729" y="570"/>
      <point x="755" y="570" type="curve" smooth="yes"/>
      <point x="788" y="570"/>
      <point x="798" y="587"/>
    </contour>
    <contour>
      <point x="509" y="436" type="curve" smooth="yes"/>
      <point x="509" y="368"/>
      <point x="490" y="276"/>
      <point x="410" y="276" type="curve" smooth="yes"/>
      <point x="309" y="276"/>
      <point x="288" y="399"/>
      <point x="288" y="494" type="curve" smooth="yes" name="hr03"/>
      <point x="288" y="568"/>
      <point x="309" y="657"/>
      <point x="390" y="657" type="curve" smooth="yes"/>
      <point x="488" y="657"/>
      <point x="509" y="510"/>
    </contour>
    <contour>
      <point x="685" y="-112" type="curve" smooth="yes" name="hr04"/>
      <point x="685" y="-181"/>
      <point x="551" y="-202"/>
      <point x="461" y="-202" type="curve" smooth="yes"/>
      <point x="375" y="-202"/>
      <point x="219" y="-185"/>
      <point x="219" y="-113" type="curve" smooth="yes"/>
      <point x="219" y="-94"/>
      <point x="227" y="-67"/>
      <point x="255" y="-34" type="curve"/>
      <point x="349" y="-40"/>
      <point x="543" y="-38"/>
      <point x="621" y="-57" type="curve" smooth="yes"/>
      <point x="656" y="-65"/>
      <point x="685" y="-81"/>
    </contour>
  </outline>
</glyph>
<glyph name="k" format="2">
  <unicode hex="006B"/>
  <advance width="878"/>
  <outline>
    <contour>
      <point x="883" y="0" type="line"/>
      <point x="883" y="60" type="line"/>
      <point x="836" y="60"/>
      <point x="803" y="60"/>
      <point x="745" y="148" type="curve" smooth="yes"/>
      <point x="534" y="434" type="line"/>
      <point x="652" y="548" type="line" smooth="yes"/>
      <point x="713" y="607"/>
      <point x="748" y="626"/>
      <point x="834" y="630" type="curve"/>
      <point x="834" y="690" type="line"/>
      <point x="485" y="690" type="line"/>
      <point x="485" y="630" type="line"/>
      <point x="508" y="628"/>
      <point x="539" y="617"/>
      <point x="539" y="591" type="curve" smooth="yes"/>
      <point x="539" y="573"/>
      <point x="523" y="555"/>
      <point x="507" y="541" type="curve" smooth="yes"/>
      <point x="343" y="397" type="line"/>
      <point x="343" y="1071" type="line"/>
      <point x="283" y="1071" type="line"/>
      <point x="3" y="982" type="line"/>
      <point x="29" y="931" type="line"/>
      <point x="45" y="937"/>
      <point x="66" y="942"/>
      <point x="83" y="942" type="curve" smooth="yes"/>
      <point x="113" y="942"/>
      <point x="128" y="919"/>
      <point x="128" y="840" type="curve" smooth="yes" name="hr01"/>
      <point x="128" y="167" type="line" smooth="yes"/>
      <point x="128" y="83"/>
      <point x="114" y="60"/>
      <point x="42" y="60" type="curve"/>
      <point x="42" y="0" type="line"/>
      <point x="425" y="0" type="line"/>
      <point x="425" y="60" type="line"/>
      <point x="361" y="60"/>
      <point x="343" y="70"/>
      <point x="343" y="167" type="curve" smooth="yes"/>
      <point x="343" y="351" type="line"/>
      <point x="504" y="137" type="line" smooth="yes"/>
      <point x="516" y="120"/>
      <point x="529" y="97"/>
      <point x="529" y="86" type="curve" smooth="yes"/>
      <point x="529" y="63"/>
      <point x="504" y="60"/>
      <point x="475" y="60" type="curve"/>
      <point x="475" y="0" type="line"/>
    </contour>
  </outline>
</glyph>
<glyph name="m" format="2">
  <unicode hex="006D"/>
  <advance width="1322"/>
  <outline>
    <contour>
      <point x="1312" y="0" type="line"/>
      <point x="1312" y="60" type="line"/>
      <point x="1252" y="60"/>
      <point x="1235" y="78"/>
      <point x="1235" y="167" type="curve" smooth="yes"/>
      <point x="1235" y="451" type="line" smooth="yes"/>
      <point x="1235" y="576"/>
      <point x="1197" y="711"/>
      <point x="1048" y="711" type="curve" smooth="yes"/>
      <point x="933" y="711"/>
      <point x="841" y="649"/>
      <point x="776" y="575" type="curve"/>
      <point x="751" y="654"/>
      <point x="704" y="711"/>
      <point x="606" y="711" type="curve" smooth="yes"/>
      <point x="491" y="711"/>
      <point x="437" y="645"/>
      <point x="350" y="585" type="curve"/>
      <point x="350" y="711" type="line"/>
      <point x="290" y="711" type="line"/>
      <point x="10" y="627" type="line"/>
      <point x="28" y="571" type="line"/>
      <point x="44" y="577"/>
      <point x="76" y="582"/>
      <point x="93" y="582" type="curve" smooth="yes"/>
      <point x="125" y="582"/>
      <point x="135" y="560"/>
      <point x="135" y="480" type="curve" smooth="yes"/>
      <point x="135" y="167" type="line" smooth="yes"/>
      <point x="135" y="79"/>
      <point x="120" y="60"/>
      <point x="50" y="60" type="curve"/>
      <point x="50" y="0" type="line"/>
      <point x="432" y="0" type="line"/>
      <point x="432" y="60" type="line"/>
      <point x="368" y="60"/>
      <point x="350" y="79"/>
      <point x="350" y="167" type="curve" smooth="yes"/>
      <point x="350" y="500" type="line"/>
      <point x="395" y="549"/>
      <point x="449" y="578"/>
      <point x="491" y="578" type="curve" smooth="yes"/>
      <point x="554" y="578"/>
      <point x="577" y="538"/>
      <point x="577" y="439" type="curve" smooth="yes"/>
      <point x="577" y="167" type="line" smooth="yes"/>
      <point x="577" y="67"/>
      <point x="558" y="60"/>
      <point x="494" y="60" type="curve"/>
      <point x="494" y="0" type="line"/>
      <point x="870" y="0" type="line"/>
      <point x="870" y="60" type="line"/>
      <point x="809" y="60"/>
      <point x="792" y="77"/>
      <point x="792" y="166" type="curve" smooth="yes"/>
      <point x="792" y="500" type="line"/>
      <point x="837" y="549"/>
      <point x="891" y="578"/>
      <point x="933" y="578" type="curve" smooth="yes"/>
      <point x="996" y="578"/>
      <point x="1019" y="538"/>
      <point x="1019" y="438" type="curve" smooth="yes"/>
      <point x="1019" y="167" type="line" smooth="yes"/>
      <point x="1019" y="67"/>
      <point x="1000" y="60"/>
      <point x="936" y="60" type="curve"/>
      <point x="936" y="0" type="line"/>
    </contour>
  </outline>
</glyph>
<glyph name="n" format="2">
  <unicode hex="006E"/>
  <advance width="870"/>
  <anchor x="458" y="760" name="above"/>
  <outline>
    <contour>
      <point x="865" y="0" type="line"/>
      <point x="865" y="60" type="line"/>
      <point x="805" y="60"/>
      <point x="787" y="78"/>
      <point x="787" y="166" type="curve" smooth="yes"/>
      <point x="787" y="451" type="line" smooth="yes"/>
      <point x="787" y="575"/>
      <point x="750" y="711"/>
      <point x="601" y="711" type="curve" smooth="yes"/>
      <point x="486" y="711"/>
      <point x="432" y="645"/>
      <point x="345" y="585" type="curve"/>
      <point x="345" y="711" type="line"/>
      <point x="285" y="711" type="line"/>
      <point x="5" y="627" type="line"/>
      <point x="23" y="571" type="line"/>
      <point x="40" y="577"/>
      <point x="71" y="582"/>
      <point x="88" y="582" type="curve" smooth="yes"/>
      <point x="120" y="582"/>
      <point x="130" y="560"/>
      <point x="130" y="480" type="curve" smooth="yes"/>
      <point x="130" y="166" type="line" smooth="yes"/>
      <point x="130" y="78"/>
      <point x="116" y="60"/>
      <point x="45" y="60" type="curve"/>
      <point x="45" y="0" type="line"/>
      <point x="427" y="0" type="line"/>
      <point x="427" y="60" type="line"/>
      <point x="363" y="60"/>
      <point x="345" y="79"/>
      <point x="345" y="166" type="curve" smooth="yes"/>
      <point x="345" y="500" type="line"/>
      <point x="390" y="549"/>
      <point x="444" y="578"/>
      <point x="486" y="578" type="curve" smooth="yes"/>
      <point x="549" y="578"/>
      <point x="572" y="538"/>
      <point x="572" y="438" type="curve" smooth="yes"/>
      <point x="572" y="166" type="line" smooth="yes"/>
      <point x="572" y="67"/>
      <point x="553" y="60"/>
      <point x="489" y="60" type="curve"/>
      <point x="489" y="0" type="line"/>
    </contour>
  </outline>
</glyph>
<glyph name="x" format="2">
  <unicode hex="0078"/>
  <advance width="802"/>
  <outline>
    <contour>
      <point x="372" y="597" type="line" smooth="yes"/>
      <point x="372" y="616"/>
      <point x="381" y="630"/>
      <point x="408" y="630" type="curve" smooth="yes"/>
      <point x="416" y="630" type="line"/>
      <point x="416" y="690" type="line"/>
      <point x="10" y="690" type="line"/>
      <point x="10" y="630" type="line"/>
      <point x="58" y="630"/>
      <point x="88" y="622"/>
      <point x="139" y="553" type="curve" smooth="yes"/>
      <point x="310" y="322" type="line"/>
      <point x="187" y="158" type="line" smooth="yes"/>
      <point x="126" y="87"/>
      <point x="83" y="60"/>
      <point x="27" y="60" type="curve"/>
      <point x="27" y="0" type="line"/>
      <point x="312" y="0" type="line"/>
      <point x="312" y="60" type="line"/>
      <point x="283" y="60"/>
      <point x="261" y="75"/>
      <point x="261" y="93" type="curve" smooth="yes"/>
      <point x="261" y="118"/>
      <point x="300" y="178"/>
      <point x="359" y="249" type="curve"/>
      <point x="380" y="217"/>
      <point x="454" y="108"/>
      <point x="454" y="96" type="curve" smooth="yes"/>
      <point x="454" y="69"/>
      <point x="428" y="60"/>
      <point x="388" y="60" type="curve"/>
      <point x="388" y="0" type="line"/>
      <point x="794" y="0" type="line"/>
      <point x="794" y="60" type="line"/>
      <point x="741" y="60"/>
      <point x="728" y="79"/>
      <point x="678" y="152" type="curve" smooth="yes"/>
      <point x="495" y="419" type="line"/>
      <point x="574" y="515"/>
      <point x="636" y="627"/>
      <point x="740" y="630" type="curve"/>
      <point x="740" y="690" type="line"/>
      <point x="486" y="690" type="line"/>
      <point x="486" y="630" type="line"/>
      <point x="506" y="630"/>
      <point x="528" y="619"/>
      <point x="528" y="603" type="curve" smooth="yes"/>
      <point x="528" y="588"/>
      <point x="460" y="504"/>
      <point x="447" y="488" type="curve"/>
      <point x="447" y="488"/>
      <point x="372" y="586"/>
      <point x="372" y="597" type="curve" smooth="yes"/>
    </contour>
  </outline>
</glyph>
<glyph name="y" format="2">
  <unicode hex="0079"/>
  <advance width="801"/>
  <anchor x="400" y="760" name="above"/>
  <outline>
    <contour>
      <point x="799" y="690" type="line"/>
      <point x="523" y="690" type="line"/>
      <point x="523" y="630" type="line"/>
      <point x="580" y="630"/>
      <point x="605" y="611"/>
      <point x="605" y="578" type="curve" smooth="yes"/>
      <point x="605" y="560"/>
      <point x="601" y="549"/>
      <point x="593" y="531" type="curve" smooth="yes"/>
      <point x="480" y="260" type="line"/>
      <point x="370" y="512" type="line" smooth="yes"/>
      <point x="359" y="537"/>
      <point x="354" y="559"/>
      <point x="354" y="577" type="curve" smooth="yes"/>
      <point x="354" y="612"/>
      <point x="375" y="630"/>
      <point x="432" y="630" type="curve"/>
      <point x="432" y="690" type="line"/>
      <point x="14" y="690" type="line"/>
      <point x="14" y="630" type="line"/>
      <point x="82" y="619"/>
      <point x="106" y="610"/>
      <point x="141" y="531" type="curve" smooth="yes"/>
      <point x="371" y="5" type="line"/>
      <point x="344" y="-64"/>
      <point x="295" y="-193"/>
      <point x="245" y="-193" type="curve" smooth="yes"/>
      <point x="188" y="-193"/>
      <point x="178" y="-116"/>
      <point x="93" y="-116" type="curve" smooth="yes" name="hr01"/>
      <point x="48" y="-116"/>
      <point x="-2" y="-143"/>
      <point x="-2" y="-217" type="curve" smooth="yes"/>
      <point x="-2" y="-296"/>
      <point x="79" y="-334"/>
      <point x="147" y="-334" type="curve" smooth="yes"/>
      <point x="243" y="-334"/>
      <point x="346" y="-267"/>
      <point x="415" y="-102" type="curve" smooth="yes"/>
      <point x="684" y="539" type="line" smooth="yes"/>
      <point x="708" y="596"/>
      <point x="735" y="627"/>
      <point x="799" y="630" type="curve"/>
    </contour>
  </outline>
</glyph>
<glyph name="bar" format="2">
  <unicode hex="007C"/>
  <advance width="340"/>
  <outline>
    <contour>
      <point x="220" y="-331" type="line"/>
      <point x="220" y="1044" type="line"/>
      <point x="120" y="1044" type="line"/>
      <point x="120" y="-331" type="line"/>
    </contour>
  </outline>
</glyph>
<glyph name="exclamdown" format="2">
  <unicode hex="00A1"/>
  <advance width="514"/>
  <outline>
    <contour>
      <point x="364" y="611" type="line" smooth="yes"/>
      <point x="364" y="670"/>
      <point x="317" y="719"/>
      <point x="257" y="719" type="curve" smooth="yes"/>
      <point x="197" y="719"/>
      <point x="148" y="670"/>
      <point x="148" y="611" type="curve" smooth="yes"/>
      <point x="148" y="552"/>
      <point x="197" y="504"/>
      <point x="257" y="504" type="curve" smooth="yes"/>
      <point x="317" y="504"/>
      <point x="364" y="552"/>
      <point x="364" y="611" type="curve" smooth="yes"/>
    </contour>
    <contour>
      <point x="373" y="-191" type="line" smooth="yes"/>
      <point x="373" y="-164"/>
      <point x="369" y="-139"/>
      <point x="363" y="-103" type="curve"/>
      <point x="287" y="442" type="line"/>
      <point x="227" y="442" type="line"/>
      <point x="150" y="-103" type="line"/>
      <point x="147" y="-124"/>
      <point x="141" y="-172"/>
      <point x="141" y="-184" type="curve" smooth="yes"/>
      <point x="141" y="-267"/>
      <point x="188" y="-333"/>
      <point x="255" y="-333" type="curve" smooth="yes"/>
      <point x="335" y="-333"/>
      <point x="373" y="-259"/>
      <point x="373" y="-191" type="curve" smooth="yes"/>
    </contour>
  </outline>
</glyph>
<glyph name="currency" format="2">
  <unicode hex="00A4"/>
  <advance width="891"/>
  <outline>
    <contour>
      <point x="859" y="304" type="line"/>
      <point x="706" y="459" type="line"/>
      <point x="741" y="506"/>
      <point x="760" y="570"/>
      <point x="760" y="635" type="curve" smooth="yes"/>
      <point x="760" y="699"/>
      <point x="742" y="764"/>
      <point x="702" y="815" type="curve"/>
      <point x="859" y="972" type="line"/>
      <point x="779" y="1054" type="line"/>
      <point x="620" y="895" type="line"/>
      <point x="576" y="930"/>
      <point x="510" y="948"/>
      <point x="444" y="948" type="curve" smooth="yes"/>
      <point x="380" y="948"/>
      <point x="316" y="931"/>
      <point x="270" y="895" type="curve"/>
      <point x="111" y="1054" type="line"/>
      <point x="31" y="972" type="line"/>
      <point x="189" y="813" type="line"/>
      <point x="151" y="761"/>
      <point x="133" y="696"/>
      <point x="133" y="632" type="curve" smooth="yes"/>
      <point x="133" y="568"/>
      <point x="151" y="506"/>
      <point x="186" y="461" type="curve"/>
      <point x="30" y="305" type="line"/>
      <point x="111" y="224" type="line"/>
      <point x="267" y="379" type="line"/>
      <point x="320" y="342"/>
      <point x="383" y="322"/>
      <point x="447" y="322" type="curve" smooth="yes"/>
      <point x="509" y="322"/>
      <point x="572" y="340"/>
      <point x="625" y="377" type="curve"/>
      <point x="779" y="224" type="line"/>
    </contour>
    <contour>
      <point x="636" y="636" type="line" smooth="yes"/>
      <point x="636" y="532"/>
      <point x="553" y="443"/>
      <point x="448" y="443" type="curve" smooth="yes"/>
      <point x="341" y="443"/>
      <point x="255" y="528"/>
      <point x="255" y="634" type="curve" smooth="yes"/>
      <point x="255" y="742"/>
      <point x="340" y="826"/>
      <point x="448" y="826" type="curve" smooth="yes"/>
      <point x="552" y="826"/>
      <point x="636" y="738"/>
      <point x="636" y="636" type="curve" smooth="yes"/>
    </contour>
  </outline>
</glyph>
<glyph name="brokenbar" format="2">
  <unicode hex="00A6"/>
  <advance width="340"/>
  <outline>
    <contour>
      <point x="208" y="499" type="line"/>
      <point x="208" y="1093" type="line"/>
      <point x="132" y="1093" type="line"/>
      <point x="132" y="499" type="line"/>
    </contour>
    <contour>
      <point x="208" y="-294" type="line"/>
      <point x="208" y="300" type="line"/>
      <point x="132" y="300" type="line"/>
      <point x="132" y="-294" type="line"/>
    </contour>
  </outline>
</glyph>
<glyph name="copyright" format="2">
  <unicode hex="00A9"/>
  <advance width="1153"/>
  <outline>
    <contour>
      <point x="1122" y="510" type="line" smooth="yes"/>
      <point x="1122" y="813"/>
      <point x="889" y="1044"/>
      <point x="586" y="1044" type="curve" smooth="yes"/>
      <point x="285" y="1044"/>
      <point x="51" y="813"/>
      <point x="51" y="510" type="curve" smooth="yes"/>
      <point x="51" y="209"/>
      <point x="285" y="-25"/>
      <point x="586" y="-25" type="curve" smooth="yes"/>
      <point x="887" y="-25"/>
      <point x="1122" y="211"/>
      <point x="1122" y="510" type="curve" smooth="yes"/>
    </contour>
    <contour>
      <point x="1049" y="510" type="line" smooth="yes"/>
      <point x="1049" y="253"/>
      <point x="845" y="51"/>
      <point x="586" y="51" type="curve" smooth="yes"/>
      <point x="328" y="51"/>
      <point x="126" y="253"/>
      <point x="126" y="510" type="curve" smooth="yes"/>
      <point x="126" y="768"/>
      <point x="328" y="972"/>
      <point x="586" y="972" type="curve" smooth="yes"/>
      <point x="845" y="972"/>
      <point x="1049" y="769"/>
      <point x="1049" y="510" type="curve" smooth="yes"/>
    </contour>
    <contour>
      <point x="838" y="374" type="line"/>
      <point x="796" y="310"/>
      <point x="730" y="240"/>
      <point x="634" y="240" type="curve" smooth="yes"/>
      <point x="516" y="240"/>
      <point x="436" y="339"/>
      <point x="436" y="494" type="curve" smooth="yes"/>
      <point x="436" y="651"/>
      <point x="492" y="775"/>
      <point x="617" y="775" type="curve" smooth="yes"/>
      <point x="699" y="775"/>
      <point x="788" y="707"/>
      <point x="814" y="591" type="curve"/>
      <point x="851" y="591" type="line"/>
      <point x="836" y="828" type="line"/>
      <point x="802" y="828" type="line"/>
      <point x="794" y="803"/>
      <point x="793" y="783"/>
      <point x="767" y="783" type="curve"/>
      <point x="749" y="783"/>
      <point x="689" y="827"/>
      <point x="595" y="827" type="curve" smooth="yes"/>
      <point x="386" y="827"/>
      <point x="279" y="655"/>
      <point x="279" y="494" type="curve" smooth="yes"/>
      <point x="279" y="334"/>
      <point x="384" y="186"/>
      <point x="604" y="186" type="curve" smooth="yes"/>
      <point x="758" y="186"/>
      <point x="833" y="285"/>
      <point x="870" y="349" type="curve"/>
    </contour>
  </outline>
</glyph>
<glyph name="sfthyphen" format="2">
  <unicode hex="00AD"/>
  <advance width="529"/>
  <outline>
    <contour>
      <point x="499" y="279" type="line"/>
      <point x="499" y="429" type="line"/>
      <point x="30" y="429" type="line"/>
      <point x="30" y="279" type="line"/>
    </contour>
  </outline>
</glyph>
<glyph name="overscore" format="2">
  <unicode hex="00AF"/>
  <advance width="487"/>
  <outline>
    <contour>
      <point x="487" y="848" type="line"/>
      <point x="487" y="982" type="line"/>
      <point x="0" y="982" type="line"/>
      <point x="0" y="848" type="line"/>
    </contour>
  </outline>
</glyph>
<glyph name="degree" format="2">
  <unicode hex="00B0"/>
  <advance width="475"/>
  <outline>
    <contour>
      <point x="408" y="906" type="line" smooth="yes"/>
      <point x="408" y="1001"/>
      <point x="333" y="1077"/>
      <point x="238" y="1077" type="curve" smooth="yes"/>
      <point x="143" y="1077"/>
      <point x="67" y="1001"/>
      <point x="67" y="906" type="curve" smooth="yes"/>
      <point x="67" y="811"/>
      <point x="143" y="736"/>
      <point x="238" y="736" type="curve" smooth="yes"/>
      <point x="333" y="736"/>
      <point x="408" y="811"/>
      <point x="408" y="906" type="curve" smooth="yes"/>
    </contour>
    <contour>
      <point x="333" y="906" type="line" smooth="yes"/>
      <point x="333" y="853"/>
      <point x="291" y="811"/>
      <point x="238" y="811" type="curve" smooth="yes"/>
      <point x="185" y="811"/>
      <point x="142" y="853"/>
      <point x="142" y="906" type="curve" smooth="yes"/>
      <point x="142" y="959"/>
      <point x="185" y="1001"/>
      <point x="238" y="1001" type="curve" smooth="yes"/>
      <point x="291" y="1001"/>
      <point x="333" y="959"/>
      <point x="333" y="906" type="curve" smooth="yes"/>
    </contour>
  </outline>
</glyph>
<glyph name="twosuperior" format="2">
  <unicode hex="00B2"/>
  <advance width="524"/>
  <outline>
    <contour>
      <point x="519" y="565" type="line"/>
      <point x="475" y="565" type="line"/>
      <point x="447" y="513"/>
      <point x="388" y="505"/>
      <point x="318" y="505" type="curve" smooth="yes"/>
      <point x="184" y="505" type="line"/>
      <point x="289" y="595"/>
      <point x="463" y="688"/>
      <point x="463" y="853" type="curve" smooth="yes"/>
      <point x="463" y="938"/>
      <point x="383" y="1014"/>
      <point x="255" y="1014" type="curve" smooth="yes"/>
      <point x="137" y="1014"/>
      <point x="63" y="926"/>
      <point x="40" y="824" type="curve"/>
      <point x="84" y="824" type="line"/>
      <point x="107" y="886"/>
      <point x="156" y="913"/>
      <point x="201" y="913" type="curve" smooth="yes"/>
      <point x="265" y="913"/>
      <point x="314" y="874"/>
      <point x="314" y="810" type="curve" smooth="yes"/>
      <point x="314" y="699"/>
      <point x="214" y="602"/>
      <point x="23" y="423" type="curve"/>
      <point x="23" y="387" type="line"/>
      <point x="442" y="387" type="line"/>
    </contour>
  </outline>
</glyph>
<glyph name="threesuperior" format="2">
  <unicode hex="00B3"/>
  <advance width="516"/>
  <outline>
    <contour>
      <point x="466" y="597" type="line" smooth="yes"/>
      <point x="466" y="684"/>
      <point x="404" y="732"/>
      <point x="335" y="757" type="curve"/>
      <point x="387" y="791"/>
      <point x="430" y="847"/>
      <point x="430" y="893" type="curve" smooth="yes" name="hr01"/>
      <point x="430" y="973"/>
      <point x="360" y="1018"/>
      <point x="249" y="1018" type="curve" smooth="yes"/>
      <point x="119" y="1018"/>
      <point x="64" y="933"/>
      <point x="23" y="855" type="curve"/>
      <point x="57" y="843" type="line"/>
      <point x="95" y="899"/>
      <point x="143" y="930"/>
      <point x="195" y="930" type="curve" smooth="yes"/>
      <point x="247" y="930"/>
      <point x="283" y="900"/>
      <point x="283" y="858" type="curve" smooth="yes"/>
      <point x="283" y="789"/>
      <point x="201" y="727"/>
      <point x="110" y="721" type="curve"/>
      <point x="110" y="685" type="line" name="hr02"/>
      <point x="244" y="676"/>
      <point x="329" y="625"/>
      <point x="329" y="538" type="curve" smooth="yes"/>
      <point x="329" y="490"/>
      <point x="289" y="441"/>
      <point x="232" y="441" type="curve" smooth="yes"/>
      <point x="168" y="441"/>
      <point x="129" y="505"/>
      <point x="83" y="505" type="curve" smooth="yes" name="hr03"/>
      <point x="42" y="505"/>
      <point x="23" y="480"/>
      <point x="23" y="452" type="curve" smooth="yes"/>
      <point x="23" y="396"/>
      <point x="90" y="382"/>
      <point x="165" y="382" type="curve" smooth="yes"/>
      <point x="337" y="382"/>
      <point x="466" y="465"/>
      <point x="466" y="597" type="curve" smooth="yes"/>
    </contour>
  </outline>
</glyph>
<glyph name="paragraph" format="2">
  <unicode hex="00B6"/>
  <advance width="808"/>
  <outline>
    <contour>
      <point x="812" y="962" type="line"/>
      <point x="812" y="1022" type="line"/>
      <point x="382" y="1022" type="line" smooth="yes"/>
      <point x="124" y="1022"/>
      <point x="-10" y="851"/>
      <point x="-10" y="680" type="curve" smooth="yes"/>
      <point x="-10" y="501"/>
      <point x="124" y="364"/>
      <point x="382" y="364" type="curve"/>
      <point x="382" y="-331" type="line"/>
      <point x="457" y="-331" type="line"/>
      <point x="457" y="959" type="line"/>
      <point x="595" y="959" type="line"/>
      <point x="595" y="-331" type="line"/>
      <point x="669" y="-331" type="line"/>
      <point x="669" y="962" type="line"/>
    </contour>
  </outline>
</glyph>
<glyph name="periodcentered" format="2">
  <unicode hex="00B7"/>
  <advance width="431"/>
  <outline>
    <contour>
      <point x="343" y="513" type="curve" smooth="yes"/>
      <point x="343" y="582"/>
      <point x="285" y="640"/>
      <point x="215" y="640" type="curve" smooth="yes"/>
      <point x="146" y="640"/>
      <point x="88" y="582"/>
      <point x="88" y="513" type="curve" smooth="yes"/>
      <point x="88" y="442"/>
      <point x="146" y="384"/>
      <point x="215" y="384" type="curve" smooth="yes"/>
      <point x="285" y="384"/>
      <point x="343" y="442"/>
    </contour>
  </outline>
</glyph>
<glyph name="ordmasculine" format="2">
  <unicode hex="00BA"/>
  <advance width="580"/>
  <outline>
    <contour>
      <point x="543" y="822" type="line" smooth="yes"/>
      <point x="543" y="938"/>
      <point x="440" y="1032"/>
      <point x="289" y="1032" type="curve" smooth="yes"/>
      <point x="134" y="1032"/>
      <point x="39" y="925"/>
      <point x="39" y="810" type="curve" smooth="yes"/>
      <point x="39" y="698"/>
      <point x="135" y="594"/>
      <point x="295" y="594" type="curve" smooth="yes"/>
      <point x="449" y="594"/>
      <point x="543" y="701"/>
      <point x="543" y="822" type="curve" smooth="yes"/>
    </contour>
    <contour>
      <point x="385" y="787" type="line" smooth="yes"/>
      <point x="385" y="681"/>
      <point x="363" y="640"/>
      <point x="320" y="640" type="curve" smooth="yes"/>
      <point x="259" y="640"/>
      <point x="197" y="735"/>
      <point x="197" y="847" type="curve" smooth="yes"/>
      <point x="197" y="955"/>
      <point x="234" y="988"/>
      <point x="267" y="988" type="curve" smooth="yes"/>
      <point x="344" y="988"/>
      <point x="385" y="884"/>
      <point x="385" y="787" type="curve" smooth="yes"/>
    </contour>
    <contour>
      <point x="539" y="466" type="line"/>
      <point x="539" y="526" type="line"/>
      <point x="48" y="526" type="line"/>
      <point x="48" y="466" type="line"/>
    </contour>
  </outline>
</glyph>
<glyph name="guillemotright" format="2">
  <unicode hex="00BB"/>
  <advance width="772"/>
  <outline>
    <contour>
      <point x="102" y="-6" type="line"/>
      <point x="419" y="350" type="line"/>
      <point x="102" y="705" type="line"/>
      <point x="29" y="705" type="line"/>
      <point x="213" y="350" type="line"/>
      <point x="29" y="-6" type="line"/>
    </contour>
    <contour>
      <point x="412" y="-6" type="line"/>
      <point x="725" y="350" type="line"/>
      <point x="412" y="705" type="line"/>
      <point x="341" y="705" type="line"/>
      <point x="525" y="350" type="line"/>
      <point x="341" y="-6" type="line"/>
    </contour>
  </outline>
</glyph>
<glyph name="questiondown" format="2">
  <unicode hex="00BF"/>
  <advance width="721"/>
  <outline>
    <contour>
      <point x="260" y="621" type="line" smooth="yes"/>
      <point x="260" y="557"/>
      <point x="313" y="505"/>
      <point x="376" y="505" type="curve" smooth="yes"/>
      <point x="439" y="505"/>
      <point x="490" y="557"/>
      <point x="490" y="621" type="curve" smooth="yes"/>
      <point x="490" y="683"/>
      <point x="439" y="735"/>
      <point x="376" y="735" type="curve" smooth="yes"/>
      <point x="313" y="735"/>
      <point x="260" y="683"/>
      <point x="260" y="621" type="curve" smooth="yes"/>
    </contour>
    <contour>
      <point x="58" y="-92" type="line" smooth="yes" name="hr01"/>
      <point x="58" y="-257"/>
      <point x="187" y="-331"/>
      <point x="345" y="-331" type="curve" smooth="yes"/>
      <point x="570" y="-331"/>
      <point x="647" y="-194"/>
      <point x="647" y="-87" type="curve" smooth="yes"/>
      <point x="647" y="-21"/>
      <point x="600" y="27"/>
      <point x="531" y="27" type="curve" smooth="yes"/>
      <point x="481" y="27"/>
      <point x="449" y="-13"/>
      <point x="449" y="-59" type="curve" smooth="yes"/>
      <point x="449" y="-113"/>
      <point x="495" y="-174"/>
      <point x="495" y="-204" type="curve" smooth="yes" name="hr02"/>
      <point x="495" y="-238"/>
      <point x="447" y="-262"/>
      <point x="399" y="-262" type="curve" smooth="yes"/>
      <point x="316" y="-262"/>
      <point x="273" y="-202"/>
      <point x="273" y="-84" type="curve" smooth="yes"/>
      <point x="273" y="-15"/>
      <point x="286" y="51"/>
      <point x="327" y="135" type="curve" smooth="yes"/>
      <point x="380" y="243"/>
      <point x="404" y="312"/>
      <point x="404" y="409" type="curve"/>
      <point x="344" y="409" type="line"/>
      <point x="344" y="318"/>
      <point x="271" y="237"/>
      <point x="199" y="156" type="curve" smooth="yes"/>
      <point x="128" y="77"/>
      <point x="58" y="-3"/>
      <point x="58" y="-92" type="curve" smooth="yes"/>
    </contour>
  </outline>
</glyph>
<glyph name="AE" format="2">
  <unicode hex="00C6"/>
  <advance width="1548"/>
  <outline>
    <contour>
      <point x="1485" y="296" type="line"/>
      <point x="1423" y="296" type="line"/>
      <point x="1341" y="151"/>
      <point x="1299" y="86"/>
      <point x="1121" y="86" type="curve" smooth="yes"/>
      <point x="1041" y="86" type="line" smooth="yes"/>
      <point x="983" y="86"/>
      <point x="974" y="107"/>
      <point x="965" y="120" type="curve" smooth="yes"/>
      <point x="959" y="129"/>
      <point x="954" y="160"/>
      <point x="954" y="200" type="curve" smooth="yes"/>
      <point x="954" y="477" type="line"/>
      <point x="1046" y="477" type="line" smooth="yes"/>
      <point x="1173" y="477"/>
      <point x="1191" y="433"/>
      <point x="1208" y="314" type="curve"/>
      <point x="1268" y="314" type="line"/>
      <point x="1268" y="741" type="line"/>
      <point x="1208" y="741" type="line"/>
      <point x="1191" y="622"/>
      <point x="1171" y="564"/>
      <point x="1046" y="564" type="curve" smooth="yes"/>
      <point x="954" y="564" type="line"/>
      <point x="954" y="933" type="line"/>
      <point x="1145" y="933" type="line" smooth="yes"/>
      <point x="1297" y="933"/>
      <point x="1309" y="878"/>
      <point x="1344" y="747" type="curve"/>
      <point x="1402" y="747" type="line"/>
      <point x="1390" y="1022" type="line"/>
      <point x="489" y="1022" type="line"/>
      <point x="489" y="962" type="line"/>
      <point x="581" y="956"/>
      <point x="594" y="934"/>
      <point x="594" y="900" type="curve" smooth="yes"/>
      <point x="594" y="876"/>
      <point x="579" y="845"/>
      <point x="549" y="787" type="curve" smooth="yes"/>
      <point x="249" y="207" type="line" smooth="yes"/>
      <point x="196" y="105"/>
      <point x="157" y="91"/>
      <point x="127" y="73" type="curve" smooth="yes"/>
      <point x="113" y="65"/>
      <point x="93" y="60"/>
      <point x="71" y="60" type="curve"/>
      <point x="71" y="0" type="line" name="hr01"/>
      <point x="429" y="0" type="line"/>
      <point x="429" y="60" type="line"/>
      <point x="359" y="67"/>
      <point x="310" y="80"/>
      <point x="310" y="121" type="curve" smooth="yes"/>
      <point x="310" y="136"/>
      <point x="317" y="155"/>
      <point x="352" y="220" type="curve" smooth="yes"/>
      <point x="429" y="365" type="line"/>
      <point x="719" y="365" type="line"/>
      <point x="719" y="213" type="line" smooth="yes"/>
      <point x="719" y="151"/>
      <point x="709" y="113"/>
      <point x="697" y="97" type="curve" smooth="yes"/>
      <point x="676" y="72"/>
      <point x="645" y="60"/>
      <point x="603" y="60" type="curve" smooth="yes"/>
      <point x="574" y="60" type="line"/>
      <point x="574" y="0" type="line"/>
      <point x="1381" y="3" type="line"/>
    </contour>
    <contour>
      <point x="719" y="452" type="line"/>
      <point x="474" y="452" type="line"/>
      <point x="719" y="934" type="line"/>
    </contour>
  </outline>
</glyph>
<glyph name="eth" format="2">
  <unicode hex="00F0"/>
  <advance width="782"/>
  <outline>
    <contour>
      <point x="146" y="822" type="line"/>
      <point x="182" y="748" type="line"/>
      <point x="351" y="841" type="line"/>
      <point x="380" y="800"/>
      <point x="404" y="755"/>
      <point x="423" y="709" type="curve"/>
      <point x="413" y="710"/>
      <point x="401" y="711"/>
      <point x="388" y="711" type="curve" smooth="yes"/>
      <point x="173" y="711"/>
      <point x="41" y="531"/>
      <point x="41" y="338" type="curve" smooth="yes"/>
      <point x="41" y="151"/>
      <point x="175" y="-23"/>
      <point x="396" y="-23" type="curve" smooth="yes"/>
      <point x="610" y="-23"/>
      <point x="739" y="155"/>
      <point x="739" y="359" type="curve" smooth="yes"/>
      <point x="739" y="538"/>
      <point x="644" y="754"/>
      <point x="473" y="908" type="curve"/>
      <point x="616" y="987" type="line"/>
      <point x="574" y="1061" type="line"/>
      <point x="402" y="965" type="line"/>
      <point x="338" y="1008"/>
      <point x="250" y="1054"/>
      <point x="199" y="1073" type="curve"/>
      <point x="169" y="1023" type="line"/>
      <point x="214" y="991"/>
      <point x="258" y="952"/>
      <point x="298" y="907" type="curve"/>
    </contour>
    <contour>
      <point x="521" y="299" type="line" smooth="yes"/>
      <point x="521" y="122"/>
      <point x="490" y="53"/>
      <point x="431" y="53" type="curve" smooth="yes"/>
      <point x="346" y="53"/>
      <point x="261" y="213"/>
      <point x="261" y="401" type="curve" smooth="yes"/>
      <point x="261" y="582"/>
      <point x="311" y="636"/>
      <point x="357" y="636" type="curve" smooth="yes"/>
      <point x="464" y="636"/>
      <point x="521" y="528"/>
      <point x="521" y="299" type="curve" smooth="yes"/>
    </contour>
  </outline>
</glyph>
<glyph name="divide" format="2">
  <unicode hex="00F7"/>
  <advance width="1485"/>
  <outline>
    <contour>
      <point x="850" y="703" type="line" smooth="yes"/>
      <point x="850" y="762"/>
      <point x="802" y="810"/>
      <point x="743" y="810" type="curve" smooth="yes"/>
      <point x="683" y="810"/>
      <point x="636" y="762"/>
      <point x="636" y="703" type="curve" smooth="yes"/>
      <point x="636" y="642"/>
      <point x="683" y="596"/>
      <point x="743" y="596" type="curve" smooth="yes"/>
      <point x="802" y="596"/>
      <point x="850" y="642"/>
      <point x="850" y="703" type="curve" smooth="yes"/>
    </contour>
    <contour>
      <point x="1208" y="380" type="line"/>
      <point x="1208" y="512" type="line"/>
      <point x="277" y="512" type="line"/>
      <point x="277" y="380" type="line"/>
    </contour>
    <contour>
      <point x="850" y="189" type="line" smooth="yes"/>
      <point x="850" y="249"/>
      <point x="802" y="296"/>
      <point x="743" y="296" type="curve" smooth="yes"/>
      <point x="683" y="296"/>
      <point x="636" y="249"/>
      <point x="636" y="189" type="curve" smooth="yes"/>
      <point x="636" y="129"/>
      <point x="683" y="83"/>
      <point x="743" y="83" type="curve" smooth="yes"/>
      <point x="802" y="83"/>
      <point x="850" y="129"/>
      <point x="850" y="189" type="curve" smooth="yes"/>
    </contour>
  </outline>
</glyph>
<glyph name="dotlessi" format="2">
  <unicode hex="0131"/>
  <advance width="485"/>
  <anchor x="221" y="760" name="above"/>
  <outline>
    <contour>
      <point x="460" y="0" type="line"/>
      <point x="460" y="60" type="line"/>
      <point x="395" y="60"/>
      <point x="377" y="78"/>
      <point x="377" y="166" type="curve" smooth="yes"/>
      <point x="377" y="711" type="line"/>
      <point x="317" y="711" type="line"/>
      <point x="37" y="627" type="line"/>
      <point x="55" y="571" type="line"/>
      <point x="74" y="577"/>
      <point x="103" y="582"/>
      <point x="120" y="582" type="curve" smooth="yes"/>
      <point x="152" y="582"/>
      <point x="162" y="560"/>
      <point x="162" y="480" type="curve" smooth="yes"/>
      <point x="162" y="167" type="line" smooth="yes"/>
      <point x="162" y="79"/>
      <point x="148" y="60"/>
      <point x="77" y="60" type="curve"/>
      <point x="77" y="0" type="line"/>
    </contour>
  </outline>
</glyph>
<glyph name="absNumberSign" format="2">
  <unicode hex="0600"/>
  <advance width="1046"/>
  <anchor x="131" y="0" name="digit"/>
  <outline>
    <contour>
      <point x="995" y="127" type="curve" smooth="yes"/>
      <point x="995" y="150"/>
      <point x="981" y="158"/>
      <point x="972" y="158" type="curve" smooth="yes"/>
      <point x="962" y="158"/>
      <point x="873" y="122"/>
      <point x="865" y="122" type="curve" smooth="yes"/>
      <point x="848" y="122"/>
      <point x="844" y="132"/>
      <point x="844" y="167" type="curve" smooth="yes"/>
      <point x="844" y="222"/>
      <point x="846" y="301"/>
      <point x="898" y="401" type="curve"/>
      <point x="861" y="470" type="line"/>
      <point x="807" y="419"/>
      <point x="695" y="295"/>
      <point x="695" y="149" type="curve" smooth="yes"/>
      <point x="695" y="100"/>
      <point x="672" y="86"/>
      <point x="616" y="86" type="curve" smooth="yes"/>
      <point x="496" y="86"/>
      <point x="178" y="79"/>
      <point x="109" y="68" type="curve" smooth="yes"/>
      <point x="84" y="64"/>
      <point x="51" y="51"/>
      <point x="51" y="0" type="curve" smooth="yes"/>
      <point x="51" y="-71"/>
      <point x="105" y="-100"/>
      <point x="445" y="-100" type="curve" smooth="yes"/>
      <point x="610" y="-100"/>
      <point x="770" y="-95"/>
      <point x="859" y="-83" type="curve" smooth="yes"/>
      <point x="919" y="-75"/>
      <point x="941" y="-63"/>
      <point x="953" y="-55" type="curve" smooth="yes"/>
      <point x="971" y="-44"/>
      <point x="995" y="22"/>
    </contour>
  </outline>
</glyph>
<glyph name="absVerseSign" format="2">
  <unicode hex="060E"/>
  <advance width="1414"/>
  <outline>
    <contour>
      <point x="1339" y="373" type="line"/>
      <point x="1275" y="337"/>
      <point x="1170" y="290"/>
      <point x="1070" y="265" type="curve" smooth="yes"/>
      <point x="973" y="241"/>
      <point x="856" y="226"/>
      <point x="780" y="226" type="curve" smooth="yes"/>
      <point x="657" y="226"/>
      <point x="614" y="230"/>
      <point x="545" y="241" type="curve"/>
      <point x="542" y="286"/>
      <point x="536" y="375"/>
      <point x="526" y="418" type="curve" smooth="yes"/>
      <point x="502" y="522"/>
      <point x="450" y="574"/>
      <point x="366" y="574" type="curve" smooth="yes"/>
      <point x="306" y="574"/>
      <point x="212" y="521"/>
      <point x="150" y="458" type="curve" smooth="yes"/>
      <point x="100" y="408"/>
      <point x="57" y="342"/>
      <point x="57" y="278" type="curve" smooth="yes"/>
      <point x="57" y="200"/>
      <point x="131" y="148"/>
      <point x="212" y="116" type="curve" smooth="yes"/>
      <point x="304" y="80"/>
      <point x="439" y="51"/>
      <point x="684" y="51" type="curve" smooth="yes"/>
      <point x="836" y="51"/>
      <point x="956" y="81"/>
      <point x="1059" y="113" type="curve" smooth="yes"/>
      <point x="1159" y="144"/>
      <point x="1238" y="184"/>
      <point x="1305" y="219" type="curve"/>
      <point x="1321" y="245"/>
      <point x="1344" y="303"/>
      <point x="1344" y="341" type="curve" smooth="yes"/>
      <point x="1344" y="359"/>
      <point x="1340" y="370"/>
      <point x="1339" y="373" type="curve"/>
    </contour>
    <contour>
      <point x="408" y="264" type="line"/>
      <point x="360" y="272"/>
      <point x="329" y="285"/>
      <point x="287" y="304" type="curve" smooth="yes"/>
      <point x="247" y="322"/>
      <point x="242" y="339"/>
      <point x="242" y="355" type="curve" smooth="yes"/>
      <point x="242" y="379"/>
      <point x="271" y="410"/>
      <point x="305" y="410" type="curve" smooth="yes"/>
      <point x="338" y="410"/>
      <point x="364" y="385"/>
      <point x="382" y="351" type="curve" smooth="yes"/>
      <point x="396" y="325"/>
      <point x="405" y="293"/>
      <point x="408" y="264" type="curve"/>
    </contour>
  </outline>
</glyph>
<glyph name="absSmallHighRehHahMark" format="2">
  <unicode hex="0612"/>
  <anchor x="527" y="1055" name="_diaA"/>
  <outline>
    <contour>
      <point x="832" y="1356" type="curve" smooth="yes"/>
      <point x="832" y="1416"/>
      <point x="807" y="1478"/>
      <point x="776" y="1522" type="curve"/>
      <point x="772" y="1518"/>
      <point x="755" y="1497"/>
      <point x="745" y="1479" type="curve" smooth="yes"/>
      <point x="735" y="1461"/>
      <point x="724" y="1439"/>
      <point x="724" y="1434" type="curve" smooth="yes"/>
      <point x="724" y="1430"/>
      <point x="733" y="1415"/>
      <point x="740" y="1405" type="curve" smooth="yes"/>
      <point x="760" y="1375"/>
      <point x="788" y="1328"/>
      <point x="788" y="1324" type="curve" smooth="yes"/>
      <point x="788" y="1297"/>
      <point x="766" y="1260"/>
      <point x="717" y="1219" type="curve" smooth="yes"/>
      <point x="665" y="1174"/>
      <point x="594" y="1157"/>
      <point x="558" y="1157" type="curve" smooth="yes"/>
      <point x="535" y="1157"/>
      <point x="519" y="1158"/>
      <point x="479" y="1160" type="curve"/>
      <point x="472" y="1160"/>
      <point x="467" y="1149"/>
      <point x="467" y="1141" type="curve" smooth="yes"/>
      <point x="467" y="1129"/>
      <point x="555" y="1087"/>
      <point x="606" y="1087" type="curve" smooth="yes"/>
      <point x="651" y="1087"/>
      <point x="685" y="1097"/>
      <point x="717" y="1121" type="curve" smooth="yes"/>
      <point x="747" y="1144"/>
      <point x="776" y="1174"/>
      <point x="799" y="1220" type="curve" smooth="yes"/>
      <point x="824" y="1269"/>
      <point x="832" y="1320"/>
    </contour>
    <contour>
      <point x="678" y="1472" type="curve" smooth="yes"/>
      <point x="678" y="1479"/>
      <point x="673" y="1482"/>
      <point x="664" y="1482" type="curve" smooth="yes"/>
      <point x="648" y="1482"/>
      <point x="575" y="1476"/>
      <point x="552" y="1476" type="curve" smooth="yes" name="hr01"/>
      <point x="482" y="1476"/>
      <point x="418" y="1496"/>
      <point x="352" y="1496" type="curve" smooth="yes"/>
      <point x="329" y="1496"/>
      <point x="298" y="1492"/>
      <point x="277" y="1485" type="curve" smooth="yes"/>
      <point x="256" y="1478"/>
      <point x="239" y="1465"/>
      <point x="234" y="1458" type="curve" smooth="yes"/>
      <point x="229" y="1451"/>
      <point x="222" y="1400"/>
      <point x="222" y="1384" type="curve"/>
      <point x="254" y="1392"/>
      <point x="301" y="1400"/>
      <point x="324" y="1400" type="curve" smooth="yes"/>
      <point x="356" y="1400"/>
      <point x="381" y="1397"/>
      <point x="400" y="1392" type="curve"/>
      <point x="277" y="1325"/>
      <point x="206" y="1211"/>
      <point x="206" y="1090" type="curve"/>
      <point x="294" y="1156" type="line"/>
      <point x="294" y="1217"/>
      <point x="312" y="1282"/>
      <point x="358" y="1314" type="curve" smooth="yes"/>
      <point x="414" y="1353"/>
      <point x="473" y="1377"/>
      <point x="538" y="1386" type="curve" smooth="yes"/>
      <point x="594" y="1393"/>
      <point x="631" y="1399"/>
      <point x="640" y="1400" type="curve" smooth="yes"/>
      <point x="643" y="1401"/>
      <point x="655" y="1419"/>
      <point x="664" y="1434" type="curve" smooth="yes"/>
      <point x="673" y="1449"/>
      <point x="678" y="1468"/>
    </contour>
  </outline>
</glyph>
<glyph name="absAin" format="2">
  <unicode hex="0639"/>
  <advance width="1134"/>
  <anchor x="398" y="816" name="above"/>
  <anchor x="525" y="92" name="below"/>
  <anchor x="352" y="1014" name="diaA"/>
  <anchor x="320" y="-918" name="diaB"/>
  <anchor x="203" y="851" name="alef"/>
  <outline>
    <contour>
      <point x="1136" y="-583" type="curve" smooth="yes"/>
      <point x="1136" y="-580"/>
      <point x="1129" y="-548"/>
      <point x="1125" y="-548" type="curve" smooth="yes"/>
      <point x="1110" y="-548"/>
      <point x="1006" y="-572"/>
      <point x="860" y="-572" type="curve" smooth="yes"/>
      <point x="425" y="-572"/>
      <point x="171" y="-465"/>
      <point x="171" y="-212" type="curve" smooth="yes"/>
      <point x="171" y="11"/>
      <point x="334" y="125"/>
      <point x="503" y="211" type="curve" smooth="yes"/>
      <point x="569" y="245"/>
      <point x="635" y="274"/>
      <point x="694" y="304" type="curve" smooth="yes"/>
      <point x="702" y="308"/>
      <point x="833" y="494"/>
      <point x="833" y="501" type="curve" smooth="yes"/>
      <point x="833" y="505"/>
      <point x="820" y="527"/>
      <point x="818" y="527" type="curve"/>
      <point x="814" y="527"/>
      <point x="612" y="426"/>
      <point x="535" y="392" type="curve" smooth="yes"/>
      <point x="517" y="384"/>
      <point x="502" y="379"/>
      <point x="494" y="379" type="curve" smooth="yes"/>
      <point x="435" y="379"/>
      <point x="257" y="418"/>
      <point x="257" y="469" type="curve" smooth="yes"/>
      <point x="257" y="480"/>
      <point x="280" y="550"/>
      <point x="376" y="590" type="curve" smooth="yes"/>
      <point x="429" y="612"/>
      <point x="573" y="614"/>
      <point x="593" y="614" type="curve" smooth="yes"/>
      <point x="599" y="614"/>
      <point x="605" y="632"/>
      <point x="605" y="632" type="curve"/>
      <point x="590" y="676"/>
      <point x="543" y="727"/>
      <point x="489" y="751" type="curve" smooth="yes"/>
      <point x="470" y="760"/>
      <point x="450" y="765"/>
      <point x="431" y="765" type="curve" smooth="yes"/>
      <point x="406" y="765"/>
      <point x="359" y="761"/>
      <point x="302" y="693" type="curve" smooth="yes"/>
      <point x="240" y="619"/>
      <point x="149" y="442"/>
      <point x="149" y="360" type="curve" smooth="yes"/>
      <point x="149" y="278"/>
      <point x="258" y="223"/>
      <point x="323" y="215" type="curve"/>
      <point x="224" y="122"/>
      <point x="80" y="-57"/>
      <point x="80" y="-296" type="curve" smooth="yes"/>
      <point x="80" y="-629"/>
      <point x="370" y="-757"/>
      <point x="647" y="-757" type="curve" smooth="yes"/>
      <point x="805" y="-757"/>
      <point x="1136" y="-602"/>
    </contour>
  </outline>
</glyph>
<glyph name="absLam" format="2">
  <unicode hex="0644"/>
  <advance width="935"/>
  <anchor x="624" y="1143" name="above"/>
  <anchor x="668" y="-236" name="below"/>
  <anchor x="648" y="691" name="through"/>
  <anchor x="360" y="1036" name="diaA"/>
  <anchor x="400" y="-371" name="diaB"/>
  <anchor x="200" y="601" name="alef"/>
  <outline>
    <contour>
      <point x="815" y="121" type="curve" smooth="yes"/>
      <point x="815" y="282"/>
      <point x="731" y="721"/>
      <point x="731" y="852" type="curve" smooth="yes"/>
      <point x="731" y="916"/>
      <point x="793" y="953"/>
      <point x="793" y="959" type="curve"/>
      <point x="793" y="965"/>
      <point x="681" y="1104"/>
      <point x="677" y="1104" type="curve"/>
      <point x="636" y="1104"/>
      <point x="575" y="1020"/>
      <point x="575" y="951" type="curve" smooth="yes"/>
      <point x="575" y="887"/>
      <point x="612" y="728"/>
      <point x="646" y="562" type="curve" smooth="yes"/>
      <point x="682" y="387"/>
      <point x="732" y="206"/>
      <point x="732" y="119" type="curve" smooth="yes"/>
      <point x="732" y="102"/>
      <point x="725" y="60"/>
      <point x="715" y="50" type="curve" smooth="yes"/>
      <point x="667" y="-2"/>
      <point x="540" y="-45"/>
      <point x="398" y="-45" type="curve" smooth="yes"/>
      <point x="260" y="-45"/>
      <point x="177" y="13"/>
      <point x="177" y="121" type="curve" smooth="yes"/>
      <point x="177" y="238"/>
      <point x="246" y="344"/>
      <point x="246" y="352" type="curve" smooth="yes"/>
      <point x="246" y="360"/>
      <point x="223" y="378"/>
      <point x="216" y="378" type="curve" smooth="yes"/>
      <point x="206" y="378"/>
      <point x="78" y="166"/>
      <point x="78" y="4" type="curve" smooth="yes"/>
      <point x="78" y="-139"/>
      <point x="163" y="-249"/>
      <point x="360" y="-249" type="curve" smooth="yes"/>
      <point x="499" y="-249"/>
      <point x="616" y="-191"/>
      <point x="691" y="-123" type="curve" smooth="yes"/>
      <point x="762" y="-59"/>
      <point x="815" y="11"/>
    </contour>
  </outline>
</glyph>
<glyph name="absFatha" format="2">
  <unicode hex="064E"/>
  <anchor x="120" y="1020" name="_diaA"/>
  <anchor x="90" y="1290" name="diaA"/>
  <outline>
    <contour>
      <point x="311" y="1250" type="curve" smooth="yes"/>
      <point x="311" y="1256"/>
      <point x="307" y="1262"/>
      <point x="298" y="1262" type="curve" smooth="yes"/>
      <point x="290" y="1262"/>
      <point x="259" y="1243"/>
      <point x="236" y="1231" type="curve" smooth="yes"/>
      <point x="-12" y="1097" type="line" smooth="yes"/>
      <point x="-31" y="1087"/>
      <point x="-39" y="1081"/>
      <point x="-44" y="1076" type="curve" smooth="yes"/>
      <point x="-54" y="1066"/>
      <point x="-74" y="992"/>
      <point x="-74" y="981" type="curve" smooth="yes"/>
      <point x="-74" y="972"/>
      <point x="-70" y="967"/>
      <point x="-61" y="967" type="curve" smooth="yes"/>
      <point x="-51" y="967"/>
      <point x="-44" y="975"/>
      <point x="-12" y="992" type="curve" smooth="yes"/>
      <point x="230" y="1122" type="line" smooth="yes"/>
      <point x="249" y="1132"/>
      <point x="264" y="1140"/>
      <point x="273" y="1149" type="curve" smooth="yes"/>
      <point x="285" y="1161"/>
      <point x="311" y="1243"/>
    </contour>
  </outline>
</glyph>
<glyph name="absNoonGhunnaMark" format="2">
  <unicode hex="0658"/>
  <anchor x="160" y="900" name="_diaA"/>
  <anchor x="160" y="1290" name="diaA"/>
  <outline>
    <contour>
      <point x="-12" y="1237" type="line"/>
      <point x="-5" y="1127"/>
      <point x="57" y="976"/>
      <point x="169" y="976" type="curve" smooth="yes"/>
      <point x="292" y="976"/>
      <point x="351" y="1158"/>
      <point x="351" y="1263" type="curve"/>
      <point x="311" y="1270" type="line"/>
      <point x="301" y="1170"/>
      <point x="250" y="1106"/>
      <point x="190" y="1106" type="curve" smooth="yes"/>
      <point x="94" y="1106"/>
      <point x="59" y="1225"/>
      <point x="48" y="1276" type="curve"/>
    </contour>
  </outline>
</glyph>
<glyph name="absOne" format="2">
  <unicode hex="0661"/>
  <advance width="830"/>
  <outline>
    <contour>
      <point x="557" y="86" type="curve" smooth="yes"/>
      <point x="557" y="266"/>
      <point x="527" y="398"/>
      <point x="476" y="539" type="curve" smooth="yes"/>
      <point x="414" y="710"/>
      <point x="334" y="802"/>
      <point x="317" y="802" type="curve" smooth="yes"/>
      <point x="299" y="802"/>
      <point x="243" y="611"/>
      <point x="243" y="563" type="curve" smooth="yes"/>
      <point x="243" y="552"/>
      <point x="495" y="337"/>
      <point x="495" y="-124" type="curve" smooth="yes"/>
      <point x="495" y="-130"/>
      <point x="504" y="-135"/>
      <point x="520" y="-135" type="curve" smooth="yes"/>
      <point x="531" y="-135"/>
      <point x="541" y="-130"/>
      <point x="542" y="-124" type="curve" smooth="yes"/>
      <point x="549" y="-68"/>
      <point x="557" y="6"/>
    </contour>
  </outline>
</glyph>
<glyph name="absThousandsSeparator" format="2">
  <unicode hex="066C"/>
  <advance width="595"/>
  <outline>
    <contour>
      <point x="419" y="617" type="line"/>
      <point x="419" y="666"/>
      <point x="388" y="750"/>
      <point x="298" y="750" type="curve" smooth="yes"/>
      <point x="245" y="750"/>
      <point x="182" y="713"/>
      <point x="182" y="636" type="curve" smooth="yes"/>
      <point x="182" y="579"/>
      <point x="238" y="548"/>
      <point x="285" y="538" type="curve" smooth="yes"/>
      <point x="291" y="538"/>
      <point x="291" y="526"/>
      <point x="291" y="519" type="curve" smooth="yes"/>
      <point x="291" y="462"/>
      <point x="229" y="406"/>
      <point x="184" y="369" type="curve"/>
      <point x="235" y="312" type="line"/>
      <point x="333" y="382"/>
      <point x="419" y="505"/>
      <point x="419" y="617" type="curve"/>
    </contour>
  </outline>
</glyph>
<glyph name="absQafNoDots" format="2">
  <unicode hex="066F"/>
  <advance width="1104"/>
  <anchor x="803" y="846" name="above"/>
  <anchor x="795" y="-236" name="below"/>
  <anchor x="515" y="954" name="diaA"/>
  <anchor x="397" y="-372" name="diaB"/>
  <anchor x="358" y="822" name="alef"/>
  <outline>
    <contour>
      <point x="811" y="769" type="curve" smooth="yes"/>
      <point x="737" y="769"/>
      <point x="611" y="578"/>
      <point x="611" y="404" type="curve" smooth="yes"/>
      <point x="611" y="317"/>
      <point x="691" y="272"/>
      <point x="760" y="272" type="curve" smooth="yes"/>
      <point x="811" y="272"/>
      <point x="874" y="288"/>
      <point x="917" y="348" type="curve"/>
      <point x="931" y="327"/>
      <point x="941" y="303"/>
      <point x="941" y="262" type="curve" smooth="yes"/>
      <point x="941" y="130"/>
      <point x="784" y="0"/>
      <point x="538" y="0" type="curve" smooth="yes"/>
      <point x="295" y="0"/>
      <point x="168" y="65"/>
      <point x="168" y="252" type="curve" smooth="yes"/>
      <point x="168" y="371"/>
      <point x="249" y="485"/>
      <point x="249" y="491" type="curve" smooth="yes"/>
      <point x="249" y="499"/>
      <point x="229" y="518"/>
      <point x="221" y="518" type="curve" smooth="yes"/>
      <point x="215" y="518"/>
      <point x="80" y="336"/>
      <point x="80" y="116" type="curve" smooth="yes"/>
      <point x="80" y="-50"/>
      <point x="188" y="-199"/>
      <point x="452" y="-199" type="curve" smooth="yes"/>
      <point x="633" y="-199"/>
      <point x="876" y="-109"/>
      <point x="977" y="97" type="curve" smooth="yes"/>
      <point x="1006" y="156"/>
      <point x="1024" y="276"/>
      <point x="1024" y="350" type="curve" smooth="yes"/>
      <point x="1024" y="559"/>
      <point x="920" y="769"/>
    </contour>
    <contour>
      <point x="832" y="510" type="curve"/>
      <point x="812" y="488"/>
      <point x="775" y="478"/>
      <point x="761" y="478" type="curve" smooth="yes"/>
      <point x="738" y="478"/>
      <point x="709" y="495"/>
      <point x="709" y="525" type="curve" smooth="yes"/>
      <point x="709" y="546"/>
      <point x="732" y="568"/>
      <point x="754" y="568" type="curve" smooth="yes"/>
      <point x="785" y="568"/>
      <point x="814" y="535"/>
    </contour>
  </outline>
</glyph>
<glyph name="absNoonGhunna" format="2">
  <unicode hex="06BA"/>
  <advance width="954"/>
  <anchor x="423" y="441" name="above"/>
  <anchor x="479" y="-378" name="below"/>
  <anchor x="504" y="-250" name="ring"/>
  <anchor x="419" y="824" name="diaA"/>
  <anchor x="424" y="-477" name="diaB"/>
  <anchor x="302" y="494" name="alef"/>
  <outline>
    <contour>
      <point x="870" y="125" type="curve" smooth="yes"/>
      <point x="870" y="236"/>
      <point x="781" y="520"/>
      <point x="707" y="638" type="curve"/>
      <point x="699" y="630"/>
      <point x="622" y="480"/>
      <point x="622" y="440" type="curve" smooth="yes"/>
      <point x="622" y="422"/>
      <point x="650" y="392"/>
      <point x="681" y="352" type="curve" smooth="yes"/>
      <point x="722" y="300"/>
      <point x="791" y="162"/>
      <point x="791" y="86" type="curve" smooth="yes"/>
      <point x="791" y="34"/>
      <point x="776" y="-3"/>
      <point x="751" y="-29" type="curve" smooth="yes"/>
      <point x="714" y="-68"/>
      <point x="576" y="-132"/>
      <point x="447" y="-132" type="curve" smooth="yes"/>
      <point x="288" y="-132"/>
      <point x="161" y="-51"/>
      <point x="161" y="93" type="curve" smooth="yes"/>
      <point x="161" y="209"/>
      <point x="225" y="300"/>
      <point x="225" y="306" type="curve" smooth="yes"/>
      <point x="225" y="316"/>
      <point x="199" y="328"/>
      <point x="192" y="328" type="curve" smooth="yes"/>
      <point x="184" y="328"/>
      <point x="80" y="150"/>
      <point x="80" y="0" type="curve" smooth="yes"/>
      <point x="80" y="-212"/>
      <point x="253" y="-336"/>
      <point x="429" y="-336" type="curve" smooth="yes"/>
      <point x="625" y="-336"/>
      <point x="789" y="-202"/>
      <point x="838" y="-68" type="curve" smooth="yes"/>
      <point x="855" y="-21"/>
      <point x="870" y="33"/>
    </contour>
  </outline>
</glyph>
<glyph name="absFullStop" format="2">
  <unicode hex="06D4"/>
  <advance width="722"/>
  <anchor x="352" y="790" name="diaA"/>
  <anchor x="351" y="-254" name="diaB"/>
  <outline>
    <contour>
      <point x="486" y="0" type="line"/>
      <point x="536" y="205" type="line"/>
      <point x="226" y="205" type="line"/>
      <point x="174" y="0" type="line"/>
    </contour>
  </outline>
</glyph>
<glyph name="absSmallHighThreeDots" format="2">
  <unicode hex="06DB"/>
  <anchor x="-8" y="886" name="_diaA"/>
  <outline>
    <contour>
      <point x="52" y="1189" type="curve" smooth="yes"/>
      <point x="52" y="1194"/>
      <point x="-19" y="1249"/>
      <point x="-27" y="1249" type="curve" smooth="yes"/>
      <point x="-36" y="1249"/>
      <point x="-88" y="1173"/>
      <point x="-88" y="1162" type="curve" smooth="yes"/>
      <point x="-88" y="1155"/>
      <point x="-14" y="1106"/>
      <point x="-10" y="1106" type="curve" smooth="yes"/>
      <point x="0" y="1106"/>
      <point x="52" y="1180"/>
    </contour>
    <contour>
      <point x="140" y="1037" type="curve" smooth="yes"/>
      <point x="140" y="1045"/>
      <point x="64" y="1099"/>
      <point x="62" y="1099" type="curve"/>
      <point x="54" y="1099"/>
      <point x="8" y="1029"/>
      <point x="8" y="1029" type="curve"/>
      <point x="4" y="1024"/>
      <point x="1" y="1023"/>
      <point x="-1" y="1023" type="curve"/>
      <point x="-3" y="1023"/>
      <point x="-7" y="1024"/>
      <point x="-10" y="1027" type="curve"/>
      <point x="-10" y="1027"/>
      <point x="-71" y="1081"/>
      <point x="-80" y="1081" type="curve" smooth="yes"/>
      <point x="-85" y="1081"/>
      <point x="-137" y="1005"/>
      <point x="-137" y="996" type="curve" smooth="yes"/>
      <point x="-137" y="986"/>
      <point x="-66" y="939"/>
      <point x="-60" y="939" type="curve" smooth="yes"/>
      <point x="-54" y="939"/>
      <point x="-6" y="1005"/>
      <point x="-6" y="1005" type="curve"/>
      <point x="-4" y="1007"/>
      <point x="-2" y="1008"/>
      <point x="0" y="1008" type="curve"/>
      <point x="2" y="1008"/>
      <point x="5" y="1007"/>
      <point x="8" y="1005" type="curve"/>
      <point x="8" y="1005"/>
      <point x="76" y="952"/>
      <point x="78" y="952" type="curve"/>
      <point x="89" y="952"/>
      <point x="140" y="1027"/>
    </contour>
  </outline>
</glyph>
<glyph name="absSmallHighUprightRectangularZero" format="2">
  <unicode hex="06E0"/>
  <anchor x="120" y="930" name="_diaA"/>
  <outline>
    <contour>
      <point x="228" y="1147" type="curve" smooth="yes"/>
      <point x="228" y="1222"/>
      <point x="200" y="1311"/>
      <point x="121" y="1311" type="curve" smooth="yes"/>
      <point x="41" y="1311"/>
      <point x="12" y="1222"/>
      <point x="12" y="1147" type="curve" smooth="yes"/>
      <point x="12" y="1072"/>
      <point x="41" y="983"/>
      <point x="121" y="983" type="curve" smooth="yes"/>
      <point x="200" y="983"/>
      <point x="228" y="1072"/>
    </contour>
    <contour>
      <point x="153" y="1147" type="curve" smooth="yes"/>
      <point x="153" y="1081"/>
      <point x="147" y="1000"/>
      <point x="121" y="1000" type="curve" smooth="yes"/>
      <point x="93" y="1000"/>
      <point x="86" y="1081"/>
      <point x="86" y="1147" type="curve" smooth="yes"/>
      <point x="86" y="1213"/>
      <point x="93" y="1294"/>
      <point x="121" y="1294" type="curve" smooth="yes"/>
      <point x="147" y="1294"/>
      <point x="153" y="1213"/>
    </contour>
  </outline>
</glyph>
<glyph name="absSmallHighDotlessHeadOfKhah" format="2">
  <unicode hex="06E1"/>
  <anchor x="-15" y="915" name="_diaA"/>
  <anchor x="-15" y="1270" name="diaA"/>
  <outline>
    <contour>
      <point x="203" y="1107" type="curve" smooth="yes"/>
      <point x="203" y="1114"/>
      <point x="164" y="1161"/>
      <point x="153" y="1163" type="curve" smooth="yes"/>
      <point x="64" y="1177"/>
      <point x="14" y="1249"/>
      <point x="-58" y="1249" type="curve" smooth="yes"/>
      <point x="-134" y="1249"/>
      <point x="-165" y="1131"/>
      <point x="-165" y="1124" type="curve" smooth="yes"/>
      <point x="-165" y="1116"/>
      <point x="-162" y="1112"/>
      <point x="-156" y="1112" type="curve" smooth="yes"/>
      <point x="-152" y="1112"/>
      <point x="-101" y="1158"/>
      <point x="-68" y="1158" type="curve" smooth="yes"/>
      <point x="-9" y="1158"/>
      <point x="22" y="1119"/>
      <point x="75" y="1105" type="curve"/>
      <point x="24" y="1071"/>
      <point x="-65" y="1057"/>
      <point x="-147" y="1048" type="curve" smooth="yes"/>
      <point x="-192" y="1043"/>
      <point x="-203" y="1034"/>
      <point x="-203" y="1025" type="curve" smooth="yes"/>
      <point x="-203" y="1007"/>
      <point x="-141" y="981"/>
      <point x="-77" y="981" type="curve" smooth="yes" name="hr01"/>
      <point x="-31" y="981"/>
      <point x="28" y="988"/>
      <point x="84" y="1019" type="curve" smooth="yes"/>
      <point x="129" y="1044"/>
      <point x="203" y="1096"/>
    </contour>
  </outline>
</glyph>
<glyph name="absSmallLowSeen" format="2">
  <unicode hex="06E3"/>
  <anchor x="0" y="-150" name="_diaB"/>
  <anchor x="100" y="-150" name="_dia2B"/>
  <anchor x="0" y="-150" name="_diaBtailDown"/>
  <outline>
    <contour>
      <point x="309" y="-234" type="curve" smooth="yes"/>
      <point x="309" y="-188"/>
      <point x="265" y="-133"/>
      <point x="252" y="-133" type="curve" smooth="yes"/>
      <point x="246" y="-133"/>
      <point x="233" y="-221"/>
      <point x="233" y="-223" type="curve"/>
      <point x="233" y="-227"/>
      <point x="273" y="-248"/>
      <point x="273" y="-268" type="curve" smooth="yes"/>
      <point x="273" y="-272"/>
      <point x="256" y="-279"/>
      <point x="241" y="-279" type="curve" smooth="yes"/>
      <point x="203" y="-279"/>
      <point x="174" y="-248"/>
      <point x="169" y="-208" type="curve" smooth="yes"/>
      <point x="168" y="-201"/>
      <point x="159" y="-195"/>
      <point x="159" y="-195" type="curve"/>
      <point x="155" y="-195"/>
      <point x="149" y="-200"/>
      <point x="149" y="-206" type="curve"/>
      <point x="143" y="-267"/>
      <point x="103" y="-319"/>
      <point x="52" y="-319" type="curve"/>
      <point x="47" y="-304"/>
      <point x="32" y="-269"/>
      <point x="18" y="-261" type="curve"/>
      <point x="14" y="-261"/>
      <point x="-24" y="-316"/>
      <point x="-24" y="-343" type="curve" smooth="yes"/>
      <point x="-24" y="-351"/>
      <point x="23" y="-376"/>
      <point x="23" y="-437" type="curve" smooth="yes"/>
      <point x="23" y="-488"/>
      <point x="1" y="-506"/>
      <point x="-22" y="-522" type="curve" smooth="yes"/>
      <point x="-67" y="-554"/>
      <point x="-120" y="-561"/>
      <point x="-178" y="-561" type="curve" smooth="yes"/>
      <point x="-221" y="-561"/>
      <point x="-306" y="-541"/>
      <point x="-306" y="-475" type="curve" smooth="yes"/>
      <point x="-306" y="-416"/>
      <point x="-272" y="-382"/>
      <point x="-272" y="-374" type="curve"/>
      <point x="-272" y="-372"/>
      <point x="-282" y="-360"/>
      <point x="-288" y="-360" type="curve" smooth="yes"/>
      <point x="-296" y="-360"/>
      <point x="-351" y="-448"/>
      <point x="-351" y="-515" type="curve" smooth="yes"/>
      <point x="-351" y="-634"/>
      <point x="-257" y="-655"/>
      <point x="-197" y="-655" type="curve" smooth="yes"/>
      <point x="-87" y="-655"/>
      <point x="24" y="-619"/>
      <point x="51" y="-473" type="curve" smooth="yes"/>
      <point x="55" y="-454"/>
      <point x="57" y="-440"/>
      <point x="60" y="-404" type="curve"/>
      <point x="107" y="-404"/>
      <point x="136" y="-357"/>
      <point x="150" y="-330" type="curve"/>
      <point x="169" y="-350"/>
      <point x="201" y="-371"/>
      <point x="224" y="-371" type="curve" smooth="yes" name="hr01"/>
      <point x="269" y="-371"/>
      <point x="309" y="-323"/>
    </contour>
  </outline>
</glyph>
<glyph name="absSmallHighMadda" format="2">
  <unicode hex="06E4"/>
  <anchor x="39" y="1116" name="_diaA"/>
  <outline>
    <contour>
      <point x="226" y="1198" type="curve" smooth="yes"/>
      <point x="226" y="1206"/>
      <point x="226" y="1217"/>
      <point x="213" y="1217" type="curve" smooth="yes"/>
      <point x="203" y="1217"/>
      <point x="140" y="1196"/>
      <point x="26" y="1196" type="curve" smooth="yes"/>
      <point x="-15" y="1196"/>
      <point x="-56" y="1206"/>
      <point x="-82" y="1206" type="curve" smooth="yes"/>
      <point x="-132" y="1206"/>
      <point x="-145" y="1179"/>
      <point x="-145" y="1147" type="curve" smooth="yes"/>
      <point x="-145" y="1124"/>
      <point x="-124" y="1080"/>
      <point x="-98" y="1080" type="curve" smooth="yes"/>
      <point x="-78" y="1080"/>
      <point x="-82" y="1125"/>
      <point x="-70" y="1125" type="curve"/>
      <point x="-70" y="1125"/>
      <point x="-26" y="1121"/>
      <point x="19" y="1121" type="curve" smooth="yes"/>
      <point x="85" y="1121"/>
      <point x="226" y="1171"/>
    </contour>
  </outline>
</glyph>
<glyph name="absSmallHighNoon" format="2">
  <unicode hex="06E8"/>
  <anchor x="-3" y="985" name="_diaA"/>
  <outline>
    <contour>
      <point x="36" y="1500" type="curve" smooth="yes"/>
      <point x="36" y="1505"/>
      <point x="-13" y="1544"/>
      <point x="-21" y="1544" type="curve" smooth="yes"/>
      <point x="-26" y="1544"/>
      <point x="-61" y="1487"/>
      <point x="-61" y="1482" type="curve" smooth="yes"/>
      <point x="-61" y="1473"/>
      <point x="-9" y="1438"/>
      <point x="-4" y="1438" type="curve" smooth="yes"/>
      <point x="3" y="1438"/>
      <point x="36" y="1495"/>
    </contour>
    <contour>
      <point x="188" y="1238" type="curve" smooth="yes"/>
      <point x="188" y="1295"/>
      <point x="158" y="1401"/>
      <point x="121" y="1461" type="curve"/>
      <point x="117" y="1457"/>
      <point x="89" y="1401"/>
      <point x="89" y="1376" type="curve" smooth="yes"/>
      <point x="89" y="1363"/>
      <point x="98" y="1349"/>
      <point x="118" y="1322" type="curve" smooth="yes"/>
      <point x="131" y="1304"/>
      <point x="150" y="1252"/>
      <point x="150" y="1219" type="curve" smooth="yes"/>
      <point x="150" y="1209"/>
      <point x="148" y="1191"/>
      <point x="132" y="1176" type="curve"/>
      <point x="101" y="1150"/>
      <point x="42" y="1129"/>
      <point x="-18" y="1129" type="curve" smooth="yes"/>
      <point x="-70" y="1129"/>
      <point x="-137" y="1147"/>
      <point x="-137" y="1223" type="curve" smooth="yes"/>
      <point x="-137" y="1270"/>
      <point x="-102" y="1351"/>
      <point x="-102" y="1355" type="curve" smooth="yes"/>
      <point x="-102" y="1359"/>
      <point x="-113" y="1362"/>
      <point x="-115" y="1362" type="curve"/>
      <point x="-119" y="1362"/>
      <point x="-182" y="1244"/>
      <point x="-182" y="1170" type="curve" smooth="yes"/>
      <point x="-182" y="1064"/>
      <point x="-94" y="1040"/>
      <point x="-27" y="1040" type="curve" smooth="yes"/>
      <point x="72" y="1040"/>
      <point x="155" y="1101"/>
      <point x="180" y="1168" type="curve" smooth="yes"/>
      <point x="188" y="1191"/>
      <point x="188" y="1211"/>
    </contour>
  </outline>
</glyph>
<glyph name="absEmptyCentreLowStop" format="2">
  <unicode hex="06EA"/>
  <anchor x="0" y="-200" name="_diaB"/>
  <anchor x="0" y="-150" name="_dia2B"/>
  <anchor x="0" y="-200" name="_diaBtailUp"/>
  <anchor x="0" y="-200" name="_diaBtailDown"/>
  <outline>
    <contour>
      <point x="133" y="-352" type="line"/>
      <point x="0" y="-220" type="line"/>
      <point x="-133" y="-352" type="line"/>
      <point x="0" y="-485" type="line"/>
    </contour>
    <contour>
      <point x="74" y="-352" type="line"/>
      <point x="0" y="-426" type="line"/>
      <point x="-74" y="-352" type="line"/>
      <point x="0" y="-278" type="line"/>
    </contour>
  </outline>
</glyph>
<glyph name="absRoundedHighStopFilledCentre" format="2">
  <unicode hex="06EC"/>
  <anchor x="-15" y="915" name="_diaA"/>
  <outline>
    <contour>
      <point x="122" y="1106" type="curve" smooth="yes"/>
      <point x="122" y="1172"/>
      <point x="68" y="1226"/>
      <point x="0" y="1226" type="curve" smooth="yes"/>
      <point x="-68" y="1226"/>
      <point x="-122" y="1172"/>
      <point x="-122" y="1106" type="curve" smooth="yes"/>
      <point x="-122" y="1038"/>
      <point x="-68" y="984"/>
      <point x="0" y="984" type="curve" smooth="yes"/>
      <point x="68" y="984"/>
      <point x="122" y="1038"/>
    </contour>
  </outline>
</glyph>
<glyph name="absEasternSix" format="2">
  <unicode hex="06F6"/>
  <advance width="830"/>
  <outline>
    <contour>
      <point x="697" y="547" type="line"/>
      <point x="681" y="566" type="line"/>
      <point x="629" y="533"/>
      <point x="518" y="450"/>
      <point x="459" y="450" type="curve" smooth="yes"/>
      <point x="418" y="450"/>
      <point x="277" y="489"/>
      <point x="277" y="522" type="curve" smooth="yes"/>
      <point x="277" y="550"/>
      <point x="325" y="582"/>
      <point x="370" y="608" type="curve" smooth="yes"/>
      <point x="417" y="635"/>
      <point x="482" y="657"/>
      <point x="525" y="657" type="curve" smooth="yes"/>
      <point x="545" y="657"/>
      <point x="609" y="657"/>
      <point x="619" y="661" type="curve"/>
      <point x="623" y="661"/>
      <point x="635" y="666"/>
      <point x="635" y="679" type="curve" smooth="yes"/>
      <point x="635" y="699"/>
      <point x="509" y="781"/>
      <point x="412" y="781" type="curve" smooth="yes"/>
      <point x="326" y="781"/>
      <point x="260" y="691"/>
      <point x="224" y="626" type="curve" smooth="yes"/>
      <point x="184" y="554"/>
      <point x="160" y="490"/>
      <point x="160" y="429" type="curve" smooth="yes"/>
      <point x="160" y="335"/>
      <point x="257" y="286"/>
      <point x="337" y="274" type="curve"/>
      <point x="281" y="202"/>
      <point x="150" y="-59"/>
      <point x="150" y="-113" type="curve" smooth="yes"/>
      <point x="150" y="-125"/>
      <point x="158" y="-133"/>
      <point x="174" y="-133" type="curve" smooth="yes"/>
      <point x="201" y="-133"/>
      <point x="239" y="-131"/>
      <point x="249" y="-109" type="curve" smooth="yes"/>
      <point x="313" y="31"/>
      <point x="388" y="130"/>
      <point x="482" y="240" type="curve" smooth="yes"/>
      <point x="521" y="287"/>
      <point x="613" y="360"/>
      <point x="643" y="396" type="curve" smooth="yes"/>
      <point x="652" y="407"/>
      <point x="688" y="527"/>
      <point x="697" y="547" type="curve"/>
    </contour>
  </outline>
</glyph>
<glyph name="absTurnedDammaBelow" format="2">
  <unicode hex="08E3"/>
  <anchor x="0" y="-407" name="_diaB"/>
  <anchor x="-84" y="-943" name="diaB"/>
  <anchor x="0" y="-407" name="_diaBtailUp"/>
  <anchor x="0" y="-407" name="_diaBtailDown"/>
  <outline>
    <contour>
      <point x="-84" y="-863" type="curve" smooth="yes"/>
      <point x="7" y="-863"/>
      <point x="75" y="-742"/>
      <point x="75" y="-684" type="curve" smooth="yes"/>
      <point x="75" y="-609"/>
      <point x="-101" y="-499"/>
      <point x="-120" y="-499" type="curve" smooth="yes"/>
      <point x="-129" y="-499"/>
      <point x="-172" y="-574"/>
      <point x="-172" y="-592" type="curve" smooth="yes"/>
      <point x="-172" y="-596"/>
      <point x="-170" y="-599"/>
      <point x="-167" y="-601" type="curve" smooth="yes"/>
      <point x="-143" y="-616"/>
      <point x="-5" y="-710"/>
      <point x="-5" y="-752" type="curve" smooth="yes"/>
      <point x="-5" y="-760"/>
      <point x="-8" y="-775"/>
      <point x="-25" y="-775" type="curve" smooth="yes"/>
      <point x="-48" y="-775"/>
      <point x="-67" y="-746"/>
      <point x="-67" y="-721" type="curve" smooth="yes" name="hr01"/>
      <point x="-67" y="-659"/>
      <point x="22" y="-565"/>
      <point x="210" y="-495" type="curve"/>
      <point x="187" y="-477"/>
      <point x="118" y="-453"/>
      <point x="79" y="-453" type="curve" smooth="yes"/>
      <point x="1" y="-453"/>
      <point x="-151" y="-641"/>
      <point x="-151" y="-761" type="curve" smooth="yes"/>
      <point x="-151" y="-826"/>
      <point x="-121" y="-863"/>
    </contour>
  </outline>
</glyph>
<glyph name="absCurlyDammatan" format="2">
  <unicode hex="08E8"/>
  <anchor x="150" y="1020" name="_diaA"/>
  <anchor x="99" y="1476" name="diaA"/>
  <outline>
    <component base="absCurlyDamma"/>
    <contour>
      <point x="135" y="1626" type="curve" smooth="yes"/>
      <point x="61" y="1626"/>
      <point x="-92" y="1495"/>
      <point x="-92" y="1444" type="curve" smooth="yes"/>
      <point x="-92" y="1420"/>
      <point x="-67" y="1380"/>
      <point x="-30" y="1380" type="curve" smooth="yes"/>
      <point x="-13" y="1380"/>
      <point x="-10" y="1395"/>
      <point x="-10" y="1403" type="curve" smooth="yes"/>
      <point x="-10" y="1443"/>
      <point x="-165" y="1546"/>
      <point x="-191" y="1563" type="curve" smooth="yes"/>
      <point x="-194" y="1565"/>
      <point x="-197" y="1569"/>
      <point x="-197" y="1573" type="curve" smooth="yes"/>
      <point x="-197" y="1593"/>
      <point x="-154" y="1664"/>
      <point x="-145" y="1664" type="curve" smooth="yes"/>
      <point x="-124" y="1664"/>
      <point x="70" y="1546"/>
      <point x="70" y="1470" type="curve" smooth="yes"/>
      <point x="70" y="1413"/>
      <point x="5" y="1292"/>
      <point x="-89" y="1292" type="curve" smooth="yes"/>
      <point x="-146" y="1292"/>
      <point x="-176" y="1339"/>
      <point x="-176" y="1404" type="curve" smooth="yes"/>
      <point x="-176" y="1534"/>
      <point x="34" y="1734"/>
      <point x="131" y="1734" type="curve" smooth="yes"/>
      <point x="209" y="1734"/>
      <point x="235" y="1529"/>
      <point x="235" y="1487" type="curve" smooth="yes"/>
      <point x="235" y="1483"/>
      <point x="230" y="1475"/>
      <point x="217" y="1475" type="curve" smooth="yes"/>
      <point x="208" y="1475"/>
      <point x="199" y="1477"/>
      <point x="198" y="1483" type="curve" smooth="yes" name="hr01"/>
      <point x="193" y="1525"/>
      <point x="162" y="1626"/>
    </contour>
  </outline>
</glyph>
<glyph name="absTone1DotBelow" format="2">
  <unicode hex="08ED"/>
  <anchor x="189" y="-819" name="diaB"/>
  <anchor x="127" y="-508" name="_diaB"/>
  <anchor x="127" y="-508" name="_diaBtailUp"/>
  <anchor x="127" y="-508" name="_diaBtailDown"/>
  <outline>
    <contour>
      <point x="252" y="-645" type="curve" smooth="yes"/>
      <point x="252" y="-636"/>
      <point x="157" y="-563"/>
      <point x="144" y="-563" type="curve" smooth="yes"/>
      <point x="135" y="-563"/>
      <point x="66" y="-669"/>
      <point x="66" y="-681" type="curve" smooth="yes"/>
      <point x="66" y="-692"/>
      <point x="165" y="-761"/>
      <point x="173" y="-761" type="curve" smooth="yes"/>
      <point x="186" y="-761"/>
      <point x="252" y="-657"/>
    </contour>
  </outline>
</glyph>
<glyph name="absFathaRing" format="2">
  <unicode hex="08F4"/>
  <anchor x="132" y="924" name="_diaA"/>
  <anchor x="74" y="1376" name="diaA"/>
  <outline>
    <contour>
      <point x="339" y="1303" type="curve" smooth="yes"/>
      <point x="339" y="1310"/>
      <point x="334" y="1315"/>
      <point x="326" y="1315" type="curve" smooth="yes"/>
      <point x="317" y="1315"/>
      <point x="278" y="1297"/>
      <point x="234" y="1271" type="curve"/>
      <point x="214" y="1300"/>
      <point x="179" y="1324"/>
      <point x="147" y="1324" type="curve" smooth="yes"/>
      <point x="54" y="1324"/>
      <point x="-11" y="1241"/>
      <point x="-11" y="1156" type="curve" smooth="yes"/>
      <point x="-11" y="1151"/>
      <point x="-11" y="1142"/>
      <point x="-11" y="1139" type="curve"/>
      <point x="-44" y="1121"/>
      <point x="-45" y="1120"/>
      <point x="-49" y="1116" type="curve" smooth="yes"/>
      <point x="-59" y="1105"/>
      <point x="-93" y="1032"/>
      <point x="-93" y="1019" type="curve" smooth="yes"/>
      <point x="-93" y="1011"/>
      <point x="-90" y="1005"/>
      <point x="-80" y="1005" type="curve" smooth="yes"/>
      <point x="-70" y="1005"/>
      <point x="-66" y="1012"/>
      <point x="-31" y="1030" type="curve"/>
      <point x="8" y="1053" type="line"/>
      <point x="27" y="1019"/>
      <point x="54" y="997"/>
      <point x="104" y="997" type="curve" smooth="yes"/>
      <point x="198" y="997"/>
      <point x="269" y="1076"/>
      <point x="269" y="1172" type="curve" smooth="yes"/>
      <point x="269" y="1179"/>
      <point x="269" y="1184"/>
      <point x="268" y="1194" type="curve"/>
      <point x="269" y="1195"/>
      <point x="293" y="1208"/>
      <point x="295" y="1210" type="curve" smooth="yes"/>
      <point x="310" y="1223"/>
      <point x="339" y="1296"/>
    </contour>
    <contour>
      <point x="143" y="1222" type="curve"/>
      <point x="51" y="1172" type="line"/>
      <point x="50" y="1174"/>
      <point x="50" y="1181"/>
      <point x="50" y="1184" type="curve" smooth="yes"/>
      <point x="50" y="1207"/>
      <point x="74" y="1231"/>
      <point x="107" y="1231" type="curve" smooth="yes"/>
      <point x="117" y="1231"/>
      <point x="136" y="1226"/>
    </contour>
    <contour>
      <point x="211" y="1144" type="curve" smooth="yes"/>
      <point x="211" y="1118"/>
      <point x="170" y="1091"/>
      <point x="130" y="1091" type="curve" smooth="yes"/>
      <point x="122" y="1091"/>
      <point x="103" y="1094"/>
      <point x="98" y="1100" type="curve"/>
      <point x="209" y="1160" type="line"/>
      <point x="211" y="1155"/>
      <point x="211" y="1151"/>
    </contour>
  </outline>
</glyph>
<glyph name="absShortVowelMark" format="2">
  <unicode hex="08FF"/>
  <anchor x="160" y="912" name="_diaA"/>
  <anchor x="160" y="1341" name="diaA"/>
  <outline>
    <contour>
      <point x="319" y="1127" type="curve" smooth="yes"/>
      <point x="319" y="1242"/>
      <point x="171" y="1295"/>
      <point x="49" y="1301" type="curve"/>
      <point x="15" y="1226" type="line"/>
      <point x="80" y="1219"/>
      <point x="194" y="1189"/>
      <point x="194" y="1106" type="curve" smooth="yes"/>
      <point x="194" y="1038"/>
      <point x="116" y="989"/>
      <point x="5" y="980" type="curve"/>
      <point x="11" y="941" type="line"/>
      <point x="202" y="945"/>
      <point x="319" y="1026"/>
    </contour>
  </outline>
</glyph>
<glyph name="leftToRightMark" format="2">
  <unicode hex="200E"/>
  <outline>
    <contour>
      <point x="100" y="1051" type="line"/>
      <point x="-70" y="1151" type="line"/>
      <point x="-70" y="951" type="line"/>
    </contour>
  </outline>
</glyph>
<glyph name="endash" format="2">
  <unicode hex="2013"/>
  <advance width="743"/>
  <outline>
    <contour>
      <point x="764" y="289" type="line"/>
      <point x="764" y="401" type="line"/>
      <point x="-33" y="401" type="line"/>
      <point x="-33" y="289" type="line"/>
    </contour>
  </outline>
</glyph>
<glyph name="quotesinglbase" format="2">
  <unicode hex="201A"/>
  <advance width="516"/>
  <outline>
    <contour>
      <point x="401" y="43" type="line" smooth="yes"/>
      <point x="401" y="168"/>
      <point x="329" y="231"/>
      <point x="239" y="231" type="curve" smooth="yes"/>
      <point x="171" y="231"/>
      <point x="115" y="176"/>
      <point x="115" y="107" type="curve" smooth="yes"/>
      <point x="115" y="38"/>
      <point x="171" y="-10"/>
      <point x="239" y="-10" type="curve" smooth="yes"/>
      <point x="271" y="-10"/>
      <point x="281" y="7"/>
      <point x="292" y="7" type="curve" smooth="yes"/>
      <point x="306" y="7"/>
      <point x="309" y="-9"/>
      <point x="309" y="-20" type="curve" smooth="yes" name="hr01"/>
      <point x="309" y="-74"/>
      <point x="275" y="-184"/>
      <point x="143" y="-238" type="curve"/>
      <point x="143" y="-271" type="line"/>
      <point x="297" y="-226"/>
      <point x="401" y="-113"/>
      <point x="401" y="43" type="curve" smooth="yes"/>
    </contour>
  </outline>
</glyph>
<glyph name="quotedblright" format="2">
  <unicode hex="201D"/>
  <advance width="774"/>
  <outline>
    <contour>
      <point x="712" y="856" type="line" smooth="yes"/>
      <point x="712" y="981"/>
      <point x="639" y="1044"/>
      <point x="550" y="1044" type="curve" smooth="yes"/>
      <point x="482" y="1044"/>
      <point x="425" y="988"/>
      <point x="425" y="920" type="curve" smooth="yes"/>
      <point x="425" y="852"/>
      <point x="475" y="799"/>
      <point x="535" y="799" type="curve" smooth="yes"/>
      <point x="580" y="799"/>
      <point x="591" y="820"/>
      <point x="603" y="820" type="curve" smooth="yes"/>
      <point x="617" y="820"/>
      <point x="619" y="804"/>
      <point x="619" y="794" type="curve" smooth="yes" name="hr01"/>
      <point x="619" y="738"/>
      <point x="582" y="631"/>
      <point x="450" y="578" type="curve"/>
      <point x="450" y="543" type="line"/>
      <point x="612" y="590"/>
      <point x="712" y="700"/>
      <point x="712" y="856" type="curve" smooth="yes"/>
    </contour>
    <contour>
      <point x="349" y="856" type="line" smooth="yes"/>
      <point x="349" y="981"/>
      <point x="276" y="1044"/>
      <point x="187" y="1044" type="curve" smooth="yes"/>
      <point x="119" y="1044"/>
      <point x="62" y="988"/>
      <point x="62" y="920" type="curve" smooth="yes"/>
      <point x="62" y="852"/>
      <point x="113" y="799"/>
      <point x="173" y="799" type="curve" smooth="yes"/>
      <point x="217" y="799"/>
      <point x="228" y="820"/>
      <point x="241" y="820" type="curve" smooth="yes"/>
      <point x="254" y="820"/>
      <point x="257" y="804"/>
      <point x="257" y="794" type="curve" smooth="yes" name="hr02"/>
      <point x="257" y="738"/>
      <point x="220" y="631"/>
      <point x="88" y="578" type="curve"/>
      <point x="88" y="543" type="line"/>
      <point x="250" y="590"/>
      <point x="349" y="700"/>
      <point x="349" y="856" type="curve" smooth="yes"/>
    </contour>
  </outline>
</glyph>
<glyph name="daggerdbl" format="2">
  <unicode hex="2021"/>
  <advance width="787"/>
  <outline>
    <contour>
      <point x="716" y="15" type="line" smooth="yes"/>
      <point x="716" y="79"/>
      <point x="654" y="118"/>
      <point x="614" y="118" type="curve" smooth="yes"/>
      <point x="516" y="118"/>
      <point x="517" y="33"/>
      <point x="411" y="33" type="curve" name="hr01"/>
      <point x="411" y="120"/>
      <point x="500" y="177"/>
      <point x="500" y="177" type="curve"/>
      <point x="434" y="228"/>
      <point x="416" y="312"/>
      <point x="416" y="350" type="curve" smooth="yes"/>
      <point x="416" y="390"/>
      <point x="434" y="474"/>
      <point x="500" y="526" type="curve"/>
      <point x="500" y="526"/>
      <point x="411" y="578"/>
      <point x="411" y="669" type="curve"/>
      <point x="517" y="669"/>
      <point x="516" y="584"/>
      <point x="614" y="584" type="curve" smooth="yes" name="hr02"/>
      <point x="654" y="584"/>
      <point x="716" y="622"/>
      <point x="716" y="686" type="curve" smooth="yes"/>
      <point x="716" y="750"/>
      <point x="659" y="788"/>
      <point x="614" y="788" type="curve" smooth="yes" name="hr03"/>
      <point x="516" y="788"/>
      <point x="519" y="704"/>
      <point x="411" y="704" type="curve" name="hr04"/>
      <point x="411" y="809"/>
      <point x="496" y="822"/>
      <point x="496" y="920" type="curve" smooth="yes" name="hr05"/>
      <point x="496" y="960"/>
      <point x="458" y="1022"/>
      <point x="394" y="1022" type="curve" smooth="yes"/>
      <point x="330" y="1022"/>
      <point x="291" y="965"/>
      <point x="291" y="920" type="curve" smooth="yes" name="hr06"/>
      <point x="291" y="822"/>
      <point x="376" y="811"/>
      <point x="376" y="704" type="curve" name="hr07"/>
      <point x="269" y="704"/>
      <point x="272" y="788"/>
      <point x="174" y="788" type="curve" smooth="yes" name="hr08"/>
      <point x="128" y="788"/>
      <point x="71" y="750"/>
      <point x="71" y="686" type="curve" smooth="yes"/>
      <point x="71" y="622"/>
      <point x="133" y="584"/>
      <point x="174" y="584" type="curve" smooth="yes" name="hr09"/>
      <point x="272" y="584"/>
      <point x="271" y="669"/>
      <point x="376" y="669" type="curve" name="hr10"/>
      <point x="376" y="578"/>
      <point x="287" y="524"/>
      <point x="287" y="524" type="curve"/>
      <point x="353" y="472"/>
      <point x="371" y="390"/>
      <point x="371" y="350" type="curve" smooth="yes"/>
      <point x="371" y="312"/>
      <point x="353" y="227"/>
      <point x="287" y="176" type="curve"/>
      <point x="287" y="176"/>
      <point x="376" y="122"/>
      <point x="376" y="33" type="curve"/>
      <point x="271" y="33"/>
      <point x="272" y="118"/>
      <point x="174" y="118" type="curve" smooth="yes" name="hr11"/>
      <point x="133" y="118"/>
      <point x="71" y="79"/>
      <point x="71" y="15" type="curve" smooth="yes"/>
      <point x="71" y="-49"/>
      <point x="128" y="-88"/>
      <point x="174" y="-88" type="curve" smooth="yes" name="hr12"/>
      <point x="272" y="-88"/>
      <point x="269" y="-3"/>
      <point x="376" y="-3" type="curve" name="hr13"/>
      <point x="376" y="-109"/>
      <point x="291" y="-120"/>
      <point x="291" y="-218" type="curve" smooth="yes" name="hr14"/>
      <point x="291" y="-258"/>
      <point x="330" y="-321"/>
      <point x="394" y="-321" type="curve" smooth="yes"/>
      <point x="458" y="-321"/>
      <point x="496" y="-265"/>
      <point x="496" y="-218" type="curve" smooth="yes" name="hr15"/>
      <point x="496" y="-120"/>
      <point x="411" y="-110"/>
      <point x="411" y="-3" type="curve" name="hr16"/>
      <point x="519" y="-3"/>
      <point x="516" y="-88"/>
      <point x="614" y="-88" type="curve" smooth="yes" name="hr17"/>
      <point x="659" y="-88"/>
      <point x="716" y="-49"/>
      <point x="716" y="15" type="curve" smooth="yes"/>
    </contour>
  </outline>
</glyph>
<glyph name="guilsinglleft" format="2">
  <unicode hex="2039"/>
  <advance width="519"/>
  <outline>
    <contour>
      <point x="453" y="-6" type="line"/>
      <point x="269" y="350" type="line"/>
      <point x="453" y="705" type="line"/>
      <point x="380" y="705" type="line"/>
      <point x="63" y="350" type="line"/>
      <point x="380" y="-6" type="line"/>
    </contour>
  </outline>
</glyph>
<glyph name="trademark" format="2">
  <unicode hex="2122"/>
  <advance width="1503"/>
  <outline>
    <contour>
      <point x="1477" y="414" type="line"/>
      <point x="1477" y="464" type="line"/>
      <point x="1405" y="464"/>
      <point x="1403" y="489"/>
      <point x="1403" y="541" type="curve" smooth="yes"/>
      <point x="1403" y="893" type="line" smooth="yes"/>
      <point x="1403" y="946"/>
      <point x="1405" y="967"/>
      <point x="1477" y="967" type="curve"/>
      <point x="1477" y="1022" type="line"/>
      <point x="1228" y="1022" type="line"/>
      <point x="1070" y="684" type="line"/>
      <point x="905" y="1022" type="line"/>
      <point x="611" y="1022" type="line"/>
      <point x="611" y="967" type="line"/>
      <point x="683" y="967"/>
      <point x="707" y="951"/>
      <point x="707" y="899" type="curve" smooth="yes"/>
      <point x="707" y="541" type="line" smooth="yes"/>
      <point x="707" y="487"/>
      <point x="691" y="464"/>
      <point x="611" y="464" type="curve"/>
      <point x="611" y="414" type="line"/>
      <point x="887" y="414" type="line"/>
      <point x="887" y="464" type="line"/>
      <point x="801" y="464"/>
      <point x="788" y="475"/>
      <point x="788" y="541" type="curve" smooth="yes"/>
      <point x="788" y="863" type="line"/>
      <point x="1002" y="414" type="line"/>
      <point x="1044" y="414" type="line"/>
      <point x="1228" y="821" type="line"/>
      <point x="1228" y="539" type="line" smooth="yes"/>
      <point x="1228" y="485"/>
      <point x="1216" y="464"/>
      <point x="1138" y="464" type="curve"/>
      <point x="1138" y="414" type="line"/>
    </contour>
    <contour>
      <point x="592" y="804" type="line"/>
      <point x="580" y="1022" type="line"/>
      <point x="35" y="1022" type="line"/>
      <point x="25" y="804" type="line"/>
      <point x="77" y="804" type="line"/>
      <point x="88" y="900"/>
      <point x="113" y="949"/>
      <point x="163" y="949" type="curve" smooth="yes"/>
      <point x="218" y="949" type="line"/>
      <point x="218" y="541" type="line" smooth="yes"/>
      <point x="218" y="484"/>
      <point x="203" y="464"/>
      <point x="142" y="464" type="curve"/>
      <point x="142" y="414" type="line"/>
      <point x="475" y="414" type="line"/>
      <point x="475" y="464" type="line"/>
      <point x="407" y="464"/>
      <point x="393" y="484"/>
      <point x="393" y="541" type="curve" smooth="yes"/>
      <point x="393" y="949" type="line"/>
      <point x="469" y="949"/>
      <point x="525" y="905"/>
      <point x="536" y="804" type="curve"/>
    </contour>
  </outline>
</glyph>
<glyph name="minus" format="2">
  <unicode hex="2212"/>
  <advance width="915"/>
  <outline>
    <contour>
      <point x="872" y="371" type="line"/>
      <point x="872" y="455" type="line"/>
      <point x="37" y="455" type="line"/>
      <point x="37" y="371" type="line"/>
    </contour>
  </outline>
</glyph>
<glyph name="absLigatureAllah" format="2">
  <unicode hex="FDF2"/>
  <advance width="1518"/>
  <outline>
    <contour>
      <point x="971" y="735" type="line" smooth="yes"/>
      <point x="971" y="645"/>
      <point x="1044" y="404"/>
      <point x="1044" y="328" type="curve" smooth="yes" name="hr01"/>
      <point x="1044" y="242"/>
      <point x="997" y="200"/>
      <point x="934" y="200" type="curve" smooth="yes"/>
      <point x="873" y="200"/>
      <point x="823" y="261"/>
      <point x="813" y="396" type="curve" smooth="yes"/>
      <point x="808" y="458"/>
      <point x="778" y="662"/>
      <point x="775" y="733" type="curve" smooth="yes" name="hr02"/>
      <point x="772" y="795"/>
      <point x="766" y="807"/>
      <point x="760" y="807" type="curve" smooth="yes"/>
      <point x="731" y="807"/>
      <point x="661" y="702"/>
      <point x="661" y="655" type="curve" smooth="yes"/>
      <point x="661" y="609"/>
      <point x="692" y="441"/>
      <point x="692" y="353" type="curve" smooth="yes" name="hr03"/>
      <point x="692" y="246"/>
      <point x="643" y="200"/>
      <point x="579" y="200" type="curve" smooth="yes"/>
      <point x="536" y="200"/>
      <point x="503" y="222"/>
      <point x="492" y="278" type="curve" smooth="yes"/>
      <point x="488" y="298"/>
      <point x="464" y="430"/>
      <point x="444" y="549" type="curve" smooth="yes"/>
      <point x="431" y="627"/>
      <point x="417" y="711"/>
      <point x="415" y="711" type="curve" smooth="yes"/>
      <point x="394" y="711"/>
      <point x="326" y="631"/>
      <point x="326" y="584" type="curve" smooth="yes"/>
      <point x="326" y="563"/>
      <point x="325" y="554"/>
      <point x="327" y="533" type="curve"/>
      <point x="278" y="513"/>
      <point x="147" y="413"/>
      <point x="115" y="360" type="curve" smooth="yes"/>
      <point x="50" y="252"/>
      <point x="37" y="189"/>
      <point x="37" y="173" type="curve" smooth="yes"/>
      <point x="37" y="111"/>
      <point x="171" y="92"/>
      <point x="227" y="92" type="curve" smooth="yes" name="hr04"/>
      <point x="296" y="92"/>
      <point x="356" y="149"/>
      <point x="389" y="199" type="curve"/>
      <point x="414" y="61"/>
      <point x="486" y="0"/>
      <point x="560" y="0" type="curve" smooth="yes" name="hr05"/>
      <point x="642" y="0"/>
      <point x="705" y="54"/>
      <point x="739" y="195" type="curve"/>
      <point x="780" y="75"/>
      <point x="829" y="0"/>
      <point x="923" y="0" type="curve" smooth="yes"/>
      <point x="1009" y="0"/>
      <point x="1071" y="73"/>
      <point x="1114" y="214" type="curve" smooth="yes"/>
      <point x="1126" y="252"/>
      <point x="1139" y="305"/>
      <point x="1139" y="346" type="curve" smooth="yes"/>
      <point x="1139" y="463"/>
      <point x="1091" y="696"/>
      <point x="1091" y="771" type="curve" smooth="yes" name="hr06"/>
      <point x="1091" y="835"/>
      <point x="1091" y="890"/>
      <point x="1081" y="890" type="curve" smooth="yes"/>
      <point x="1047" y="890"/>
      <point x="971" y="791"/>
      <point x="971" y="735" type="curve" smooth="yes"/>
    </contour>
    <contour>
      <point x="1445" y="260" type="line"/>
      <point x="1381" y="842" type="line"/>
      <point x="1381" y="916" type="line" smooth="yes"/>
      <point x="1381" y="937"/>
      <point x="1375" y="968"/>
      <point x="1360" y="989" type="curve"/>
      <point x="1303" y="946"/>
      <point x="1248" y="818"/>
      <point x="1248" y="757" type="curve" smooth="yes"/>
      <point x="1248" y="701"/>
      <point x="1346" y="251"/>
      <point x="1346" y="139" type="curve" smooth="yes"/>
      <point x="1346" y="50"/>
      <point x="1331" y="18"/>
      <point x="1331" y="12" type="curve" smooth="yes"/>
      <point x="1331" y="2"/>
      <point x="1351" y="-6"/>
      <point x="1363" y="-6" type="curve" smooth="yes"/>
      <point x="1381" y="-6"/>
      <point x="1445" y="179"/>
      <point x="1445" y="260" type="curve"/>
    </contour>
    <contour>
      <point x="895" y="1050" type="line" smooth="yes"/>
      <point x="895" y="1111"/>
      <point x="876" y="1177"/>
      <point x="866" y="1177" type="curve" smooth="yes"/>
      <point x="860" y="1177"/>
      <point x="835" y="1166"/>
      <point x="833" y="1159" type="curve"/>
      <point x="833" y="1120"/>
      <point x="833" y="992"/>
      <point x="773" y="992" type="curve" smooth="yes"/>
      <point x="717" y="992"/>
      <point x="729" y="1116"/>
      <point x="713" y="1116" type="curve" smooth="yes"/>
      <point x="711" y="1116"/>
      <point x="683" y="1114"/>
      <point x="679" y="1110" type="curve" smooth="yes"/>
      <point x="674" y="1104"/>
      <point x="664" y="923"/>
      <point x="587" y="923" type="curve" smooth="yes" name="hr07"/>
      <point x="526" y="923"/>
      <point x="563" y="1064"/>
      <point x="547" y="1063" type="curve" smooth="yes"/>
      <point x="541" y="1063"/>
      <point x="518" y="1065"/>
      <point x="516" y="1061" type="curve" smooth="yes"/>
      <point x="494" y="1016"/>
      <point x="485" y="946"/>
      <point x="485" y="916" type="curve" smooth="yes"/>
      <point x="485" y="847"/>
      <point x="523" y="794"/>
      <point x="583" y="794" type="curve" smooth="yes"/>
      <point x="645" y="794"/>
      <point x="672" y="837"/>
      <point x="700" y="883" type="curve"/>
      <point x="719" y="870"/>
      <point x="739" y="861"/>
      <point x="767" y="861" type="curve" smooth="yes" name="hr08"/>
      <point x="853" y="861"/>
      <point x="895" y="945"/>
      <point x="895" y="1050" type="curve" smooth="yes"/>
    </contour>
    <contour>
      <point x="712" y="1211" type="line" smooth="yes"/>
      <point x="712" y="1233"/>
      <point x="689" y="1384"/>
      <point x="625" y="1463" type="curve" smooth="yes"/>
      <point x="595" y="1501"/>
      <point x="534" y="1528"/>
      <point x="498" y="1528" type="curve" smooth="yes"/>
      <point x="480" y="1528"/>
      <point x="480" y="1511"/>
      <point x="480" y="1498" type="curve" smooth="yes"/>
      <point x="480" y="1471"/>
      <point x="514" y="1381"/>
      <point x="520" y="1377" type="curve"/>
      <point x="565" y="1338"/>
      <point x="625" y="1271"/>
      <point x="656" y="1201" type="curve"/>
      <point x="662" y="1191"/>
      <point x="672" y="1147"/>
      <point x="677" y="1147" type="curve" smooth="yes"/>
      <point x="692" y="1147"/>
      <point x="712" y="1196"/>
      <point x="712" y="1211" type="curve" smooth="yes"/>
    </contour>
    <contour>
      <point x="369" y="302" type="line"/>
      <point x="355" y="292"/>
      <point x="338" y="286"/>
      <point x="308" y="286" type="curve" smooth="yes"/>
      <point x="244" y="286"/>
      <point x="180" y="296"/>
      <point x="180" y="305" type="curve" smooth="yes"/>
      <point x="180" y="313"/>
      <point x="245" y="399"/>
      <point x="344" y="439" type="curve"/>
      <point x="355" y="398"/>
      <point x="358" y="345"/>
      <point x="369" y="302" type="curve"/>
    </contour>
  </outline>
</glyph>
<glyph name="_bar" format="2">
  <anchor x="0" y="0" name="_through"/>
  <anchor x="0" y="0" name="_center"/>
  <outline>
    <contour>
      <point x="228" y="25" type="line"/>
      <point x="228" y="25"/>
      <point x="168" y="47"/>
      <point x="123" y="47" type="curve" smooth="yes"/>
      <point x="-112" y="47" type="line" smooth="yes"/>
      <point x="-151" y="47"/>
      <point x="-187" y="61"/>
      <point x="-187" y="61" type="curve" name="hr01"/>
      <point x="-219" y="-15" type="line"/>
      <point x="-219" y="-15"/>
      <point x="-180" y="-41"/>
      <point x="-132" y="-41" type="curve" smooth="yes" name="hr02"/>
      <point x="105" y="-41" type="line" smooth="yes"/>
      <point x="146" y="-41"/>
      <point x="196" y="-54"/>
      <point x="196" y="-54" type="curve" name="hr03"/>
    </contour>
  </outline>
</glyph>
<glyph name="_dot1" format="2">
  <anchor x="0" y="181" name="_below"/>
  <anchor x="0" y="-185" name="_above"/>
  <anchor x="0" y="0" name="_center"/>
  <outline>
    <contour>
      <point x="129" y="17" type="curve" smooth="yes"/>
      <point x="129" y="30"/>
      <point x="5" y="124"/>
      <point x="-11" y="124" type="curve" smooth="yes"/>
      <point x="-25" y="124"/>
      <point x="-115" y="-14"/>
      <point x="-115" y="-30" type="curve" smooth="yes"/>
      <point x="-115" y="-44"/>
      <point x="15" y="-136"/>
      <point x="24" y="-136" type="curve" smooth="yes"/>
      <point x="42" y="-136"/>
      <point x="129" y="2"/>
    </contour>
  </outline>
</glyph>
<glyph name="_dot1_smallV" format="2">
  <anchor x="0" y="551" name="_below"/>
  <anchor x="0" y="-197" name="_above"/>
  <outline>
    <contour>
      <point x="129" y="17" type="curve" smooth="yes"/>
      <point x="129" y="30"/>
      <point x="5" y="124"/>
      <point x="-11" y="124" type="curve" smooth="yes"/>
      <point x="-25" y="124"/>
      <point x="-115" y="-14"/>
      <point x="-115" y="-30" type="curve" smooth="yes"/>
      <point x="-115" y="-44"/>
      <point x="15" y="-136"/>
      <point x="24" y="-136" type="curve" smooth="yes"/>
      <point x="42" y="-136"/>
      <point x="129" y="2"/>
    </contour>
    <contour>
      <point x="252" y="501" type="curve" smooth="yes"/>
      <point x="252" y="508"/>
      <point x="252" y="512"/>
      <point x="242" y="512" type="curve" smooth="yes"/>
      <point x="227" y="512"/>
      <point x="201" y="512"/>
      <point x="190" y="512" type="curve" smooth="yes"/>
      <point x="172" y="512"/>
      <point x="18" y="366"/>
      <point x="0" y="366" type="curve" smooth="yes"/>
      <point x="-18" y="366"/>
      <point x="-172" y="512"/>
      <point x="-186" y="512" type="curve" smooth="yes"/>
      <point x="-203" y="512"/>
      <point x="-233" y="512"/>
      <point x="-244" y="512" type="curve" smooth="yes"/>
      <point x="-252" y="512"/>
      <point x="-254" y="506"/>
      <point x="-254" y="501" type="curve" smooth="yes"/>
      <point x="-254" y="495"/>
      <point x="-131" y="334"/>
      <point x="-70" y="266" type="curve" smooth="yes"/>
      <point x="-57" y="252"/>
      <point x="-47" y="237"/>
      <point x="-37" y="237" type="curve" smooth="yes"/>
      <point x="39" y="237" type="line" smooth="yes"/>
      <point x="49" y="237"/>
      <point x="57" y="252"/>
      <point x="70" y="264" type="curve"/>
      <point x="131" y="327"/>
      <point x="252" y="487"/>
    </contour>
  </outline>
</glyph>
<glyph name="_dot4" format="2">
  <anchor x="-31" y="276" name="_below"/>
  <anchor x="30" y="-276" name="_above"/>
  <anchor x="0" y="0" name="_center"/>
  <outline>
    <contour>
      <point x="84" y="263" type="curve" smooth="yes"/>
      <point x="75" y="263"/>
      <point x="-6" y="152"/>
      <point x="-6" y="152" type="curve"/>
      <point x="-13" y="144"/>
      <point x="-15" y="142"/>
      <point x="-19" y="142" type="curve" smooth="yes"/>
      <point x="-22" y="142"/>
      <point x="-26" y="144"/>
      <point x="-31" y="148" type="curve"/>
      <point x="-31" y="148"/>
      <point x="-135" y="240"/>
      <point x="-154" y="240" type="curve" smooth="yes"/>
      <point x="-164" y="240"/>
      <point x="-250" y="108"/>
      <point x="-250" y="93" type="curve" smooth="yes"/>
      <point x="-250" y="83"/>
      <point x="-128" y="-7"/>
      <point x="-119" y="-7" type="curve" smooth="yes"/>
      <point x="-106" y="-7"/>
      <point x="-28" y="108"/>
      <point x="-28" y="108" type="curve"/>
      <point x="-24" y="113"/>
      <point x="-22" y="117"/>
      <point x="-19" y="117" type="curve" smooth="yes"/>
      <point x="-15" y="117"/>
      <point x="-11" y="115"/>
      <point x="-6" y="111" type="curve"/>
      <point x="-6" y="111"/>
      <point x="111" y="20"/>
      <point x="119" y="20" type="curve" smooth="yes"/>
      <point x="134" y="20"/>
      <point x="214" y="148"/>
      <point x="214" y="164" type="curve" smooth="yes"/>
      <point x="214" y="175"/>
      <point x="100" y="263"/>
    </contour>
    <contour>
      <point x="111" y="12" type="curve" smooth="yes"/>
      <point x="101" y="12"/>
      <point x="21" y="-100"/>
      <point x="21" y="-100" type="curve"/>
      <point x="14" y="-108"/>
      <point x="11" y="-110"/>
      <point x="7" y="-110" type="curve"/>
      <point x="5" y="-110"/>
      <point x="1" y="-108"/>
      <point x="-4" y="-103" type="curve"/>
      <point x="-4" y="-103"/>
      <point x="-109" y="-12"/>
      <point x="-128" y="-12" type="curve" smooth="yes" name="hr01"/>
      <point x="-137" y="-12"/>
      <point x="-223" y="-143"/>
      <point x="-223" y="-159" type="curve" smooth="yes"/>
      <point x="-223" y="-169"/>
      <point x="-102" y="-258"/>
      <point x="-92" y="-258" type="curve" smooth="yes"/>
      <point x="-79" y="-258"/>
      <point x="-1" y="-143"/>
      <point x="-1" y="-143" type="curve"/>
      <point x="3" y="-139"/>
      <point x="5" y="-135"/>
      <point x="7" y="-135" type="curve"/>
      <point x="11" y="-135"/>
      <point x="16" y="-137"/>
      <point x="21" y="-140" type="curve"/>
      <point x="21" y="-140"/>
      <point x="138" y="-232"/>
      <point x="146" y="-232" type="curve" smooth="yes"/>
      <point x="160" y="-232"/>
      <point x="241" y="-103"/>
      <point x="241" y="-88" type="curve" smooth="yes"/>
      <point x="241" y="-77"/>
      <point x="127" y="12"/>
    </contour>
  </outline>
</glyph>
<glyph name="_gafBarShort_dot3u" format="2">
  <anchor x="70" y="0" name="_above"/>
  <outline>
    <contour>
      <point x="-128" y="732" type="curve" smooth="yes"/>
      <point x="-128" y="719"/>
      <point x="-4" y="625"/>
      <point x="12" y="625" type="curve" smooth="yes"/>
      <point x="26" y="625"/>
      <point x="116" y="763"/>
      <point x="116" y="779" type="curve" smooth="yes"/>
      <point x="116" y="793"/>
      <point x="-14" y="885"/>
      <point x="-23" y="885" type="curve" smooth="yes"/>
      <point x="-41" y="885"/>
      <point x="-128" y="747"/>
    </contour>
    <contour>
      <point x="-82" y="350" type="curve" smooth="yes"/>
      <point x="-72" y="350"/>
      <point x="13" y="467"/>
      <point x="13" y="467" type="curve"/>
      <point x="20" y="476"/>
      <point x="23" y="478"/>
      <point x="27" y="478" type="curve" smooth="yes"/>
      <point x="30" y="478"/>
      <point x="34" y="476"/>
      <point x="39" y="471" type="curve"/>
      <point x="39" y="471"/>
      <point x="149" y="375"/>
      <point x="169" y="375" type="curve" smooth="yes"/>
      <point x="179" y="375"/>
      <point x="270" y="513"/>
      <point x="270" y="529" type="curve" smooth="yes"/>
      <point x="270" y="540"/>
      <point x="142" y="634"/>
      <point x="132" y="634" type="curve" smooth="yes"/>
      <point x="118" y="634"/>
      <point x="36" y="513"/>
      <point x="36" y="513" type="curve"/>
      <point x="32" y="508"/>
      <point x="30" y="504"/>
      <point x="27" y="504" type="curve" smooth="yes"/>
      <point x="23" y="504"/>
      <point x="18" y="506"/>
      <point x="13" y="510" type="curve"/>
      <point x="13" y="510"/>
      <point x="-110" y="606"/>
      <point x="-119" y="606" type="curve" smooth="yes"/>
      <point x="-134" y="606"/>
      <point x="-219" y="471"/>
      <point x="-219" y="455" type="curve" smooth="yes"/>
      <point x="-219" y="443"/>
      <point x="-99" y="350"/>
    </contour>
    <contour>
      <point x="780" y="592" type="curve"/>
      <point x="780" y="597"/>
      <point x="766" y="611"/>
      <point x="762" y="611" type="curve" smooth="yes"/>
      <point x="752" y="611"/>
      <point x="486" y="477"/>
      <point x="439" y="451" type="curve" smooth="yes"/>
      <point x="275" y="359"/>
      <point x="95" y="249"/>
      <point x="-19" y="140" type="curve" smooth="yes"/>
      <point x="-32" y="128"/>
      <point x="-81" y="32"/>
      <point x="-81" y="19" type="curve"/>
      <point x="-81" y="17"/>
      <point x="-76" y="11"/>
      <point x="-75" y="11" type="curve"/>
      <point x="-73" y="11"/>
      <point x="-62" y="15"/>
      <point x="-61" y="16" type="curve"/>
      <point x="37" y="86"/>
      <point x="502" y="284"/>
      <point x="652" y="342" type="curve" smooth="yes"/>
      <point x="669" y="349"/>
      <point x="691" y="365"/>
      <point x="715" y="433" type="curve" smooth="yes"/>
      <point x="747" y="525"/>
      <point x="780" y="591"/>
    </contour>
  </outline>
</glyph>
<glyph name="_hat" format="2">
  <anchor x="2" y="181" name="_below"/>
  <anchor x="2" y="-138" name="_above"/>
  <outline>
    <contour>
      <point x="252" y="-119" type="curve" smooth="yes"/>
      <point x="252" y="-105"/>
      <point x="131" y="55"/>
      <point x="70" y="118" type="curve"/>
      <point x="57" y="130"/>
      <point x="49" y="145"/>
      <point x="39" y="145" type="curve" smooth="yes"/>
      <point x="-37" y="145" type="line" smooth="yes"/>
      <point x="-47" y="145"/>
      <point x="-57" y="130"/>
      <point x="-70" y="116" type="curve" smooth="yes"/>
      <point x="-131" y="48"/>
      <point x="-254" y="-113"/>
      <point x="-254" y="-119" type="curve" smooth="yes"/>
      <point x="-254" y="-124"/>
      <point x="-252" y="-130"/>
      <point x="-244" y="-130" type="curve" smooth="yes"/>
      <point x="-233" y="-130"/>
      <point x="-203" y="-130"/>
      <point x="-186" y="-130" type="curve" smooth="yes"/>
      <point x="-172" y="-130"/>
      <point x="-18" y="16"/>
      <point x="0" y="16" type="curve" smooth="yes"/>
      <point x="18" y="16"/>
      <point x="172" y="-130"/>
      <point x="190" y="-130" type="curve" smooth="yes"/>
      <point x="201" y="-130"/>
      <point x="227" y="-130"/>
      <point x="242" y="-130" type="curve" smooth="yes"/>
      <point x="252" y="-130"/>
      <point x="252" y="-126"/>
    </contour>
  </outline>
</glyph>
<glyph name="_lines" format="2">
  <anchor x="91" y="297" name="_below"/>
  <outline>
    <contour>
      <point x="49" y="232" type="line"/>
      <point x="-55" y="168" type="line"/>
      <point x="-55" y="-114" type="line"/>
      <point x="49" y="-50" type="line"/>
    </contour>
    <contour>
      <point x="227" y="232" type="line"/>
      <point x="123" y="168" type="line"/>
      <point x="123" y="-114" type="line"/>
      <point x="227" y="-50" type="line"/>
    </contour>
  </outline>
</glyph>
<glyph name=".notdef" format="2">
  <advance width="1135"/>
  <outline>
    <contour>
      <point x="803" y="785" type="line" smooth="yes"/>
      <point x="803" y="789"/>
      <point x="752" y="829"/>
      <point x="745" y="829" type="curve" smooth="yes"/>
      <point x="739" y="829"/>
      <point x="702" y="772"/>
      <point x="702" y="765" type="curve" smooth="yes"/>
      <point x="702" y="758"/>
      <point x="755" y="721"/>
      <point x="761" y="721" type="curve" smooth="yes"/>
      <point x="767" y="721"/>
      <point x="803" y="778"/>
      <point x="803" y="785" type="curve" smooth="yes"/>
    </contour>
    <contour>
      <point x="870" y="670" type="line" smooth="yes"/>
      <point x="870" y="674"/>
      <point x="817" y="714"/>
      <point x="811" y="714" type="curve" smooth="yes"/>
      <point x="806" y="714"/>
      <point x="773" y="665"/>
      <point x="773" y="665" type="curve"/>
      <point x="770" y="661"/>
      <point x="768" y="660"/>
      <point x="767" y="660" type="curve" smooth="yes"/>
      <point x="765" y="660"/>
      <point x="764" y="661"/>
      <point x="761" y="663" type="curve"/>
      <point x="761" y="663"/>
      <point x="715" y="703"/>
      <point x="707" y="703" type="curve" smooth="yes"/>
      <point x="703" y="703"/>
      <point x="664" y="646"/>
      <point x="664" y="639" type="curve" smooth="yes"/>
      <point x="664" y="634"/>
      <point x="718" y="595"/>
      <point x="723" y="595" type="curve" smooth="yes"/>
      <point x="728" y="595"/>
      <point x="762" y="646"/>
      <point x="762" y="646" type="curve"/>
      <point x="764" y="647"/>
      <point x="765" y="648"/>
      <point x="767" y="648" type="curve" smooth="yes"/>
      <point x="769" y="648"/>
      <point x="771" y="648"/>
      <point x="773" y="646" type="curve"/>
      <point x="773" y="646"/>
      <point x="824" y="606"/>
      <point x="827" y="606" type="curve" smooth="yes"/>
      <point x="834" y="606"/>
      <point x="870" y="663"/>
      <point x="870" y="670" type="curve" smooth="yes"/>
    </contour>
    <contour>
      <point x="968" y="448" type="line" smooth="yes"/>
      <point x="968" y="468"/>
      <point x="949" y="515"/>
      <point x="934" y="515" type="curve" smooth="yes"/>
      <point x="927" y="515"/>
      <point x="908" y="443"/>
      <point x="908" y="438" type="curve" smooth="yes"/>
      <point x="908" y="434"/>
      <point x="937" y="416"/>
      <point x="937" y="405" type="curve" smooth="yes"/>
      <point x="937" y="399"/>
      <point x="919" y="390"/>
      <point x="914" y="390" type="curve" smooth="yes"/>
      <point x="891" y="390"/>
      <point x="833" y="403"/>
      <point x="824" y="458" type="curve"/>
      <point x="821" y="468"/>
      <point x="816" y="474"/>
      <point x="816" y="474" type="curve"/>
      <point x="811" y="474"/>
      <point x="807" y="468"/>
      <point x="806" y="461" type="curve" smooth="yes"/>
      <point x="798" y="392"/>
      <point x="724" y="333"/>
      <point x="659" y="333" type="curve"/>
      <point x="654" y="352"/>
      <point x="646" y="369"/>
      <point x="635" y="384" type="curve"/>
      <point x="629" y="384"/>
      <point x="601" y="324"/>
      <point x="601" y="315" type="curve" smooth="yes"/>
      <point x="601" y="301"/>
      <point x="635" y="271"/>
      <point x="635" y="189" type="curve" smooth="yes"/>
      <point x="635" y="125"/>
      <point x="622" y="85"/>
      <point x="576" y="54" type="curve" smooth="yes"/>
      <point x="535" y="26"/>
      <point x="447" y="10"/>
      <point x="372" y="10" type="curve" smooth="yes"/>
      <point x="316" y="10"/>
      <point x="217" y="38"/>
      <point x="217" y="124" type="curve" smooth="yes"/>
      <point x="217" y="195"/>
      <point x="263" y="249"/>
      <point x="263" y="260" type="curve" smooth="yes"/>
      <point x="263" y="263"/>
      <point x="259" y="267"/>
      <point x="254" y="267" type="curve" smooth="yes"/>
      <point x="245" y="267"/>
      <point x="180" y="172"/>
      <point x="180" y="88" type="curve" smooth="yes"/>
      <point x="180" y="2"/>
      <point x="243" y="-73"/>
      <point x="344" y="-73" type="curve" smooth="yes"/>
      <point x="493" y="-73"/>
      <point x="670" y="-24"/>
      <point x="670" y="258" type="curve"/>
      <point x="672" y="258" type="line" smooth="yes"/>
      <point x="730" y="258"/>
      <point x="773" y="322"/>
      <point x="794" y="356" type="curve"/>
      <point x="809" y="343"/>
      <point x="834" y="303"/>
      <point x="884" y="303" type="curve" smooth="yes"/>
      <point x="942" y="303"/>
      <point x="968" y="396"/>
      <point x="968" y="448" type="curve" smooth="yes"/>
    </contour>
    <contour>
      <point x="1050" y="996" type="line"/>
      <point x="1050" y="-228" type="line"/>
      <point x="85" y="-228" type="line"/>
      <point x="85" y="996" type="line"/>
    </contour>
    <contour>
      <point x="60" y="-253" type="line" name="hr01"/>
      <point x="1075" y="-253" type="line"/>
      <point x="1075" y="1021" type="line"/>
      <point x="60" y="1021" type="line"/>
    </contour>
  </outline>
</glyph>
<glyph name="_smallV" format="2">
  <anchor x="0" y="165" name="_below"/>
  <anchor x="0" y="-209" name="_above"/>
  <outline>
    <contour>
      <point x="-224" y="149" type="curve" smooth="yes"/>
      <point x="-224" y="143"/>
      <point x="-102" y="-53"/>
      <point x="-55" y="-102" type="curve" smooth="yes"/>
      <point x="-44" y="-113"/>
      <point x="-36" y="-122"/>
      <point x="-28" y="-122" type="curve" smooth="yes"/>
      <point x="28" y="-122" type="line" smooth="yes"/>
      <point x="37" y="-122"/>
      <point x="44" y="-113"/>
      <point x="55" y="-102" type="curve" smooth="yes"/>
      <point x="102" y="-53"/>
      <point x="224" y="143"/>
      <point x="224" y="149" type="curve" smooth="yes"/>
      <point x="224" y="160"/>
      <point x="219" y="167"/>
      <point x="207" y="167" type="curve" smooth="yes"/>
      <point x="155" y="167" type="line" smooth="yes"/>
      <point x="143" y="167"/>
      <point x="15" y="20"/>
      <point x="0" y="20" type="curve" smooth="yes"/>
      <point x="-15" y="20"/>
      <point x="-143" y="167"/>
      <point x="-155" y="167" type="curve" smooth="yes"/>
      <point x="-207" y="167" type="line" smooth="yes"/>
      <point x="-220" y="167"/>
      <point x="-224" y="160"/>
    </contour>
  </outline>
</glyph>
<glyph name="_two" format="2">
  <anchor x="11" y="-37" name="_aboveLeft"/>
  <anchor x="-1" y="-37" name="_above"/>
  <outline>
    <contour>
      <point x="105" y="338" type="curve" smooth="yes"/>
      <point x="105" y="359"/>
      <point x="104" y="397"/>
      <point x="102" y="407" type="curve"/>
      <point x="102" y="409"/>
      <point x="91" y="410"/>
      <point x="87" y="410" type="curve" smooth="yes"/>
      <point x="83" y="410"/>
      <point x="71" y="409"/>
      <point x="71" y="407" type="curve"/>
      <point x="71" y="344"/>
      <point x="30" y="323"/>
      <point x="-8" y="323" type="curve" smooth="yes"/>
      <point x="-56" y="323"/>
      <point x="-100" y="403"/>
      <point x="-110" y="403" type="curve"/>
      <point x="-112" y="403"/>
      <point x="-140" y="312"/>
      <point x="-140" y="307" type="curve" smooth="yes"/>
      <point x="-140" y="303"/>
      <point x="-27" y="197"/>
      <point x="-17" y="-31" type="curve"/>
      <point x="-17" y="-33"/>
      <point x="-5" y="-35"/>
      <point x="-1" y="-35" type="curve" smooth="yes"/>
      <point x="7" y="-35"/>
      <point x="15" y="-32"/>
      <point x="15" y="-32" type="curve"/>
      <point x="19" y="-3"/>
      <point x="22" y="31"/>
      <point x="22" y="66" type="curve" smooth="yes"/>
      <point x="22" y="111"/>
      <point x="14" y="191"/>
      <point x="2" y="226" type="curve"/>
      <point x="7" y="225"/>
      <point x="12" y="224"/>
      <point x="16" y="224" type="curve" smooth="yes"/>
      <point x="57" y="224"/>
      <point x="105" y="276"/>
    </contour>
  </outline>
</glyph>
<glyph name="_wasla" format="2">
  <anchor x="-32" y="176" name="_below"/>
  <anchor x="-32" y="-127" name="_above"/>
  <outline>
    <contour>
      <point x="88" y="176" type="curve" smooth="yes"/>
      <point x="8" y="176"/>
      <point x="-53" y="83"/>
      <point x="-82" y="9" type="curve" name="hr01"/>
      <point x="-113" y="9"/>
      <point x="-174" y="9"/>
      <point x="-196" y="3" type="curve" smooth="yes"/>
      <point x="-255" y="-14"/>
      <point x="-262" y="-83"/>
      <point x="-262" y="-103" type="curve" smooth="yes"/>
      <point x="-262" y="-119"/>
      <point x="-257" y="-129"/>
      <point x="-251" y="-129" type="curve" smooth="yes"/>
      <point x="-240" y="-129"/>
      <point x="-234" y="-109"/>
      <point x="-231" y="-102" type="curve" smooth="yes"/>
      <point x="-227" y="-92"/>
      <point x="-223" y="-86"/>
      <point x="-186" y="-86" type="curve" smooth="yes"/>
      <point x="-159" y="-86"/>
      <point x="-60" y="-90"/>
      <point x="-7" y="-90" type="curve" smooth="yes"/>
      <point x="113" y="-90"/>
      <point x="179" y="7"/>
      <point x="179" y="80" type="curve" smooth="yes"/>
      <point x="179" y="128"/>
      <point x="152" y="176"/>
    </contour>
    <contour>
      <point x="112" y="45" type="curve" smooth="yes"/>
      <point x="112" y="22"/>
      <point x="70" y="9"/>
      <point x="-21" y="9" type="curve" name="hr03"/>
      <point x="-5" y="34"/>
      <point x="46" y="73"/>
      <point x="79" y="73" type="curve" smooth="yes"/>
      <point x="105" y="73"/>
      <point x="112" y="57"/>
    </contour>
  </outline>
</glyph>
<glyph name="absAlefFin" format="2">
  <advance width="389"/>
  <anchor x="167" y="1043" name="above"/>
  <anchor x="239" y="-50" name="below"/>
  <anchor x="148" y="1144" name="diaA"/>
  <anchor x="200" y="-179" name="diaB"/>
  <anchor x="43" y="811" name="aboveLeft"/>
  <anchor x="-8" y="684" name="alef"/>
  <outline>
    <contour>
      <point x="406" y="0" type="line"/>
      <point x="433" y="0"/>
      <point x="456" y="28"/>
      <point x="456" y="109" type="curve" smooth="yes"/>
      <point x="456" y="185"/>
      <point x="436" y="205"/>
      <point x="406" y="205" type="curve" smooth="yes"/>
      <point x="371" y="205" type="line" smooth="yes"/>
      <point x="310" y="205"/>
      <point x="260" y="222"/>
      <point x="252" y="283" type="curve" smooth="yes"/>
      <point x="238" y="393"/>
      <point x="237" y="567"/>
      <point x="217" y="945" type="curve"/>
      <point x="216" y="971"/>
      <point x="198" y="991"/>
      <point x="186" y="991" type="curve" smooth="yes"/>
      <point x="176" y="991"/>
      <point x="80" y="848"/>
      <point x="80" y="809" type="curve" smooth="yes"/>
      <point x="80" y="764"/>
      <point x="90" y="719"/>
      <point x="104" y="600" type="curve" smooth="yes"/>
      <point x="123" y="436"/>
      <point x="137" y="294"/>
      <point x="153" y="199" type="curve" smooth="yes"/>
      <point x="177" y="56"/>
      <point x="252" y="0"/>
      <point x="371" y="0" type="curve" smooth="yes"/>
    </contour>
  </outline>
</glyph>
<glyph name="absAlefFin.postLamIni" format="2">
  <advance width="608"/>
  <anchor x="200" y="-181" name="dia2B"/>
  <anchor x="80" y="1260" name="diaA"/>
  <anchor x="74" y="1185" name="above"/>
  <anchor x="446" y="-85" name="below"/>
  <anchor x="-47" y="860" name="aboveLeft"/>
  <anchor x="420" y="-152" name="diaB"/>
  <anchor x="564" y="0" name="entry"/>
  <outline>
    <contour>
      <point x="786" y="213" type="curve" smooth="yes"/>
      <point x="786" y="267"/>
      <point x="755" y="340"/>
      <point x="707" y="420" type="curve" smooth="yes"/>
      <point x="577" y="637"/>
      <point x="317" y="912"/>
      <point x="171" y="1048" type="curve" smooth="yes"/>
      <point x="160" y="1058"/>
      <point x="105" y="1102"/>
      <point x="81" y="1102" type="curve" smooth="yes"/>
      <point x="62" y="1102"/>
      <point x="23" y="1008"/>
      <point x="23" y="910" type="curve" smooth="yes"/>
      <point x="23" y="871"/>
      <point x="55" y="826"/>
      <point x="86" y="791" type="curve" smooth="yes"/>
      <point x="113" y="762"/>
      <point x="212" y="669"/>
      <point x="224" y="669" type="curve" smooth="yes"/>
      <point x="230" y="669"/>
      <point x="293" y="717"/>
      <point x="299" y="725" type="curve"/>
      <point x="382" y="656"/>
      <point x="568" y="473"/>
      <point x="652" y="337" type="curve" smooth="yes"/>
      <point x="678" y="295"/>
      <point x="694" y="258"/>
      <point x="694" y="230" type="curve" smooth="yes"/>
      <point x="694" y="209"/>
      <point x="607" y="202"/>
      <point x="495" y="202" type="curve"/>
      <point x="470" y="199"/>
      <point x="448" y="165"/>
      <point x="448" y="121" type="curve" smooth="yes"/>
      <point x="448" y="42"/>
      <point x="472" y="-2"/>
      <point x="500" y="-2" type="curve" smooth="yes"/>
      <point x="533" y="-2"/>
      <point x="651" y="0"/>
      <point x="651" y="0" type="curve" name="hr01"/>
      <point x="711" y="0"/>
      <point x="786" y="130"/>
    </contour>
  </outline>
</glyph>
<glyph name="absComma.downward" format="2">
  <advance width="683"/>
  <anchor x="295" y="381" name="diaA"/>
  <anchor x="301" y="-497" name="diaB"/>
  <outline>
    <contour>
      <point x="478" y="72" type="curve" smooth="yes"/>
      <point x="478" y="129"/>
      <point x="433" y="194"/>
      <point x="356" y="194" type="curve" smooth="yes"/>
      <point x="229" y="194"/>
      <point x="174" y="43"/>
      <point x="174" y="-55" type="curve" smooth="yes"/>
      <point x="174" y="-97"/>
      <point x="181" y="-136"/>
      <point x="195" y="-172" type="curve" smooth="yes"/>
      <point x="229" y="-258"/>
      <point x="299" y="-334"/>
      <point x="362" y="-375" type="curve"/>
      <point x="392" y="-330" type="line"/>
      <point x="354" y="-293"/>
      <point x="270" y="-209"/>
      <point x="270" y="-88" type="curve" smooth="yes"/>
      <point x="270" y="-61"/>
      <point x="285" y="-24"/>
      <point x="292" y="-24" type="curve" smooth="yes"/>
      <point x="300" y="-24"/>
      <point x="336" y="-46"/>
      <point x="370" y="-46" type="curve" smooth="yes"/>
      <point x="439" y="-46"/>
      <point x="478" y="22"/>
    </contour>
  </outline>
</glyph>
<glyph name="absEasternFiveMedium" format="2">
  <advance width="460"/>
  <anchor x="460" y="0" name="digit"/>
  <anchor x="0" y="0" name="_digit"/>
  <outline>
    <contour>
      <point x="404" y="353" type="curve" smooth="yes"/>
      <point x="404" y="451"/>
      <point x="330" y="622"/>
      <point x="250" y="708" type="curve"/>
      <point x="160" y="627"/>
      <point x="63" y="429"/>
      <point x="63" y="309" type="curve" smooth="yes"/>
      <point x="63" y="256"/>
      <point x="88" y="189"/>
      <point x="146" y="189" type="curve" smooth="yes"/>
      <point x="178" y="189"/>
      <point x="212" y="212"/>
      <point x="225" y="238" type="curve"/>
      <point x="236" y="212"/>
      <point x="267" y="189"/>
      <point x="297" y="189" type="curve" smooth="yes"/>
      <point x="366" y="189"/>
      <point x="404" y="290"/>
    </contour>
    <contour>
      <point x="359" y="386" type="curve" smooth="yes"/>
      <point x="359" y="342"/>
      <point x="335" y="317"/>
      <point x="294" y="317" type="curve" smooth="yes"/>
      <point x="266" y="317"/>
      <point x="243" y="339"/>
      <point x="230" y="361" type="curve"/>
      <point x="219" y="337"/>
      <point x="191" y="324"/>
      <point x="169" y="324" type="curve" smooth="yes"/>
      <point x="136" y="324"/>
      <point x="116" y="347"/>
      <point x="116" y="378" type="curve" smooth="yes"/>
      <point x="116" y="441"/>
      <point x="204" y="525"/>
      <point x="238" y="550" type="curve"/>
      <point x="278" y="514"/>
      <point x="359" y="435"/>
    </contour>
  </outline>
</glyph>
<glyph name="absEasternFourSmall.urdu" format="2">
  <advance width="323"/>
  <anchor x="323" y="0" name="digit"/>
  <anchor x="0" y="0" name="_digit"/>
  <outline>
    <contour>
      <point x="300" y="634" type="curve"/>
      <point x="300" y="636"/>
      <point x="300" y="637"/>
      <point x="298" y="637" type="curve"/>
      <point x="292" y="637"/>
      <point x="216" y="624"/>
      <point x="187" y="530" type="curve"/>
      <point x="170" y="574"/>
      <point x="142" y="601"/>
      <point x="111" y="601" type="curve" smooth="yes"/>
      <point x="78" y="601"/>
      <point x="42" y="507"/>
      <point x="42" y="451" type="curve" smooth="yes"/>
      <point x="42" y="370"/>
      <point x="82" y="247"/>
      <point x="82" y="189" type="curve" smooth="yes"/>
      <point x="82" y="183"/>
      <point x="86" y="180"/>
      <point x="90" y="180" type="curve" smooth="yes"/>
      <point x="95" y="180"/>
      <point x="111" y="247"/>
      <point x="111" y="267" type="curve" smooth="yes"/>
      <point x="111" y="333"/>
      <point x="80" y="406"/>
      <point x="79" y="484" type="curve"/>
      <point x="79" y="486"/>
      <point x="79" y="490"/>
      <point x="80" y="492" type="curve" smooth="yes"/>
      <point x="82" y="501"/>
      <point x="89" y="504"/>
      <point x="97" y="504" type="curve" smooth="yes"/>
      <point x="129" y="504"/>
      <point x="150" y="475"/>
      <point x="169" y="425" type="curve" smooth="yes"/>
      <point x="171" y="419"/>
      <point x="175" y="418"/>
      <point x="176" y="418" type="curve"/>
      <point x="182" y="418"/>
      <point x="190" y="443"/>
      <point x="192" y="449" type="curve" smooth="yes"/>
      <point x="205" y="494"/>
      <point x="226" y="526"/>
      <point x="278" y="535" type="curve" smooth="yes"/>
      <point x="281" y="536"/>
      <point x="284" y="537"/>
      <point x="285" y="542" type="curve" smooth="yes"/>
      <point x="286" y="546"/>
      <point x="288" y="565"/>
      <point x="289" y="574" type="curve" smooth="yes"/>
      <point x="292" y="598"/>
      <point x="300" y="631"/>
    </contour>
  </outline>
</glyph>
<glyph name="absEasternSevenSmall.urdu" format="2">
  <advance width="323"/>
  <anchor x="323" y="0" name="digit"/>
  <anchor x="0" y="0" name="_digit"/>
  <outline>
    <contour>
      <point x="324" y="316" type="curve" smooth="yes"/>
      <point x="324" y="321"/>
      <point x="304" y="332"/>
      <point x="263" y="348" type="curve" smooth="yes"/>
      <point x="211" y="369"/>
      <point x="152" y="387"/>
      <point x="90" y="396" type="curve"/>
      <point x="105" y="406"/>
      <point x="125" y="417"/>
      <point x="173" y="463" type="curve" smooth="yes"/>
      <point x="224" y="512"/>
      <point x="257" y="558"/>
      <point x="257" y="566" type="curve" smooth="yes"/>
      <point x="257" y="573"/>
      <point x="255" y="575"/>
      <point x="250" y="575" type="curve" smooth="yes"/>
      <point x="246" y="575"/>
      <point x="230" y="573"/>
      <point x="214" y="569" type="curve" smooth="yes"/>
      <point x="199" y="564"/>
      <point x="183" y="561"/>
      <point x="181" y="559" type="curve"/>
      <point x="152" y="509"/>
      <point x="95" y="447"/>
      <point x="42" y="401" type="curve"/>
      <point x="39" y="400"/>
      <point x="33" y="390"/>
      <point x="24" y="373" type="curve" smooth="yes"/>
      <point x="14" y="357"/>
      <point x="11" y="348"/>
      <point x="11" y="343" type="curve" smooth="yes"/>
      <point x="11" y="338"/>
      <point x="12" y="333"/>
      <point x="19" y="333" type="curve" smooth="yes"/>
      <point x="63" y="333"/>
      <point x="124" y="315"/>
      <point x="175" y="296" type="curve" smooth="yes"/>
      <point x="226" y="276"/>
      <point x="235" y="266"/>
      <point x="239" y="266" type="curve"/>
      <point x="241" y="266"/>
      <point x="253" y="271"/>
      <point x="273" y="281" type="curve" smooth="yes"/>
      <point x="293" y="292"/>
      <point x="324" y="313"/>
    </contour>
  </outline>
</glyph>
<glyph name="absEasternSixSmall" format="2">
  <advance width="323"/>
  <anchor x="323" y="0" name="digit"/>
  <anchor x="0" y="0" name="_digit"/>
  <outline>
    <contour>
      <point x="274" y="522" type="line"/>
      <point x="253" y="506"/>
      <point x="207" y="466"/>
      <point x="183" y="466" type="curve" smooth="yes"/>
      <point x="166" y="466"/>
      <point x="109" y="485"/>
      <point x="109" y="501" type="curve" smooth="yes"/>
      <point x="109" y="523"/>
      <point x="134" y="540"/>
      <point x="163" y="552" type="curve" smooth="yes"/>
      <point x="195" y="565"/>
      <point x="233" y="567"/>
      <point x="249" y="567" type="curve"/>
      <point x="250" y="567"/>
      <point x="255" y="570"/>
      <point x="255" y="576" type="curve" smooth="yes"/>
      <point x="255" y="586"/>
      <point x="204" y="625"/>
      <point x="164" y="625" type="curve" smooth="yes"/>
      <point x="129" y="625"/>
      <point x="102" y="582"/>
      <point x="87" y="550" type="curve" smooth="yes"/>
      <point x="70" y="516"/>
      <point x="61" y="485"/>
      <point x="61" y="456" type="curve" smooth="yes"/>
      <point x="61" y="411"/>
      <point x="100" y="387"/>
      <point x="133" y="382" type="curve"/>
      <point x="110" y="347"/>
      <point x="56" y="222"/>
      <point x="56" y="196" type="curve" smooth="yes"/>
      <point x="56" y="190"/>
      <point x="60" y="186"/>
      <point x="66" y="186" type="curve" smooth="yes"/>
      <point x="77" y="186"/>
      <point x="93" y="187"/>
      <point x="97" y="198" type="curve" smooth="yes"/>
      <point x="123" y="265"/>
      <point x="154" y="312"/>
      <point x="193" y="365" type="curve" smooth="yes"/>
      <point x="209" y="388"/>
      <point x="246" y="423"/>
      <point x="259" y="440" type="curve" smooth="yes"/>
      <point x="262" y="445"/>
      <point x="277" y="503"/>
      <point x="281" y="513" type="curve"/>
    </contour>
  </outline>
</glyph>
<glyph name="absFootnoteSign.2" format="2">
  <advance width="1621"/>
  <anchor x="578" y="0" name="digit"/>
  <outline>
    <contour>
      <point x="393" y="160" type="curve" smooth="yes"/>
      <point x="393" y="140"/>
      <point x="377" y="115"/>
      <point x="371" y="109" type="curve"/>
      <point x="272" y="130"/>
      <point x="253" y="163"/>
      <point x="253" y="179" type="curve" smooth="yes"/>
      <point x="253" y="208"/>
      <point x="277" y="241"/>
      <point x="321" y="241" type="curve" smooth="yes"/>
      <point x="336" y="241"/>
      <point x="363" y="233"/>
      <point x="379" y="209" type="curve" smooth="yes"/>
      <point x="387" y="197"/>
      <point x="393" y="181"/>
    </contour>
    <contour>
      <point x="1561" y="101" type="curve"/>
      <point x="1463" y="70"/>
      <point x="1250" y="44"/>
      <point x="940" y="44" type="curve" smooth="yes"/>
      <point x="848" y="44"/>
      <point x="595" y="54"/>
      <point x="505" y="72" type="curve"/>
      <point x="536" y="122"/>
      <point x="549" y="178"/>
      <point x="549" y="226" type="curve" smooth="yes"/>
      <point x="549" y="272"/>
      <point x="544" y="315"/>
      <point x="520" y="349" type="curve" smooth="yes"/>
      <point x="488" y="394"/>
      <point x="439" y="425"/>
      <point x="380" y="425" type="curve" smooth="yes"/>
      <point x="315" y="425"/>
      <point x="248" y="393"/>
      <point x="187" y="337" type="curve" smooth="yes"/>
      <point x="134" y="288"/>
      <point x="59" y="212"/>
      <point x="59" y="126" type="curve" smooth="yes"/>
      <point x="59" y="-28"/>
      <point x="331" y="-100"/>
      <point x="801" y="-100" type="curve" smooth="yes"/>
      <point x="941" y="-100"/>
      <point x="1315" y="-87"/>
      <point x="1543" y="-5" type="curve"/>
      <point x="1558" y="18"/>
      <point x="1561" y="75"/>
    </contour>
  </outline>
</glyph>
<glyph name="absHehGoalFin" format="2">
  <advance width="510"/>
  <anchor x="298" y="369" name="above"/>
  <anchor x="289" y="-177" name="below"/>
  <anchor x="245" y="616" name="diaA"/>
  <anchor x="207" y="-300" name="diaB"/>
  <anchor x="116" y="412" name="alef"/>
  <outline>
    <contour>
      <point x="578" y="103" type="curve" smooth="yes"/>
      <point x="578" y="134"/>
      <point x="573" y="205"/>
      <point x="523" y="205" type="curve" smooth="yes"/>
      <point x="486" y="205" type="line" smooth="yes"/>
      <point x="444" y="205"/>
      <point x="428" y="234"/>
      <point x="406" y="261" type="curve" smooth="yes"/>
      <point x="387" y="285"/>
      <point x="364" y="308"/>
      <point x="316" y="308" type="curve" smooth="yes"/>
      <point x="156" y="308"/>
      <point x="67" y="89"/>
      <point x="36" y="-61" type="curve" smooth="yes"/>
      <point x="34" y="-73"/>
      <point x="30" y="-97"/>
      <point x="30" y="-114" type="curve" smooth="yes"/>
      <point x="30" y="-122"/>
      <point x="39" y="-127"/>
      <point x="53" y="-127" type="curve" smooth="yes"/>
      <point x="72" y="-127"/>
      <point x="72" y="-102"/>
      <point x="79" y="-78" type="curve" smooth="yes"/>
      <point x="117" y="54"/>
      <point x="207" y="105"/>
      <point x="270" y="105" type="curve" smooth="yes"/>
      <point x="321" y="105"/>
      <point x="341" y="77"/>
      <point x="367" y="50" type="curve" smooth="yes"/>
      <point x="391" y="24"/>
      <point x="421" y="0"/>
      <point x="486" y="0" type="curve" smooth="yes"/>
      <point x="523" y="0" type="line" smooth="yes"/>
      <point x="573" y="0"/>
      <point x="578" y="72"/>
    </contour>
  </outline>
</glyph>
<glyph name="absKafMed" format="2">
  <advance width="1006"/>
  <anchor x="173" y="909" name="above"/>
  <anchor x="215" y="-48" name="below"/>
  <anchor x="549" y="931" name="ring"/>
  <anchor x="247" y="1104" name="diaA"/>
  <anchor x="206" y="-150" name="diaB"/>
  <anchor x="125" y="1001" name="alef"/>
  <anchor x="648" y="767" name="center"/>
  <outline>
    <contour>
      <point x="1073" y="103" type="curve" smooth="yes"/>
      <point x="1073" y="134"/>
      <point x="1068" y="205"/>
      <point x="1018" y="205" type="curve" smooth="yes"/>
      <point x="980" y="205" type="line" smooth="yes"/>
      <point x="914" y="205"/>
      <point x="873" y="274"/>
      <point x="672" y="422" type="curve" smooth="yes"/>
      <point x="588" y="485"/>
      <point x="473" y="558"/>
      <point x="359" y="606" type="curve" smooth="yes"/>
      <point x="284" y="638"/>
      <point x="159" y="656"/>
      <point x="160" y="668" type="curve" smooth="yes"/>
      <point x="165" y="729"/>
      <point x="538" y="861"/>
      <point x="863" y="953" type="curve" smooth="yes"/>
      <point x="872" y="956"/>
      <point x="936" y="1146"/>
      <point x="936" y="1154" type="curve" smooth="yes"/>
      <point x="936" y="1158"/>
      <point x="922" y="1170"/>
      <point x="918" y="1170" type="curve" smooth="yes"/>
      <point x="900" y="1170"/>
      <point x="369" y="974"/>
      <point x="165" y="813" type="curve" smooth="yes"/>
      <point x="103" y="764"/>
      <point x="90" y="670"/>
      <point x="90" y="651" type="curve" smooth="yes"/>
      <point x="90" y="603"/>
      <point x="121" y="539"/>
      <point x="149" y="508" type="curve" smooth="yes"/>
      <point x="166" y="489"/>
      <point x="243" y="465"/>
      <point x="294" y="438" type="curve" smooth="yes"/>
      <point x="376" y="395"/>
      <point x="426" y="346"/>
      <point x="426" y="315" type="curve" smooth="yes"/>
      <point x="426" y="263"/>
      <point x="330" y="205"/>
      <point x="25" y="205" type="curve" smooth="yes"/>
      <point x="-12" y="205" type="line" smooth="yes"/>
      <point x="-62" y="205"/>
      <point x="-67" y="134"/>
      <point x="-67" y="103" type="curve" smooth="yes"/>
      <point x="-67" y="72"/>
      <point x="-62" y="0"/>
      <point x="-12" y="0" type="curve" smooth="yes"/>
      <point x="25" y="0" type="line" smooth="yes"/>
      <point x="347" y="0"/>
      <point x="513" y="77"/>
      <point x="513" y="232" type="curve" smooth="yes"/>
      <point x="513" y="250"/>
      <point x="513" y="287"/>
      <point x="507" y="310" type="curve"/>
      <point x="775" y="127"/>
      <point x="840" y="0"/>
      <point x="980" y="0" type="curve" smooth="yes"/>
      <point x="1018" y="0" type="line" smooth="yes"/>
      <point x="1068" y="0"/>
      <point x="1073" y="72"/>
    </contour>
  </outline>
</glyph>
<glyph name="absLamFin" format="2">
  <advance width="929"/>
  <anchor x="622" y="1030" name="above"/>
  <anchor x="676" y="-528" name="below"/>
  <anchor x="657" y="602" name="through"/>
  <anchor x="300" y="800" name="diaA"/>
  <anchor x="350" y="-632" name="diaB"/>
  <anchor x="152" y="299" name="alef"/>
  <outline>
    <contour>
      <point x="946" y="0" type="line"/>
      <point x="976" y="0"/>
      <point x="996" y="30"/>
      <point x="996" y="105" type="curve" smooth="yes"/>
      <point x="996" y="195"/>
      <point x="976" y="205"/>
      <point x="946" y="205" type="curve" smooth="yes"/>
      <point x="900" y="205" type="line" smooth="yes"/>
      <point x="833" y="205"/>
      <point x="799" y="222"/>
      <point x="789" y="269" type="curve" smooth="yes"/>
      <point x="729" y="549"/>
      <point x="717" y="989"/>
      <point x="711" y="989" type="curve" smooth="yes"/>
      <point x="699" y="989"/>
      <point x="602" y="934"/>
      <point x="602" y="857" type="curve" smooth="yes"/>
      <point x="602" y="749"/>
      <point x="619" y="534"/>
      <point x="635" y="344" type="curve" smooth="yes"/>
      <point x="657" y="94"/>
      <point x="666" y="-41"/>
      <point x="666" y="-106" type="curve" smooth="yes"/>
      <point x="666" y="-152"/>
      <point x="661" y="-185"/>
      <point x="650" y="-203" type="curve" smooth="yes"/>
      <point x="609" y="-269"/>
      <point x="493" y="-325"/>
      <point x="332" y="-325" type="curve" smooth="yes"/>
      <point x="201" y="-325"/>
      <point x="127" y="-276"/>
      <point x="127" y="-141" type="curve" smooth="yes"/>
      <point x="127" y="-47"/>
      <point x="193" y="58"/>
      <point x="193" y="72" type="curve" smooth="yes"/>
      <point x="193" y="78"/>
      <point x="169" y="98"/>
      <point x="163" y="98" type="curve" smooth="yes"/>
      <point x="148" y="98"/>
      <point x="23" y="-129"/>
      <point x="23" y="-274" type="curve" smooth="yes"/>
      <point x="23" y="-485"/>
      <point x="217" y="-527"/>
      <point x="293" y="-527" type="curve" smooth="yes"/>
      <point x="495" y="-527"/>
      <point x="653" y="-432"/>
      <point x="717" y="-289" type="curve" smooth="yes"/>
      <point x="732" y="-255"/>
      <point x="741" y="-205"/>
      <point x="744" y="-163" type="curve" smooth="yes"/>
      <point x="746" y="-141"/>
      <point x="746" y="-122"/>
      <point x="746" y="-109" type="curve" smooth="yes" name="hr01"/>
      <point x="746" y="-17"/>
      <point x="740" y="83"/>
      <point x="729" y="175" type="curve"/>
      <point x="759" y="63"/>
      <point x="820" y="0"/>
      <point x="900" y="0" type="curve" smooth="yes"/>
    </contour>
  </outline>
</glyph>
<glyph name="absMeemFin" format="2">
  <advance width="838"/>
  <anchor x="463" y="452" name="above"/>
  <anchor x="456" y="-315" name="below"/>
  <anchor x="333" y="777" name="diaA"/>
  <anchor x="170" y="-779" name="diaB"/>
  <anchor x="188" y="452" name="alef"/>
  <outline>
    <contour>
      <point x="905" y="103" type="curve" smooth="yes"/>
      <point x="905" y="134"/>
      <point x="900" y="205"/>
      <point x="850" y="205" type="curve" smooth="yes"/>
      <point x="813" y="205" type="line" smooth="yes"/>
      <point x="508" y="205"/>
      <point x="400" y="369"/>
      <point x="378" y="369" type="curve" smooth="yes"/>
      <point x="365" y="369"/>
      <point x="326" y="336"/>
      <point x="237" y="291" type="curve" smooth="yes"/>
      <point x="108" y="226"/>
      <point x="61" y="29"/>
      <point x="61" y="-105" type="curve" smooth="yes"/>
      <point x="61" y="-185"/>
      <point x="98" y="-383"/>
      <point x="125" y="-563" type="curve" smooth="yes"/>
      <point x="138" y="-651"/>
      <point x="144" y="-719"/>
      <point x="157" y="-719" type="curve" smooth="yes"/>
      <point x="181" y="-719"/>
      <point x="228" y="-589"/>
      <point x="228" y="-551" type="curve" smooth="yes"/>
      <point x="228" y="-477"/>
      <point x="146" y="-139"/>
      <point x="146" y="-57" type="curve" smooth="yes"/>
      <point x="146" y="19"/>
      <point x="177" y="50"/>
      <point x="284" y="78" type="curve"/>
      <point x="284" y="-47"/>
      <point x="368" y="-214"/>
      <point x="456" y="-214" type="curve" smooth="yes"/>
      <point x="503" y="-214"/>
      <point x="551" y="-135"/>
      <point x="551" y="-57" type="curve" smooth="yes"/>
      <point x="551" y="-32"/>
      <point x="549" y="23"/>
      <point x="547" y="47" type="curve"/>
      <point x="631" y="14"/>
      <point x="696" y="0"/>
      <point x="813" y="0" type="curve" smooth="yes"/>
      <point x="850" y="0" type="line" smooth="yes"/>
      <point x="900" y="0"/>
      <point x="905" y="72"/>
    </contour>
  </outline>
</glyph>
<glyph name="absNumberSignAbove.2" format="2">
  <advance width="1373"/>
  <anchor x="182" y="0" name="digit"/>
  <outline>
    <contour>
      <point x="1313" y="1097" type="curve" smooth="yes"/>
      <point x="1313" y="1108"/>
      <point x="1308" y="1129"/>
      <point x="1278" y="1129" type="curve" smooth="yes"/>
      <point x="1273" y="1129"/>
      <point x="1258" y="1115"/>
      <point x="1227" y="1095" type="curve" smooth="yes"/>
      <point x="1145" y="1042"/>
      <point x="1014" y="1009"/>
      <point x="875" y="1009" type="curve" smooth="yes"/>
      <point x="738" y="1009"/>
      <point x="622" y="1053"/>
      <point x="510" y="1135" type="curve" smooth="yes"/>
      <point x="503" y="1140"/>
      <point x="452" y="1175"/>
      <point x="434" y="1175" type="curve" smooth="yes"/>
      <point x="412" y="1175"/>
      <point x="400" y="1174"/>
      <point x="378" y="1118" type="curve" smooth="yes"/>
      <point x="364" y="1083"/>
      <point x="356" y="1042"/>
      <point x="332" y="1042" type="curve" smooth="yes" name="hr01"/>
      <point x="273" y="1042"/>
      <point x="221" y="1061"/>
      <point x="175" y="1061" type="curve" smooth="yes"/>
      <point x="154" y="1061"/>
      <point x="48" y="899"/>
      <point x="30" y="833" type="curve" name="hr02"/>
      <point x="34" y="818"/>
      <point x="54" y="796"/>
      <point x="63" y="788" type="curve"/>
      <point x="66" y="794"/>
      <point x="93" y="823"/>
      <point x="107" y="840" type="curve" smooth="yes"/>
      <point x="123" y="861"/>
      <point x="154" y="891"/>
      <point x="157" y="891" type="curve" smooth="yes"/>
      <point x="187" y="891"/>
      <point x="244" y="872"/>
      <point x="295" y="872" type="curve" smooth="yes" name="hr03"/>
      <point x="372" y="872"/>
      <point x="384" y="975"/>
      <point x="397" y="975" type="curve" smooth="yes"/>
      <point x="413" y="975"/>
      <point x="560" y="833"/>
      <point x="832" y="833" type="curve" smooth="yes" name="hr04"/>
      <point x="1054" y="833"/>
      <point x="1235" y="985"/>
      <point x="1294" y="1061" type="curve" smooth="yes"/>
      <point x="1306" y="1077"/>
      <point x="1313" y="1087"/>
    </contour>
  </outline>
</glyph>
<glyph name="absNumberSignAbove.4" format="2">
  <advance width="2152"/>
  <anchor x="114" y="0" name="digit"/>
  <outline>
    <contour>
      <point x="2092" y="1121" type="curve" smooth="yes"/>
      <point x="2092" y="1135"/>
      <point x="2077" y="1148"/>
      <point x="2052" y="1148" type="curve" smooth="yes"/>
      <point x="2047" y="1148"/>
      <point x="2013" y="1131"/>
      <point x="1956" y="1106" type="curve" smooth="yes"/>
      <point x="1839" y="1054"/>
      <point x="1633" y="1011"/>
      <point x="1248" y="1011" type="curve" smooth="yes"/>
      <point x="823" y="1011"/>
      <point x="591" y="1129"/>
      <point x="482" y="1166" type="curve" smooth="yes"/>
      <point x="472" y="1169"/>
      <point x="448" y="1175"/>
      <point x="439" y="1175" type="curve" smooth="yes"/>
      <point x="416" y="1175"/>
      <point x="397" y="1165"/>
      <point x="378" y="1118" type="curve" smooth="yes"/>
      <point x="363" y="1083"/>
      <point x="356" y="1042"/>
      <point x="332" y="1042" type="curve" smooth="yes" name="hr01"/>
      <point x="269" y="1042"/>
      <point x="217" y="1061"/>
      <point x="175" y="1061" type="curve" smooth="yes"/>
      <point x="152" y="1061"/>
      <point x="48" y="895"/>
      <point x="30" y="833" type="curve" name="hr02"/>
      <point x="34" y="818"/>
      <point x="53" y="795"/>
      <point x="63" y="788" type="curve"/>
      <point x="67" y="794"/>
      <point x="92" y="822"/>
      <point x="107" y="840" type="curve" smooth="yes"/>
      <point x="136" y="873"/>
      <point x="153" y="891"/>
      <point x="157" y="891" type="curve" smooth="yes"/>
      <point x="179" y="891"/>
      <point x="253" y="872"/>
      <point x="295" y="872" type="curve" smooth="yes" name="hr03"/>
      <point x="373" y="872"/>
      <point x="382" y="975"/>
      <point x="397" y="975" type="curve" smooth="yes"/>
      <point x="407" y="975"/>
      <point x="509" y="937"/>
      <point x="597" y="911" type="curve" smooth="yes"/>
      <point x="723" y="874"/>
      <point x="914" y="833"/>
      <point x="1181" y="833" type="curve" smooth="yes" name="hr04"/>
      <point x="1581" y="833"/>
      <point x="1907" y="957"/>
      <point x="2036" y="1045" type="curve" smooth="yes"/>
      <point x="2083" y="1077"/>
      <point x="2092" y="1100"/>
    </contour>
  </outline>
</glyph>
<glyph name="absOneMedium" format="2">
  <advance width="460"/>
  <anchor x="460" y="0" name="digit"/>
  <anchor x="0" y="0" name="_digit"/>
  <outline>
    <contour>
      <point x="316" y="271" type="curve" smooth="yes"/>
      <point x="316" y="393"/>
      <point x="298" y="483"/>
      <point x="268" y="578" type="curve" smooth="yes"/>
      <point x="232" y="694"/>
      <point x="185" y="756"/>
      <point x="175" y="756" type="curve" smooth="yes"/>
      <point x="165" y="756"/>
      <point x="132" y="627"/>
      <point x="132" y="594" type="curve" smooth="yes"/>
      <point x="132" y="587"/>
      <point x="280" y="441"/>
      <point x="280" y="129" type="curve" smooth="yes"/>
      <point x="280" y="125"/>
      <point x="285" y="122"/>
      <point x="294" y="122" type="curve" smooth="yes"/>
      <point x="301" y="122"/>
      <point x="306" y="125"/>
      <point x="307" y="129" type="curve" smooth="yes"/>
      <point x="311" y="167"/>
      <point x="316" y="217"/>
    </contour>
  </outline>
</glyph>
<glyph name="absQafNoDotsFin" format="2">
  <advance width="1026"/>
  <anchor x="742" y="533" name="above"/>
  <anchor x="734" y="-391" name="below"/>
  <anchor x="472" y="675" name="diaA"/>
  <anchor x="424" y="-594" name="diaB"/>
  <anchor x="264" y="547" name="alef"/>
  <outline>
    <contour>
      <point x="1093" y="103" type="curve" smooth="yes"/>
      <point x="1093" y="134"/>
      <point x="1088" y="205"/>
      <point x="1038" y="205" type="curve" smooth="yes"/>
      <point x="1001" y="205" type="line" smooth="yes"/>
      <point x="984" y="205"/>
      <point x="957" y="205"/>
      <point x="944" y="205" type="curve"/>
      <point x="936" y="284"/>
      <point x="883" y="474"/>
      <point x="767" y="474" type="curve" smooth="yes"/>
      <point x="693" y="474"/>
      <point x="583" y="294"/>
      <point x="583" y="146" type="curve" smooth="yes"/>
      <point x="583" y="74"/>
      <point x="639" y="-2"/>
      <point x="755" y="-2" type="curve" smooth="yes"/>
      <point x="808" y="-2"/>
      <point x="854" y="0"/>
      <point x="854" y="0" type="curve" name="hr01"/>
      <point x="852" y="-33"/>
      <point x="836" y="-92"/>
      <point x="820" y="-108" type="curve" smooth="yes"/>
      <point x="758" y="-170"/>
      <point x="631" y="-222"/>
      <point x="433" y="-222" type="curve" smooth="yes"/>
      <point x="275" y="-222"/>
      <point x="176" y="-141"/>
      <point x="176" y="-14" type="curve" smooth="yes"/>
      <point x="176" y="71"/>
      <point x="266" y="203"/>
      <point x="266" y="211" type="curve" smooth="yes"/>
      <point x="266" y="219"/>
      <point x="246" y="237"/>
      <point x="238" y="237" type="curve" smooth="yes"/>
      <point x="231" y="237"/>
      <point x="79" y="60"/>
      <point x="79" y="-134" type="curve" smooth="yes"/>
      <point x="79" y="-319"/>
      <point x="201" y="-427"/>
      <point x="367" y="-427" type="curve" smooth="yes"/>
      <point x="637" y="-427"/>
      <point x="830" y="-250"/>
      <point x="894" y="-126" type="curve" smooth="yes"/>
      <point x="917" y="-81"/>
      <point x="929" y="-47"/>
      <point x="939" y="0" type="curve"/>
      <point x="939" y="0"/>
      <point x="970" y="0"/>
      <point x="1001" y="0" type="curve" smooth="yes"/>
      <point x="1038" y="0" type="line" smooth="yes"/>
      <point x="1088" y="0"/>
      <point x="1093" y="72"/>
    </contour>
    <contour>
      <point x="821" y="205" type="curve" name="hr02"/>
      <point x="736" y="205"/>
      <point x="679" y="207"/>
      <point x="679" y="236" type="curve" smooth="yes"/>
      <point x="679" y="254"/>
      <point x="693" y="275"/>
      <point x="726" y="275" type="curve" smooth="yes"/>
      <point x="769" y="275"/>
      <point x="811" y="242"/>
    </contour>
  </outline>
</glyph>
<glyph name="absSamvatSign.2" format="2">
  <advance width="2264"/>
  <anchor x="315" y="0" name="digit"/>
  <outline>
    <contour>
      <point x="2204" y="619" type="curve" smooth="yes"/>
      <point x="2204" y="703"/>
      <point x="2156" y="795"/>
      <point x="2134" y="795" type="curve" smooth="yes"/>
      <point x="2106" y="795"/>
      <point x="2037" y="594"/>
      <point x="2037" y="586" type="curve" smooth="yes"/>
      <point x="2037" y="580"/>
      <point x="2135" y="564"/>
      <point x="2135" y="526" type="curve" smooth="yes"/>
      <point x="2135" y="508"/>
      <point x="2125" y="491"/>
      <point x="2096" y="491" type="curve" smooth="yes"/>
      <point x="2031" y="491"/>
      <point x="1976" y="539"/>
      <point x="1945" y="637" type="curve" smooth="yes"/>
      <point x="1941" y="650"/>
      <point x="1931" y="662"/>
      <point x="1923" y="662" type="curve" smooth="yes"/>
      <point x="1908" y="662"/>
      <point x="1903" y="652"/>
      <point x="1902" y="641" type="curve" smooth="yes"/>
      <point x="1892" y="538"/>
      <point x="1843" y="442"/>
      <point x="1761" y="444" type="curve" smooth="yes" name="hr01"/>
      <point x="1679" y="446"/>
      <point x="1613" y="563"/>
      <point x="1542" y="563" type="curve" smooth="yes" name="hr02"/>
      <point x="1497" y="563"/>
      <point x="1457" y="498"/>
      <point x="1416" y="399" type="curve" smooth="yes"/>
      <point x="1399" y="358"/>
      <point x="1385" y="295"/>
      <point x="1385" y="248" type="curve" smooth="yes"/>
      <point x="1385" y="217"/>
      <point x="1387" y="172"/>
      <point x="1401" y="128" type="curve"/>
      <point x="1350" y="57"/>
      <point x="1319" y="8"/>
      <point x="806" y="8" type="curve" smooth="yes"/>
      <point x="518" y="8"/>
      <point x="107" y="78"/>
      <point x="72" y="78" type="curve" smooth="yes"/>
      <point x="67" y="78"/>
      <point x="50" y="34"/>
      <point x="50" y="13" type="curve" smooth="yes"/>
      <point x="50" y="-10"/>
      <point x="588" y="-159"/>
      <point x="992" y="-159" type="curve" smooth="yes"/>
      <point x="1341" y="-159"/>
      <point x="1419" y="-120"/>
      <point x="1507" y="-45" type="curve"/>
      <point x="1543" y="-86"/>
      <point x="1620" y="-116"/>
      <point x="1672" y="-130" type="curve"/>
      <point x="1706" y="-130"/>
      <point x="1725" y="22"/>
      <point x="1725" y="42" type="curve" smooth="yes"/>
      <point x="1725" y="57"/>
      <point x="1722" y="62"/>
      <point x="1704" y="68" type="curve" smooth="yes"/>
      <point x="1572" y="112"/>
      <point x="1473" y="162"/>
      <point x="1473" y="284" type="curve" smooth="yes"/>
      <point x="1473" y="326"/>
      <point x="1500" y="346"/>
      <point x="1511" y="346" type="curve"/>
      <point x="1549" y="346"/>
      <point x="1629" y="230"/>
      <point x="1714" y="230" type="curve" smooth="yes"/>
      <point x="1811" y="230"/>
      <point x="1851" y="335"/>
      <point x="1896" y="416" type="curve"/>
      <point x="1928" y="354"/>
      <point x="1971" y="291"/>
      <point x="2038" y="291" type="curve" smooth="yes" name="hr03"/>
      <point x="2174" y="291"/>
      <point x="2204" y="539"/>
    </contour>
  </outline>
</glyph>
